<svg id="SvgjsSvg1000" xmlns="http://www.w3.org/2000/svg" version="1.1" xmlns:xlink="http://www.w3.org/1999/xlink" xmlns:svgjs="http://svgjs.com/svgjs" width="964.921875" height="163.78125"><defs id="SvgjsDefs1001"><marker id="SvgjsMarker1045" markerWidth="14" markerHeight="10" refX="10" refY="5" viewBox="0 0 14 10" orient="auto" markerUnits="userSpaceOnUse" stroke-dasharray="0,0"><path id="SvgjsPath1046" d="M0 0L14 5L0 10L0 0 " fill="#323232" stroke="#323232" stroke-width="1"></path></marker><marker id="SvgjsMarker1053" markerWidth="14" markerHeight="10" refX="10" refY="5" viewBox="0 0 14 10" orient="auto" markerUnits="userSpaceOnUse" stroke-dasharray="0,0"><path id="SvgjsPath1054" d="M0 0L14 5L0 10L0 0 " fill="#323232" stroke="#323232" stroke-width="1"></path></marker><marker id="SvgjsMarker1061" markerWidth="14" markerHeight="10" refX="10" refY="5" viewBox="0 0 14 10" orient="auto" markerUnits="userSpaceOnUse" stroke-dasharray="0,0"><path id="SvgjsPath1062" d="M0 0L14 5L0 10L0 0 " fill="#323232" stroke="#323232" stroke-width="1"></path></marker><marker id="SvgjsMarker1069" markerWidth="14" markerHeight="10" refX="10" refY="5" viewBox="0 0 14 10" orient="auto" markerUnits="userSpaceOnUse" stroke-dasharray="0,0"><path id="SvgjsPath1070" d="M0 0L14 5L0 10L0 0 " fill="#323232" stroke="#323232" stroke-width="1"></path></marker></defs><g id="SvgjsG1007" transform="translate(201.06167763157885,52.472039473684134)"><path id="SvgjsPath1008" d="M0 0L100 0L100 70L0 70Z " stroke="rgba(50,50,50,1)" stroke-width="2" fill-opacity="1" fill="#ffffff"></path><g id="SvgjsG1009"><text id="SvgjsText1010" font-family="微软雅黑" text-anchor="middle" font-size="13px" width="80px" fill="#323232" font-weight="400" align="middle" lineHeight="125%" font-style="" opacity="1" y="24.375" transform="rotate(0)"><tspan id="SvgjsTspan1011" dy="16" x="50"><tspan id="SvgjsTspan1012" style="text-decoration:;">待处理任务</tspan></tspan></text></g></g><g id="SvgjsG1013" transform="translate(301.58799342105226,52.47203947368416)"><path id="SvgjsPath1014" d="M0 0L100 0L100 70L0 70Z " stroke="rgba(50,50,50,1)" stroke-width="2" fill-opacity="1" fill="#ffffff"></path><g id="SvgjsG1015"><text id="SvgjsText1016" font-family="微软雅黑" text-anchor="middle" font-size="13px" width="80px" fill="#323232" font-weight="400" align="middle" lineHeight="125%" font-style="" opacity="1" y="24.375" transform="rotate(0)"><tspan id="SvgjsTspan1017" dy="16" x="50"><tspan id="SvgjsTspan1018" style="text-decoration:;">待处理任务</tspan></tspan></text></g></g><g id="SvgjsG1019" transform="translate(402.1143092105257,52.472039473684134)"><path id="SvgjsPath1020" d="M0 0L100 0L100 70L0 70Z " stroke="rgba(50,50,50,1)" stroke-width="2" fill-opacity="1" fill="#ffffff"></path><g id="SvgjsG1021"><text id="SvgjsText1022" font-family="微软雅黑" text-anchor="middle" font-size="13px" width="80px" fill="#323232" font-weight="400" align="middle" lineHeight="125%" font-style="" opacity="1" y="24.375" transform="rotate(0)"><tspan id="SvgjsTspan1023" dy="16" x="50"><tspan id="SvgjsTspan1024" style="text-decoration:;">待处理任务</tspan></tspan></text></g></g><g id="SvgjsG1025" transform="translate(502.6406249999991,52.47203947368416)"><path id="SvgjsPath1026" d="M0 0L100 0L100 70L0 70Z " stroke="rgba(50,50,50,1)" stroke-width="2" fill-opacity="1" fill="#ffffff"></path><g id="SvgjsG1027"><text id="SvgjsText1028" font-family="微软雅黑" text-anchor="middle" font-size="13px" width="80px" fill="#323232" font-weight="400" align="middle" lineHeight="125%" font-style="" opacity="1" y="24.375" transform="rotate(0)"><tspan id="SvgjsTspan1029" dy="16" x="50"><tspan id="SvgjsTspan1030" style="text-decoration:;">待处理任务</tspan></tspan></text></g></g><g id="SvgjsG1031" transform="translate(25.0090460526321,50.14747807017534)"><path id="SvgjsPath1032" d="M0 37.32456140350875C0 -12.44152046783625 75 -12.44152046783625 75 37.32456140350875C75 87.09064327485376 0 87.09064327485376 0 37.32456140350875ZM37.5 0L43.5 5M37.5 0L43.5 -5 " stroke="rgba(50,50,50,1)" stroke-width="2" fill-opacity="1" fill="#ffffff"></path><g id="SvgjsG1033"><text id="SvgjsText1034" font-family="微软雅黑" text-anchor="middle" font-size="13px" width="115px" fill="#323232" font-weight="400" align="middle" lineHeight="125%" font-style="" opacity="1" y="79.0241228070175" transform="rotate(0)"><tspan id="SvgjsTspan1035" dy="16" x="37.5"><tspan id="SvgjsTspan1036" style="text-decoration:;">IO 线程</tspan></tspan></text></g></g><g id="SvgjsG1037" transform="translate(739.3465073529431,47.822916666666714)"><path id="SvgjsPath1038" d="M0 37.32456140350875C0 -12.44152046783625 75 -12.44152046783625 75 37.32456140350875C75 87.09064327485376 0 87.09064327485376 0 37.32456140350875ZM37.5 0L43.5 5M37.5 0L43.5 -5 " stroke="rgba(50,50,50,1)" stroke-width="2" fill-opacity="1" fill="#ffffff"></path><g id="SvgjsG1039"><text id="SvgjsText1040" font-family="微软雅黑" text-anchor="middle" font-size="13px" width="115px" fill="#323232" font-weight="400" align="middle" lineHeight="125%" font-style="" opacity="1" y="79.0241228070175" transform="rotate(0)"><tspan id="SvgjsTspan1041" dy="16" x="37.5"><tspan id="SvgjsTspan1042" style="text-decoration:;">CPU 线程</tspan></tspan></text></g></g><g id="SvgjsG1043"><path id="SvgjsPath1044" d="M101.00904605263219 87.4720394736841L150.53536184210554 87.4720394736841L150.53536184210554 87.4720394736841L197.46167763157882 87.4720394736841 " stroke="#323232" stroke-width="2" fill="none" marker-end="url(#SvgjsMarker1045)"></path><rect id="SvgjsRect1047" width="39" height="16" x="129.7353618421055" y="79.4720394736841" fill="#ffffff"></rect><text id="SvgjsText1048" font-family="微软雅黑" text-anchor="middle" font-size="13px" width="39px" fill="#323232" font-weight="400" align="top" lineHeight="16px" font-style="" opacity="1" y="76.8470394736841" transform="rotate(0)"><tspan id="SvgjsTspan1049" dy="16" x="149.2353618421055"><tspan id="SvgjsTspan1050" style="text-decoration:;">IO完成</tspan></tspan></text></g><g id="SvgjsG1051"><path id="SvgjsPath1052" d="M603.6406249999991 87.47203947368416L670.9935661764712 87.47203947368416L670.9935661764712 85.14747807017545L735.7465073529431 85.14747807017545 " stroke="#323232" stroke-width="2" fill="none" marker-end="url(#SvgjsMarker1053)"></path><rect id="SvgjsRect1055" width="78" height="16" x="631.8558468782254" y="79.47203947368416" fill="#ffffff"></rect><text id="SvgjsText1056" font-family="微软雅黑" text-anchor="middle" font-size="13px" width="78px" fill="#323232" font-weight="400" align="top" lineHeight="16px" font-style="" opacity="1" y="76.84703947368416" transform="rotate(0)"><tspan id="SvgjsTspan1057" dy="16" x="670.8558468782254"><tspan id="SvgjsTspan1058" style="text-decoration:;">取出处理逻辑</tspan></tspan></text></g><g id="SvgjsG1059"><path id="SvgjsPath1060" d="M754.5962639868442 54.01284414740772L754.5962639868442 25.01284414740772L87.34943117898467 25.01284414740772L87.34943117898467 53.737405550916435 " stroke="#323232" stroke-width="2" fill="none" marker-end="url(#SvgjsMarker1061)"></path><rect id="SvgjsRect1063" width="100" height="16" x="371.1105668811601" y="17.01284414740772" fill="#ffffff"></rect><text id="SvgjsText1064" font-family="微软雅黑" text-anchor="middle" font-size="13px" width="100px" fill="#323232" font-weight="400" align="top" lineHeight="16px" font-style="" opacity="1" y="14.38784414740772" transform="rotate(0)"><tspan id="SvgjsTspan1065" dy="16" x="421.1105668811601"><tspan id="SvgjsTspan1066" style="text-decoration:;">需要等待 IO 完成</tspan></tspan></text></g><g id="SvgjsG1067"><path id="SvgjsPath1068" d="M815.3465073529426 85.14747807017545L897.3347426470589 85.14747807017545 " stroke="#323232" stroke-width="2" fill="none" marker-end="url(#SvgjsMarker1069)"></path></g><g id="SvgjsG1071" transform="translate(899.9347426470588,65.14747807017557)"><path id="SvgjsPath1072" d="M0 20C0 -6.666666666666667 40 -6.666666666666667 40 20C40 46.666666666666664 0 46.666666666666664 0 20Z " stroke="rgba(50,50,50,1)" stroke-width="2" fill-opacity="1" fill="#ffffff"></path><path id="SvgjsPath1073" d="M10 20C10 6.666666666666666 30 6.666666666666666 30 20C30 33.333333333333336 10 33.333333333333336 10 20Z " stroke="none" fill-opacity="1" fill="#323232"></path><path id="SvgjsPath1074" d="M0 20C0 -6.666666666666667 40 -6.666666666666667 40 20C40 46.666666666666664 0 46.666666666666664 0 20Z " stroke="none" fill="none"></path><g id="SvgjsG1075"><text id="SvgjsText1076" font-family="微软雅黑" text-anchor="middle" font-size="13px" width="80px" fill="#323232" font-weight="400" align="middle" lineHeight="125%" font-style="" opacity="1" y="36.375" transform="rotate(0)"><tspan id="SvgjsTspan1077" dy="16" x="20"><tspan id="SvgjsTspan1078" style="text-decoration:;">任务完成</tspan></tspan><tspan id="SvgjsTspan1079" dy="16" x="20"><tspan id="SvgjsTspan1080" style="text-decoration:;">结束</tspan></tspan></text></g></g></svg>