<svg id="SvgjsSvg1097" xmlns="http://www.w3.org/2000/svg" version="1.1" xmlns:xlink="http://www.w3.org/1999/xlink" xmlns:svgjs="http://svgjs.com/svgjs" width="1351" height="385"><defs id="SvgjsDefs1098"><marker id="SvgjsMarker1129" markerWidth="14" markerHeight="10" refX="10" refY="5" viewBox="0 0 14 10" orient="auto" markerUnits="userSpaceOnUse" stroke-dasharray="0,0"><path id="SvgjsPath1130" d="M0 0L14 5L0 10L0 0 " fill="#323232" stroke="#323232" stroke-width="1"></path></marker><marker id="SvgjsMarker1133" markerWidth="14" markerHeight="10" refX="10" refY="5" viewBox="0 0 14 10" orient="auto" markerUnits="userSpaceOnUse" stroke-dasharray="0,0"><path id="SvgjsPath1134" d="M0 0L14 5L0 10L0 0 " fill="#323232" stroke="#323232" stroke-width="1"></path></marker><marker id="SvgjsMarker1161" markerWidth="14" markerHeight="10" refX="10" refY="5" viewBox="0 0 14 10" orient="auto" markerUnits="userSpaceOnUse" stroke-dasharray="0,0"><path id="SvgjsPath1162" d="M0 0L14 5L0 10L0 0 " fill="#323232" stroke="#323232" stroke-width="1"></path></marker><marker id="SvgjsMarker1171" markerWidth="14" markerHeight="10" refX="10" refY="5" viewBox="0 0 14 10" orient="auto" markerUnits="userSpaceOnUse" stroke-dasharray="0,0"><path id="SvgjsPath1172" d="M0 0L14 5L0 10L0 0 " fill="#323232" stroke="#323232" stroke-width="1"></path></marker><marker id="SvgjsMarker1215" markerWidth="14" markerHeight="10" refX="10" refY="5" viewBox="0 0 14 10" orient="auto" markerUnits="userSpaceOnUse" stroke-dasharray="0,0"><path id="SvgjsPath1216" d="M0 0L14 5L0 10L0 0 " fill="#323232" stroke="#323232" stroke-width="1"></path></marker><marker id="SvgjsMarker1219" markerWidth="14" markerHeight="10" refX="10" refY="5" viewBox="0 0 14 10" orient="auto" markerUnits="userSpaceOnUse" stroke-dasharray="0,0"><path id="SvgjsPath1220" d="M0 0L14 5L0 10L0 0 " fill="#323232" stroke="#323232" stroke-width="1"></path></marker><marker id="SvgjsMarker1235" markerWidth="14" markerHeight="10" refX="10" refY="5" viewBox="0 0 14 10" orient="auto" markerUnits="userSpaceOnUse" stroke-dasharray="0,0"><path id="SvgjsPath1236" d="M0 0L14 5L0 10L0 0 " fill="#323232" stroke="#323232" stroke-width="1"></path></marker></defs><g id="SvgjsG1099" transform="translate(505,25)"><path id="SvgjsPath1100" d="M0 0L333 0L333 301L0 301Z " stroke="rgba(50,50,50,1)" stroke-width="2" fill-opacity="1" fill="#ffffff"></path><g id="SvgjsG1101"><text id="SvgjsText1102" font-family="微软雅黑" text-anchor="middle" font-size="13px" width="313px" fill="#323232" font-weight="400" align="middle" lineHeight="125%" font-style="" opacity="1" y="139.875" transform="rotate(0)"></text></g></g><g id="SvgjsG1103" transform="translate(513,50)"><path id="SvgjsPath1104" d="M0 0L100 0L100 70L0 70Z " stroke="rgba(50,50,50,1)" stroke-width="2" fill-opacity="1" fill="#ffffff"></path><g id="SvgjsG1105"><text id="SvgjsText1106" font-family="微软雅黑" text-anchor="middle" font-size="13px" width="80px" fill="#323232" font-weight="400" align="middle" lineHeight="125%" font-style="" opacity="1" y="16.375" transform="rotate(0)"><tspan id="SvgjsTspan1107" dy="16" x="50"><tspan id="SvgjsTspan1108" style="text-decoration:;">A公钥</tspan></tspan><tspan id="SvgjsTspan1109" dy="16" x="50"><tspan id="SvgjsTspan1110" style="text-decoration:;">转账金额5</tspan></tspan></text></g></g><g id="SvgjsG1111" transform="translate(721,50)"><path id="SvgjsPath1112" d="M0 0L100 0L100 70L0 70Z " stroke="rgba(50,50,50,1)" stroke-width="2" fill-opacity="1" fill="#ffffff"></path><g id="SvgjsG1113"><text id="SvgjsText1114" font-family="微软雅黑" text-anchor="middle" font-size="13px" width="80px" fill="#323232" font-weight="400" align="middle" lineHeight="125%" font-style="" opacity="1" y="16.375" transform="rotate(0)"><tspan id="SvgjsTspan1115" dy="16" x="50"><tspan id="SvgjsTspan1116" style="text-decoration:;">B公钥</tspan></tspan><tspan id="SvgjsTspan1117" dy="16" x="50"><tspan id="SvgjsTspan1118" style="text-decoration:;">收入金额3</tspan></tspan></text></g></g><g id="SvgjsG1119" transform="translate(721,177)"><path id="SvgjsPath1120" d="M0 0L100 0L100 70L0 70Z " stroke="rgba(50,50,50,1)" stroke-width="2" fill-opacity="1" fill="#ffffff"></path><g id="SvgjsG1121"><text id="SvgjsText1122" font-family="微软雅黑" text-anchor="middle" font-size="13px" width="80px" fill="#323232" font-weight="400" align="middle" lineHeight="125%" font-style="" opacity="1" y="16.375" transform="rotate(0)"><tspan id="SvgjsTspan1123" dy="16" x="50"><tspan id="SvgjsTspan1124" style="text-decoration:;">C公钥</tspan></tspan><tspan id="SvgjsTspan1125" dy="16" x="50"><tspan id="SvgjsTspan1126" style="text-decoration:;">收入金额2</tspan></tspan></text></g></g><g id="SvgjsG1127"><path id="SvgjsPath1128" d="M614 85L667 85L667 85L717.4 85 " stroke="#323232" stroke-width="2" fill="none" marker-end="url(#SvgjsMarker1129)"></path></g><g id="SvgjsG1131"><path id="SvgjsPath1132" d="M614 85L667 85L667 212L717.4 212 " stroke="#323232" stroke-width="2" fill="none" marker-end="url(#SvgjsMarker1133)"></path></g><g id="SvgjsG1135" transform="translate(572,271)"><path id="SvgjsPath1136" d="M0 0L149 0L149 42L0 42Z " stroke="rgba(50,50,50,1)" stroke-width="2" fill-opacity="1" fill="#ffffff"></path><g id="SvgjsG1137"><text id="SvgjsText1138" font-family="微软雅黑" text-anchor="middle" font-size="13px" width="129px" fill="#323232" font-weight="400" align="middle" lineHeight="125%" font-style="" opacity="1" y="10.375" transform="rotate(0)"><tspan id="SvgjsTspan1139" dy="16" x="74.5"><tspan id="SvgjsTspan1140" style="text-decoration:;">签名（A私钥生成）</tspan></tspan></text></g></g><g id="SvgjsG1141" transform="translate(25,25)"><path id="SvgjsPath1142" d="M0 0L333 0L333 301L0 301Z " stroke="rgba(50,50,50,1)" stroke-width="2" fill-opacity="1" fill="#ffffff"></path><g id="SvgjsG1143"><text id="SvgjsText1144" font-family="微软雅黑" text-anchor="middle" font-size="13px" width="313px" fill="#323232" font-weight="400" align="middle" lineHeight="125%" font-style="" opacity="1" y="139.875" transform="rotate(0)"></text></g></g><g id="SvgjsG1145" transform="translate(33,50)"><path id="SvgjsPath1146" d="M0 0L100 0L100 70L0 70Z " stroke="rgba(50,50,50,1)" stroke-width="2" fill-opacity="1" fill="#ffffff"></path><g id="SvgjsG1147"><text id="SvgjsText1148" font-family="微软雅黑" text-anchor="middle" font-size="13px" width="80px" fill="#323232" font-weight="400" align="middle" lineHeight="125%" font-style="" opacity="1" y="24.375" transform="rotate(0)"><tspan id="SvgjsTspan1149" dy="16" x="50"><tspan id="SvgjsTspan1150" style="text-decoration:;"> </tspan></tspan></text></g></g><g id="SvgjsG1151" transform="translate(225,50)"><path id="SvgjsPath1152" d="M0 0L100 0L100 70L0 70Z " stroke="rgba(50,50,50,1)" stroke-width="2" fill-opacity="1" fill="#ffffff"></path><g id="SvgjsG1153"><text id="SvgjsText1154" font-family="微软雅黑" text-anchor="middle" font-size="13px" width="80px" fill="#323232" font-weight="400" align="middle" lineHeight="125%" font-style="" opacity="1" y="16.375" transform="rotate(0)"><tspan id="SvgjsTspan1155" dy="16" x="50"><tspan id="SvgjsTspan1156" style="text-decoration:;">A公钥</tspan></tspan><tspan id="SvgjsTspan1157" dy="16" x="50"><tspan id="SvgjsTspan1158" style="text-decoration:;">收入金额5</tspan></tspan></text></g></g><g id="SvgjsG1159"><path id="SvgjsPath1160" d="M134 85L179 85L179 85L221.39999999999998 85 " stroke="#323232" stroke-width="2" fill="none" marker-end="url(#SvgjsMarker1161)"></path></g><g id="SvgjsG1163" transform="translate(92,271)"><path id="SvgjsPath1164" d="M0 0L149 0L149 42L0 42Z " stroke="rgba(50,50,50,1)" stroke-width="2" fill-opacity="1" fill="#ffffff"></path><g id="SvgjsG1165"><text id="SvgjsText1166" font-family="微软雅黑" text-anchor="middle" font-size="13px" width="129px" fill="#323232" font-weight="400" align="middle" lineHeight="125%" font-style="" opacity="1" y="10.375" transform="rotate(0)"><tspan id="SvgjsTspan1167" dy="16" x="74.5"><tspan id="SvgjsTspan1168" style="text-decoration:;">签名</tspan></tspan></text></g></g><g id="SvgjsG1169"><path id="SvgjsPath1170" d="M512 85L419 85L419 85L328.6 85 " stroke="#323232" stroke-width="2" fill="none" marker-end="url(#SvgjsMarker1171)"></path></g><g id="SvgjsG1173" transform="translate(579,326)"><path id="SvgjsPath1174" d="M0 0L193 0L193 34L0 34Z " stroke="none" fill="none"></path><g id="SvgjsG1175"><text id="SvgjsText1176" font-family="微软雅黑" text-anchor="middle" font-size="13px" width="193px" fill="#323232" font-weight="400" align="middle" lineHeight="125%" font-style="" opacity="1" y="6.375" transform="rotate(0)"><tspan id="SvgjsTspan1177" dy="16" x="96.5"><tspan id="SvgjsTspan1178" style="text-decoration:;">上一次交易（已经写入区块链）</tspan></tspan></text></g></g><g id="SvgjsG1179" transform="translate(92,326)"><path id="SvgjsPath1180" d="M0 0L193 0L193 34L0 34Z " stroke="none" fill="none"></path><g id="SvgjsG1181"><text id="SvgjsText1182" font-family="微软雅黑" text-anchor="middle" font-size="13px" width="193px" fill="#323232" font-weight="400" align="middle" lineHeight="125%" font-style="" opacity="1" y="6.375" transform="rotate(0)"><tspan id="SvgjsTspan1183" dy="16" x="96.5"><tspan id="SvgjsTspan1184" style="text-decoration:;">上一次交易（已经写入区块链）</tspan></tspan></text></g></g><g id="SvgjsG1185" transform="translate(993,25)"><path id="SvgjsPath1186" d="M0 0L333 0L333 301L0 301Z " stroke="rgba(50,50,50,1)" stroke-width="2" fill-opacity="1" fill="#ffffff"></path><g id="SvgjsG1187"><text id="SvgjsText1188" font-family="微软雅黑" text-anchor="middle" font-size="13px" width="313px" fill="#323232" font-weight="400" align="middle" lineHeight="125%" font-style="" opacity="1" y="139.875" transform="rotate(0)"></text></g></g><g id="SvgjsG1189" transform="translate(1001,50)"><path id="SvgjsPath1190" d="M0 0L100 0L100 70L0 70Z " stroke="rgba(50,50,50,1)" stroke-width="2" fill-opacity="1" fill="#ffffff"></path><g id="SvgjsG1191"><text id="SvgjsText1192" font-family="微软雅黑" text-anchor="middle" font-size="13px" width="80px" fill="#323232" font-weight="400" align="middle" lineHeight="125%" font-style="" opacity="1" y="16.375" transform="rotate(0)"><tspan id="SvgjsTspan1193" dy="16" x="50"><tspan id="SvgjsTspan1194" style="text-decoration:;">B公钥</tspan></tspan><tspan id="SvgjsTspan1195" dy="16" x="50"><tspan id="SvgjsTspan1196" style="text-decoration:;">转账金额5</tspan></tspan></text></g></g><g id="SvgjsG1197" transform="translate(1209,50)"><path id="SvgjsPath1198" d="M0 0L100 0L100 70L0 70Z " stroke="rgba(50,50,50,1)" stroke-width="2" fill-opacity="1" fill="#ffffff"></path><g id="SvgjsG1199"><text id="SvgjsText1200" font-family="微软雅黑" text-anchor="middle" font-size="13px" width="80px" fill="#323232" font-weight="400" align="middle" lineHeight="125%" font-style="" opacity="1" y="16.375" transform="rotate(0)"><tspan id="SvgjsTspan1201" dy="16" x="50"><tspan id="SvgjsTspan1202" style="text-decoration:;">D公钥</tspan></tspan><tspan id="SvgjsTspan1203" dy="16" x="50"><tspan id="SvgjsTspan1204" style="text-decoration:;">收入金额3</tspan></tspan></text></g></g><g id="SvgjsG1205" transform="translate(1209,177)"><path id="SvgjsPath1206" d="M0 0L100 0L100 70L0 70Z " stroke="rgba(50,50,50,1)" stroke-width="2" fill-opacity="1" fill="#ffffff"></path><g id="SvgjsG1207"><text id="SvgjsText1208" font-family="微软雅黑" text-anchor="middle" font-size="13px" width="80px" fill="#323232" font-weight="400" align="middle" lineHeight="125%" font-style="" opacity="1" y="16.375" transform="rotate(0)"><tspan id="SvgjsTspan1209" dy="16" x="50"><tspan id="SvgjsTspan1210" style="text-decoration:;">E公钥</tspan></tspan><tspan id="SvgjsTspan1211" dy="16" x="50"><tspan id="SvgjsTspan1212" style="text-decoration:;">收入金额2</tspan></tspan></text></g></g><g id="SvgjsG1213"><path id="SvgjsPath1214" d="M1102 85L1155 85L1155 85L1205.4 85 " stroke="#323232" stroke-width="2" fill="none" marker-end="url(#SvgjsMarker1215)"></path></g><g id="SvgjsG1217"><path id="SvgjsPath1218" d="M1102 85L1155 85L1155 212L1205.4 212 " stroke="#323232" stroke-width="2" fill="none" marker-end="url(#SvgjsMarker1219)"></path></g><g id="SvgjsG1221" transform="translate(1060,271)"><path id="SvgjsPath1222" d="M0 0L149 0L149 42L0 42Z " stroke="rgba(50,50,50,1)" stroke-width="2" fill-opacity="1" fill="#ffffff"></path><g id="SvgjsG1223"><text id="SvgjsText1224" font-family="微软雅黑" text-anchor="middle" font-size="13px" width="129px" fill="#323232" font-weight="400" align="middle" lineHeight="125%" font-style="" opacity="1" y="10.375" transform="rotate(0)"><tspan id="SvgjsTspan1225" dy="16" x="74.5"><tspan id="SvgjsTspan1226" style="text-decoration:;">签名（B私钥生成）</tspan></tspan></text></g></g><g id="SvgjsG1227" transform="translate(1067,326)"><path id="SvgjsPath1228" d="M0 0L193 0L193 34L0 34Z " stroke="none" fill="none"></path><g id="SvgjsG1229"><text id="SvgjsText1230" font-family="微软雅黑" text-anchor="middle" font-size="13px" width="193px" fill="#323232" font-weight="400" align="middle" lineHeight="125%" font-style="" opacity="1" y="6.375" transform="rotate(0)"><tspan id="SvgjsTspan1231" dy="16" x="96.5"><tspan id="SvgjsTspan1232" style="text-decoration:;">本次交易（还未写入区块链）</tspan></tspan></text></g></g><g id="SvgjsG1233"><path id="SvgjsPath1234" d="M1000 85L911 85L911 85L824.6 85 " stroke="#323232" stroke-width="2" fill="none" marker-end="url(#SvgjsMarker1235)"></path><rect id="SvgjsRect1237" width="91" height="16" x="866.8000000000001" y="77" fill="#ffffff"></rect><text id="SvgjsText1238" font-family="微软雅黑" text-anchor="middle" font-size="13px" width="91px" fill="#323232" font-weight="400" align="top" lineHeight="16px" font-style="" opacity="1" y="74.375" transform="rotate(0)"><tspan id="SvgjsTspan1239" dy="16" x="912.3000000000001"><tspan id="SvgjsTspan1240" style="text-decoration:;">验证公钥和余额</tspan></tspan></text></g></svg>