<svg id="SvgjsSvg1000" xmlns="http://www.w3.org/2000/svg" version="1.1" xmlns:xlink="http://www.w3.org/1999/xlink" xmlns:svgjs="http://svgjs.com/svgjs" width="274.4375" height="258"><defs id="SvgjsDefs1001"></defs><g id="SvgjsG1007" transform="translate(25.011160714285836,24.99999999999983)"><path id="SvgjsPath1008" d="M0 0L134.78571428571416 0L134.78571428571416 207.50000000000017L0 207.50000000000017Z " stroke="rgba(50,50,50,1)" stroke-width="2" fill-opacity="1" fill="#ffffff"></path><g id="SvgjsG1009"><text id="SvgjsText1010" font-family="微软雅黑" text-anchor="middle" font-size="13px" width="115px" fill="#323232" font-weight="400" align="middle" lineHeight="125%" font-style="" opacity="1" y="93.12500000000009" transform="rotate(0)"></text></g></g><g id="SvgjsG1011" transform="translate(25.258413461538566,25)"><path id="SvgjsPath1012" d="M0 0L134.29120879120865 0L134.29120879120865 20L0 20Z " stroke="rgba(255,0,0,1)" stroke-width="2" fill-opacity="1" fill="#ffffff"></path><g id="SvgjsG1013"><text id="SvgjsText1014" font-family="微软雅黑" text-anchor="middle" font-size="13px" width="115px" fill="#323232" font-weight="400" align="middle" lineHeight="125%" font-style="" opacity="1" y="-0.625" transform="rotate(0)"><tspan id="SvgjsTspan1015" dy="16" x="67.5"><tspan id="SvgjsTspan1016" style="text-decoration:;">版本</tspan></tspan></text></g></g><g id="SvgjsG1017" transform="translate(25.258413461538566,45)"><path id="SvgjsPath1018" d="M0 0L134.29120879120865 0L134.29120879120865 20L0 20Z " stroke="rgba(255,0,0,1)" stroke-width="2" fill-opacity="1" fill="#ffffff"></path><g id="SvgjsG1019"><text id="SvgjsText1020" font-family="微软雅黑" text-anchor="middle" font-size="13px" width="115px" fill="#323232" font-weight="400" align="middle" lineHeight="125%" font-style="" opacity="1" y="-0.625" transform="rotate(0)"><tspan id="SvgjsTspan1021" dy="16" x="67.5"><tspan id="SvgjsTspan1022" style="text-decoration:;">前块标识</tspan></tspan></text></g></g><g id="SvgjsG1023" transform="translate(25.258413461538566,65)"><path id="SvgjsPath1024" d="M0 0L134.29120879120865 0L134.29120879120865 20L0 20Z " stroke="rgba(255,0,0,1)" stroke-width="2" fill-opacity="1" fill="#ffffff"></path><g id="SvgjsG1025"><text id="SvgjsText1026" font-family="微软雅黑" text-anchor="middle" font-size="13px" width="115px" fill="#323232" font-weight="400" align="middle" lineHeight="125%" font-style="" opacity="1" y="-0.625" transform="rotate(0)"><tspan id="SvgjsTspan1027" dy="16" x="67.5"><tspan id="SvgjsTspan1028" style="text-decoration:;">默克尔值</tspan></tspan></text></g></g><g id="SvgjsG1029" transform="translate(25.258413461538566,85)"><path id="SvgjsPath1030" d="M0 0L134.29120879120865 0L134.29120879120865 20L0 20Z " stroke="rgba(255,0,0,1)" stroke-width="2" fill-opacity="1" fill="#ffffff"></path><g id="SvgjsG1031"><text id="SvgjsText1032" font-family="微软雅黑" text-anchor="middle" font-size="13px" width="115px" fill="#323232" font-weight="400" align="middle" lineHeight="125%" font-style="" opacity="1" y="-0.625" transform="rotate(0)"><tspan id="SvgjsTspan1033" dy="16" x="67.5"><tspan id="SvgjsTspan1034" style="text-decoration:;">时间戳</tspan></tspan></text></g></g><g id="SvgjsG1035" transform="translate(25.258413461538566,105)"><path id="SvgjsPath1036" d="M0 0L134.29120879120865 0L134.29120879120865 20L0 20Z " stroke="rgba(255,0,0,1)" stroke-width="2" fill-opacity="1" fill="#ffffff"></path><g id="SvgjsG1037"><text id="SvgjsText1038" font-family="微软雅黑" text-anchor="middle" font-size="13px" width="115px" fill="#323232" font-weight="400" align="middle" lineHeight="125%" font-style="" opacity="1" y="-0.625" transform="rotate(0)"><tspan id="SvgjsTspan1039" dy="16" x="67.5"><tspan id="SvgjsTspan1040" style="text-decoration:;">目标难度值</tspan></tspan></text></g></g><g id="SvgjsG1041" transform="translate(25.258413461538566,145)"><path id="SvgjsPath1042" d="M0 0L134.29120879120865 0L134.29120879120865 87.5L0 87.5Z " stroke="rgba(50,50,50,1)" stroke-width="2" fill-opacity="1" fill="#ffffff"></path><g id="SvgjsG1043"><text id="SvgjsText1044" font-family="微软雅黑" text-anchor="middle" font-size="13px" width="115px" fill="#323232" font-weight="400" align="middle" lineHeight="125%" font-style="" opacity="1" y="33.125" transform="rotate(0)"><tspan id="SvgjsTspan1045" dy="16" x="67.5"><tspan id="SvgjsTspan1046" style="text-decoration:;">交易数据</tspan></tspan></text></g></g><g id="SvgjsG1047" transform="translate(25.258413461538566,125)"><path id="SvgjsPath1048" d="M0 0L134.29120879120865 0L134.29120879120865 20L0 20Z " stroke="rgba(255,0,0,1)" stroke-width="2" fill-opacity="1" fill="#ffffff"></path><g id="SvgjsG1049"><text id="SvgjsText1050" font-family="微软雅黑" text-anchor="middle" font-size="13px" width="115px" fill="#323232" font-weight="400" align="middle" lineHeight="125%" font-style="" opacity="1" y="-0.625" transform="rotate(0)"><tspan id="SvgjsTspan1051" dy="16" x="67.5"><tspan id="SvgjsTspan1052" style="text-decoration:;">随机数</tspan></tspan></text></g></g><g id="SvgjsG1053" transform="translate(161.5496222527472,24.99999999999983)"><path id="SvgjsPath1054" d="M0 117.49999999999983Q3.224725274725279 117.49999999999983 3.224725274725279 108.49999999999983L3.224725274725279 67.74999999999991Q3.224725274725279 58.749999999999915 22 58.749999999999915Q3.224725274725279 58.749999999999915 3.224725274725279 49.749999999999915L3.224725274725279 9Q3.224725274725279 0 0 0 " stroke="rgba(50,50,50,1)" stroke-width="2" fill="none"></path><path id="SvgjsPath1055" d="M0 0L32.24725274725279 0L32.24725274725279 117.49999999999983L0 117.49999999999983Z " stroke="none" fill="none"></path><g id="SvgjsG1056"><text id="SvgjsText1057" font-family="微软雅黑" text-anchor="start" font-size="13px" width="6px" fill="#323232" font-weight="400" align="middle" lineHeight="125%" font-style="" opacity="1" y="48.124999999999915" transform="rotate(0)"></text></g></g><g id="SvgjsG1058" transform="translate(168.796875,75.5)"><path id="SvgjsPath1059" d="M0 0L76.5 0L76.5 16.5L0 16.5Z " stroke="none" fill="none"></path><g id="SvgjsG1060"><text id="SvgjsText1061" font-family="微软雅黑" text-anchor="middle" font-size="13px" width="77px" fill="#323232" font-weight="400" align="middle" lineHeight="125%" font-style="" opacity="1" y="-2.375" transform="rotate(0)"><tspan id="SvgjsTspan1062" dy="16" x="38.5"><tspan id="SvgjsTspan1063" style="text-decoration:;">区块头</tspan></tspan></text></g></g><g id="SvgjsG1064" transform="translate(161.5496222527472,145)"><path id="SvgjsPath1065" d="M0 87.50000000000004Q3.0707034928068957 87.50000000000004 3.0707034928068957 78.75000000000004L3.0707034928068957 52.50000000000003Q3.0707034928068957 43.75000000000002 22 43.75000000000002Q3.0707034928068957 43.75000000000002 3.0707034928068957 35.000000000000014L3.0707034928068957 8.750000000000005Q3.0707034928068957 0 0 0 " stroke="rgba(50,50,50,1)" stroke-width="2" fill="none"></path><path id="SvgjsPath1066" d="M0 0L30.707034928068953 0L30.707034928068953 87.50000000000004L0 87.50000000000004Z " stroke="none" fill="none"></path><g id="SvgjsG1067"><text id="SvgjsText1068" font-family="微软雅黑" text-anchor="start" font-size="13px" width="4px" fill="#323232" font-weight="400" align="middle" lineHeight="125%" font-style="" opacity="1" y="33.12500000000002" transform="rotate(0)"></text></g></g><g id="SvgjsG1069" transform="translate(176.4507262006298,182.6063829787234)"><path id="SvgjsPath1070" d="M0 0L72.84614879937016 0L72.84614879937016 12.287234042553214L0 12.287234042553214Z " stroke="none" fill="none"></path><g id="SvgjsG1071"><text id="SvgjsText1072" font-family="微软雅黑" text-anchor="middle" font-size="13px" width="73px" fill="#323232" font-weight="400" align="middle" lineHeight="125%" font-style="" opacity="1" y="-4.481382978723393" transform="rotate(0)"><tspan id="SvgjsTspan1073" dy="16" x="36.5"><tspan id="SvgjsTspan1074" style="text-decoration:;">交易数据</tspan></tspan></text></g></g></svg>