<svg id="SvgjsSvg1055" xmlns="http://www.w3.org/2000/svg" version="1.1" xmlns:xlink="http://www.w3.org/1999/xlink" xmlns:svgjs="http://svgjs.com/svgjs" width="945.5625" height="250"><defs id="SvgjsDefs1056"><marker id="SvgjsMarker1083" markerWidth="14" markerHeight="10" refX="10" refY="5" viewBox="0 0 14 10" orient="auto" markerUnits="userSpaceOnUse" stroke-dasharray="0,0"><path id="SvgjsPath1084" d="M0 0L14 5L0 10L0 0 " fill="#323232" stroke="#323232" stroke-width="1"></path></marker><marker id="SvgjsMarker1087" markerWidth="14" markerHeight="10" refX="10" refY="5" viewBox="0 0 14 10" orient="auto" markerUnits="userSpaceOnUse" stroke-dasharray="0,0"><path id="SvgjsPath1088" d="M0 0L14 5L0 10L0 0 " fill="#323232" stroke="#323232" stroke-width="1"></path></marker><marker id="SvgjsMarker1091" markerWidth="14" markerHeight="10" refX="10" refY="5" viewBox="0 0 14 10" orient="auto" markerUnits="userSpaceOnUse" stroke-dasharray="0,0"><path id="SvgjsPath1092" d="M0 0L14 5L0 10L0 0 " fill="#323232" stroke="#323232" stroke-width="1"></path></marker><marker id="SvgjsMarker1095" markerWidth="14" markerHeight="10" refX="10" refY="5" viewBox="0 0 14 10" orient="auto" markerUnits="userSpaceOnUse" stroke-dasharray="0,0"><path id="SvgjsPath1096" d="M0 0L14 5L0 10L0 0 " fill="#323232" stroke="#323232" stroke-width="1"></path></marker><marker id="SvgjsMarker1099" markerWidth="14" markerHeight="10" refX="10" refY="5" viewBox="0 0 14 10" orient="auto" markerUnits="userSpaceOnUse" stroke-dasharray="0,0"><path id="SvgjsPath1100" d="M0 0L14 5L0 10L0 0 " fill="#323232" stroke="#323232" stroke-width="1"></path></marker><marker id="SvgjsMarker1103" markerWidth="14" markerHeight="10" refX="10" refY="5" viewBox="0 0 14 10" orient="auto" markerUnits="userSpaceOnUse" stroke-dasharray="0,0"><path id="SvgjsPath1104" d="M0 0L14 5L0 10L0 0 " fill="#323232" stroke="#323232" stroke-width="1"></path></marker></defs><g id="SvgjsG1057" transform="translate(93.90104166666669,85.01041666666663)"><path id="SvgjsPath1058" d="M0 0L100 0L100 70L0 70Z " stroke="rgba(50,50,50,1)" stroke-width="2" fill-opacity="1" fill="#ffffff"></path><g id="SvgjsG1059"><text id="SvgjsText1060" font-family="微软雅黑" text-anchor="middle" font-size="13px" width="80px" fill="#323232" font-weight="400" align="middle" lineHeight="125%" font-style="" opacity="1" y="24.375" transform="rotate(0)"></text></g></g><g id="SvgjsG1061" transform="translate(272.7899305555557,85.0104166666668)"><path id="SvgjsPath1062" d="M0 0L100 0L100 70L0 70Z " stroke="rgba(50,50,50,1)" stroke-width="2" fill-opacity="1" fill="#ffffff"></path><g id="SvgjsG1063"><text id="SvgjsText1064" font-family="微软雅黑" text-anchor="middle" font-size="13px" width="80px" fill="#323232" font-weight="400" align="middle" lineHeight="125%" font-style="" opacity="1" y="24.375" transform="rotate(0)"></text></g></g><g id="SvgjsG1065" transform="translate(451.6788194444455,85.01041666666742)"><path id="SvgjsPath1066" d="M0 0L100 0L100 70L0 70Z " stroke="rgba(50,50,50,1)" stroke-width="2" fill-opacity="1" fill="#ffffff"></path><g id="SvgjsG1067"><text id="SvgjsText1068" font-family="微软雅黑" text-anchor="middle" font-size="13px" width="80px" fill="#323232" font-weight="400" align="middle" lineHeight="125%" font-style="" opacity="1" y="24.375" transform="rotate(0)"></text></g></g><g id="SvgjsG1069" transform="translate(636.1232638888891,85.01041666666777)"><path id="SvgjsPath1070" d="M0 0L100 0L100 70L0 70Z " stroke="rgba(50,50,50,1)" stroke-width="2" fill-opacity="1" fill="#ffff00"></path><g id="SvgjsG1071"><text id="SvgjsText1072" font-family="微软雅黑" text-anchor="middle" font-size="13px" width="80px" fill="#323232" font-weight="400" align="middle" lineHeight="125%" font-style="" opacity="1" y="24.375" transform="rotate(0)"></text></g></g><g id="SvgjsG1073" transform="translate(820.5677083333328,25.010416666667652)"><path id="SvgjsPath1074" d="M0 0L100 0L100 70L0 70Z " stroke="rgba(50,50,50,1)" stroke-width="2" fill-opacity="1" fill="#ff0000"></path><g id="SvgjsG1075"><text id="SvgjsText1076" font-family="微软雅黑" text-anchor="middle" font-size="13px" width="80px" fill="#323232" font-weight="400" align="middle" lineHeight="125%" font-style="" opacity="1" y="24.375" transform="rotate(0)"></text></g></g><g id="SvgjsG1077" transform="translate(820.5677083333328,155.01041666666777)"><path id="SvgjsPath1078" d="M0 0L100 0L100 70L0 70Z " stroke="rgba(50,50,50,1)" stroke-width="2" fill-opacity="1" fill="#ff0000"></path><g id="SvgjsG1079"><text id="SvgjsText1080" font-family="微软雅黑" text-anchor="middle" font-size="13px" width="80px" fill="#323232" font-weight="400" align="middle" lineHeight="125%" font-style="" opacity="1" y="24.375" transform="rotate(0)"></text></g></g><g id="SvgjsG1081"><path id="SvgjsPath1082" d="M819.5677083333328 190.01041666666777L778.345486111111 190.01041666666777L778.345486111111 120.01041666666777L739.7232638888892 120.01041666666777 " stroke-dasharray="3,3" stroke="#323232" stroke-width="2" fill="none" marker-end="url(#SvgjsMarker1083)"></path></g><g id="SvgjsG1085"><path id="SvgjsPath1086" d="M450.6788194444455 120.01041666666742L412.23437500000057 120.01041666666742L412.23437500000057 120.01041666666742L376.3899305555557 120.01041666666742 " stroke="#323232" stroke-width="2" fill="none" marker-end="url(#SvgjsMarker1087)"></path></g><g id="SvgjsG1089"><path id="SvgjsPath1090" d="M635.1232638888891 120.01041666666777L593.9010416666673 120.01041666666777L593.9010416666673 120.01041666666777L555.2788194444455 120.01041666666777 " stroke="#323232" stroke-width="2" fill="none" marker-end="url(#SvgjsMarker1091)"></path></g><g id="SvgjsG1093"><path id="SvgjsPath1094" d="M819.5677083333328 60.01041666666765L778.345486111111 60.01041666666765L778.345486111111 120.01041666666765L739.7232638888892 120.01041666666765 " stroke-dasharray="3,3" stroke="#323232" stroke-width="2" fill="none" marker-end="url(#SvgjsMarker1095)"></path></g><g id="SvgjsG1097"><path id="SvgjsPath1098" d="M271.7899305555557 120.0104166666668L233.3454861111112 120.0104166666668L233.3454861111112 120.0104166666668L197.5010416666667 120.0104166666668 " stroke="#323232" stroke-width="2" fill="none" marker-end="url(#SvgjsMarker1099)"></path></g><g id="SvgjsG1101"><path id="SvgjsPath1102" d="M92.90104166666669 120.01041666666663L59.45659722222223 120.01041666666663L59.45659722222223 120.01041666666663L25.01215277777777 120.01041666666663 " stroke="#323232" stroke-width="2" fill="none" marker-end="url(#SvgjsMarker1103)"></path></g></svg>