<svg id="SvgjsSvg1000" xmlns="http://www.w3.org/2000/svg" version="1.1" xmlns:xlink="http://www.w3.org/1999/xlink" xmlns:svgjs="http://svgjs.com/svgjs" width="863" height="385"><defs id="SvgjsDefs1001"><marker id="SvgjsMarker1037" markerWidth="14" markerHeight="10" refX="10" refY="5" viewBox="0 0 14 10" orient="auto" markerUnits="userSpaceOnUse" stroke-dasharray="0,0"><path id="SvgjsPath1038" d="M0 0L14 5L0 10L0 0 " fill="#323232" stroke="#323232" stroke-width="1"></path></marker><marker id="SvgjsMarker1041" markerWidth="14" markerHeight="10" refX="10" refY="5" viewBox="0 0 14 10" orient="auto" markerUnits="userSpaceOnUse" stroke-dasharray="0,0"><path id="SvgjsPath1042" d="M0 0L14 5L0 10L0 0 " fill="#323232" stroke="#323232" stroke-width="1"></path></marker><marker id="SvgjsMarker1069" markerWidth="14" markerHeight="10" refX="10" refY="5" viewBox="0 0 14 10" orient="auto" markerUnits="userSpaceOnUse" stroke-dasharray="0,0"><path id="SvgjsPath1070" d="M0 0L14 5L0 10L0 0 " fill="#323232" stroke="#323232" stroke-width="1"></path></marker><marker id="SvgjsMarker1079" markerWidth="14" markerHeight="10" refX="10" refY="5" viewBox="0 0 14 10" orient="auto" markerUnits="userSpaceOnUse" stroke-dasharray="0,0"><path id="SvgjsPath1080" d="M0 0L14 5L0 10L0 0 " fill="#323232" stroke="#323232" stroke-width="1"></path></marker></defs><g id="SvgjsG1007" transform="translate(505,25)"><path id="SvgjsPath1008" d="M0 0L333 0L333 301L0 301Z " stroke="rgba(50,50,50,1)" stroke-width="2" fill-opacity="1" fill="#ffffff"></path><g id="SvgjsG1009"><text id="SvgjsText1010" font-family="微软雅黑" text-anchor="middle" font-size="13px" width="313px" fill="#323232" font-weight="400" align="middle" lineHeight="125%" font-style="" opacity="1" y="139.875" transform="rotate(0)"></text></g></g><g id="SvgjsG1011" transform="translate(513,50)"><path id="SvgjsPath1012" d="M0 0L100 0L100 70L0 70Z " stroke="rgba(50,50,50,1)" stroke-width="2" fill-opacity="1" fill="#ffffff"></path><g id="SvgjsG1013"><text id="SvgjsText1014" font-family="微软雅黑" text-anchor="middle" font-size="13px" width="80px" fill="#323232" font-weight="400" align="middle" lineHeight="125%" font-style="" opacity="1" y="16.375" transform="rotate(0)"><tspan id="SvgjsTspan1015" dy="16" x="50"><tspan id="SvgjsTspan1016" style="text-decoration:;">A公钥</tspan></tspan><tspan id="SvgjsTspan1017" dy="16" x="50"><tspan id="SvgjsTspan1018" style="text-decoration:;">转账金额5</tspan></tspan></text></g></g><g id="SvgjsG1019" transform="translate(721,50)"><path id="SvgjsPath1020" d="M0 0L100 0L100 70L0 70Z " stroke="rgba(50,50,50,1)" stroke-width="2" fill-opacity="1" fill="#ffffff"></path><g id="SvgjsG1021"><text id="SvgjsText1022" font-family="微软雅黑" text-anchor="middle" font-size="13px" width="80px" fill="#323232" font-weight="400" align="middle" lineHeight="125%" font-style="" opacity="1" y="16.375" transform="rotate(0)"><tspan id="SvgjsTspan1023" dy="16" x="50"><tspan id="SvgjsTspan1024" style="text-decoration:;">B公钥</tspan></tspan><tspan id="SvgjsTspan1025" dy="16" x="50"><tspan id="SvgjsTspan1026" style="text-decoration:;">收入金额3</tspan></tspan></text></g></g><g id="SvgjsG1027" transform="translate(721,177)"><path id="SvgjsPath1028" d="M0 0L100 0L100 70L0 70Z " stroke="rgba(50,50,50,1)" stroke-width="2" fill-opacity="1" fill="#ffffff"></path><g id="SvgjsG1029"><text id="SvgjsText1030" font-family="微软雅黑" text-anchor="middle" font-size="13px" width="80px" fill="#323232" font-weight="400" align="middle" lineHeight="125%" font-style="" opacity="1" y="16.375" transform="rotate(0)"><tspan id="SvgjsTspan1031" dy="16" x="50"><tspan id="SvgjsTspan1032" style="text-decoration:;">C公钥</tspan></tspan><tspan id="SvgjsTspan1033" dy="16" x="50"><tspan id="SvgjsTspan1034" style="text-decoration:;">收入金额2</tspan></tspan></text></g></g><g id="SvgjsG1035"><path id="SvgjsPath1036" d="M614 85L667 85L667 85L717.4 85 " stroke="#323232" stroke-width="2" fill="none" marker-end="url(#SvgjsMarker1037)"></path></g><g id="SvgjsG1039"><path id="SvgjsPath1040" d="M614 85L667 85L667 212L717.4 212 " stroke="#323232" stroke-width="2" fill="none" marker-end="url(#SvgjsMarker1041)"></path></g><g id="SvgjsG1043" transform="translate(572,271)"><path id="SvgjsPath1044" d="M0 0L149 0L149 42L0 42Z " stroke="rgba(50,50,50,1)" stroke-width="2" fill-opacity="1" fill="#ffffff"></path><g id="SvgjsG1045"><text id="SvgjsText1046" font-family="微软雅黑" text-anchor="middle" font-size="13px" width="129px" fill="#323232" font-weight="400" align="middle" lineHeight="125%" font-style="" opacity="1" y="10.375" transform="rotate(0)"><tspan id="SvgjsTspan1047" dy="16" x="74.5"><tspan id="SvgjsTspan1048" style="text-decoration:;">签名（A私钥生成）</tspan></tspan></text></g></g><g id="SvgjsG1049" transform="translate(25,25)"><path id="SvgjsPath1050" d="M0 0L333 0L333 301L0 301Z " stroke="rgba(50,50,50,1)" stroke-width="2" fill-opacity="1" fill="#ffffff"></path><g id="SvgjsG1051"><text id="SvgjsText1052" font-family="微软雅黑" text-anchor="middle" font-size="13px" width="313px" fill="#323232" font-weight="400" align="middle" lineHeight="125%" font-style="" opacity="1" y="139.875" transform="rotate(0)"></text></g></g><g id="SvgjsG1053" transform="translate(33,50)"><path id="SvgjsPath1054" d="M0 0L100 0L100 70L0 70Z " stroke="rgba(50,50,50,1)" stroke-width="2" fill-opacity="1" fill="#ffffff"></path><g id="SvgjsG1055"><text id="SvgjsText1056" font-family="微软雅黑" text-anchor="middle" font-size="13px" width="80px" fill="#323232" font-weight="400" align="middle" lineHeight="125%" font-style="" opacity="1" y="24.375" transform="rotate(0)"><tspan id="SvgjsTspan1057" dy="16" x="50"><tspan id="SvgjsTspan1058" style="text-decoration:;"> </tspan></tspan></text></g></g><g id="SvgjsG1059" transform="translate(225,50)"><path id="SvgjsPath1060" d="M0 0L100 0L100 70L0 70Z " stroke="rgba(50,50,50,1)" stroke-width="2" fill-opacity="1" fill="#ffffff"></path><g id="SvgjsG1061"><text id="SvgjsText1062" font-family="微软雅黑" text-anchor="middle" font-size="13px" width="80px" fill="#323232" font-weight="400" align="middle" lineHeight="125%" font-style="" opacity="1" y="16.375" transform="rotate(0)"><tspan id="SvgjsTspan1063" dy="16" x="50"><tspan id="SvgjsTspan1064" style="text-decoration:;">A公钥</tspan></tspan><tspan id="SvgjsTspan1065" dy="16" x="50"><tspan id="SvgjsTspan1066" style="text-decoration:;">收入金额5</tspan></tspan></text></g></g><g id="SvgjsG1067"><path id="SvgjsPath1068" d="M134 85L179 85L179 85L221.39999999999998 85 " stroke="#323232" stroke-width="2" fill="none" marker-end="url(#SvgjsMarker1069)"></path></g><g id="SvgjsG1071" transform="translate(92,271)"><path id="SvgjsPath1072" d="M0 0L149 0L149 42L0 42Z " stroke="rgba(50,50,50,1)" stroke-width="2" fill-opacity="1" fill="#ffffff"></path><g id="SvgjsG1073"><text id="SvgjsText1074" font-family="微软雅黑" text-anchor="middle" font-size="13px" width="129px" fill="#323232" font-weight="400" align="middle" lineHeight="125%" font-style="" opacity="1" y="10.375" transform="rotate(0)"><tspan id="SvgjsTspan1075" dy="16" x="74.5"><tspan id="SvgjsTspan1076" style="text-decoration:;">签名</tspan></tspan></text></g></g><g id="SvgjsG1077"><path id="SvgjsPath1078" d="M512 85L419 85L419 85L328.6 85 " stroke="#323232" stroke-width="2" fill="none" marker-end="url(#SvgjsMarker1079)"></path><rect id="SvgjsRect1081" width="91" height="16" x="374.8" y="77" fill="#ffffff"></rect><text id="SvgjsText1082" font-family="微软雅黑" text-anchor="middle" font-size="13px" width="91px" fill="#323232" font-weight="400" align="top" lineHeight="16px" font-style="" opacity="1" y="74.375" transform="rotate(0)"><tspan id="SvgjsTspan1083" dy="16" x="420.3"><tspan id="SvgjsTspan1084" style="text-decoration:;">验证公钥和余额</tspan></tspan></text></g><g id="SvgjsG1085" transform="translate(579,326)"><path id="SvgjsPath1086" d="M0 0L193 0L193 34L0 34Z " stroke="none" fill="none"></path><g id="SvgjsG1087"><text id="SvgjsText1088" font-family="微软雅黑" text-anchor="middle" font-size="13px" width="193px" fill="#323232" font-weight="400" align="middle" lineHeight="125%" font-style="" opacity="1" y="6.375" transform="rotate(0)"><tspan id="SvgjsTspan1089" dy="16" x="96.5"><tspan id="SvgjsTspan1090" style="text-decoration:;">本次交易（还未写入区块链）</tspan></tspan></text></g></g><g id="SvgjsG1091" transform="translate(92,326)"><path id="SvgjsPath1092" d="M0 0L193 0L193 34L0 34Z " stroke="none" fill="none"></path><g id="SvgjsG1093"><text id="SvgjsText1094" font-family="微软雅黑" text-anchor="middle" font-size="13px" width="193px" fill="#323232" font-weight="400" align="middle" lineHeight="125%" font-style="" opacity="1" y="6.375" transform="rotate(0)"><tspan id="SvgjsTspan1095" dy="16" x="96.5"><tspan id="SvgjsTspan1096" style="text-decoration:;">上一次交易（已经写入区块链）</tspan></tspan></text></g></g></svg>