<svg id="SvgjsSvg1000" xmlns="http://www.w3.org/2000/svg" version="1.1" xmlns:xlink="http://www.w3.org/1999/xlink" xmlns:svgjs="http://svgjs.com/svgjs" width="563" height="511"><defs id="SvgjsDefs1001"></defs><g id="SvgjsG1007" transform="translate(25,25)"><path id="SvgjsPath1008" d="M0 0L513 0L513 461L0 461Z " stroke="rgba(50,50,50,1)" stroke-width="2" fill-opacity="1" fill="#ffffff"></path><g id="SvgjsG1009"><text id="SvgjsText1010" font-family="微软雅黑" text-anchor="middle" font-size="13px" width="493px" fill="#323232" font-weight="400" align="middle" lineHeight="125%" font-style="" opacity="1" y="219.875" transform="rotate(0)"></text></g></g><g id="SvgjsG1011" transform="translate(63,257)"><path id="SvgjsPath1012" d="M0 105C0 -35 210 -35 210 105C210 245 0 245 0 105Z " stroke="rgba(50,50,50,1)" stroke-width="2" fill-opacity="1" fill="#f76060"></path><g id="SvgjsG1013"><text id="SvgjsText1014" font-family="微软雅黑" text-anchor="middle" font-size="24px" width="190px" fill="#323232" font-weight="400" align="middle" lineHeight="125%" font-style="" opacity="1" y="54" transform="rotate(0)"><tspan id="SvgjsTspan1015" dy="30" x="105"><tspan id="SvgjsTspan1016" style="text-decoration:;">全节点</tspan></tspan><tspan id="SvgjsTspan1017" dy="30" x="105"><tspan id="SvgjsTspan1018" style="text-decoration:;">保存了所有区块</tspan></tspan><tspan id="SvgjsTspan1019" dy="30" x="105"><tspan id="SvgjsTspan1020" style="text-decoration:;">链信息</tspan></tspan></text></g></g><g id="SvgjsG1021" transform="translate(63,40)"><path id="SvgjsPath1022" d="M0 105C0 -35 210 -35 210 105C210 245 0 245 0 105Z " stroke="rgba(50,50,50,1)" stroke-width="2" fill-opacity="1" fill="#7373fa"></path><g id="SvgjsG1023"><text id="SvgjsText1024" font-family="微软雅黑" text-anchor="middle" font-size="24px" width="190px" fill="#323232" font-weight="400" align="middle" lineHeight="125%" font-style="" opacity="1" y="69" transform="rotate(0)"><tspan id="SvgjsTspan1025" dy="30" x="105"><tspan id="SvgjsTspan1026" style="text-decoration:;">钱包节点</tspan></tspan><tspan id="SvgjsTspan1027" dy="30" x="105"><tspan id="SvgjsTspan1028" style="text-decoration:;">可以发起交易</tspan></tspan></text></g></g><g id="SvgjsG1029" transform="translate(291,47)"><path id="SvgjsPath1030" d="M0 105C0 -35 210 -35 210 105C210 245 0 245 0 105Z " stroke="rgba(50,50,50,1)" stroke-width="2" fill-opacity="1" fill="#00ffff"></path><g id="SvgjsG1031"><text id="SvgjsText1032" font-family="微软雅黑" text-anchor="middle" font-size="24px" width="190px" fill="#323232" font-weight="400" align="middle" lineHeight="125%" font-style="" opacity="1" y="69" transform="rotate(0)"><tspan id="SvgjsTspan1033" dy="30" x="105"><tspan id="SvgjsTspan1034" style="text-decoration:;">矿工节点</tspan></tspan><tspan id="SvgjsTspan1035" dy="30" x="105"><tspan id="SvgjsTspan1036" style="text-decoration:;">可以挖矿</tspan></tspan></text></g></g><g id="SvgjsG1037" transform="translate(291,264)"><path id="SvgjsPath1038" d="M0 105C0 -35 210 -35 210 105C210 245 0 245 0 105Z " stroke="rgba(50,50,50,1)" stroke-width="2" fill-opacity="1" fill="#ff00ff"></path><g id="SvgjsG1039"><text id="SvgjsText1040" font-family="微软雅黑" text-anchor="middle" font-size="24px" width="190px" fill="#323232" font-weight="400" align="middle" lineHeight="125%" font-style="" opacity="1" y="69" transform="rotate(0)"><tspan id="SvgjsTspan1041" dy="30" x="105"><tspan id="SvgjsTspan1042" style="text-decoration:;">路由节点</tspan></tspan><tspan id="SvgjsTspan1043" dy="30" x="105"><tspan id="SvgjsTspan1044" style="text-decoration:;">参与网络传输</tspan></tspan></text></g></g></svg>