<svg id="SvgjsSvg1045" xmlns="http://www.w3.org/2000/svg" version="1.1" xmlns:xlink="http://www.w3.org/1999/xlink" xmlns:svgjs="http://svgjs.com/svgjs" width="573" height="598"><defs id="SvgjsDefs1046"></defs><g id="SvgjsG1047" transform="translate(25,25)"><path id="SvgjsPath1048" d="M0 0L523 0L523 548L0 548Z " stroke="rgba(50,50,50,1)" stroke-width="2" fill-opacity="1" fill="#ffffff"></path><g id="SvgjsG1049"><text id="SvgjsText1050" font-family="微软雅黑" text-anchor="middle" font-size="13px" width="503px" fill="#323232" font-weight="400" align="middle" lineHeight="125%" font-style="" opacity="1" y="263.375" transform="rotate(0)"></text></g></g><g id="SvgjsG1051" transform="translate(63,344)"><path id="SvgjsPath1052" d="M0 105C0 -35 210 -35 210 105C210 245 0 245 0 105Z " stroke="rgba(50,50,50,1)" stroke-width="2" fill-opacity="1" fill="#f76060"></path><g id="SvgjsG1053"><text id="SvgjsText1054" font-family="微软雅黑" text-anchor="middle" font-size="24px" width="190px" fill="#323232" font-weight="400" align="middle" lineHeight="125%" font-style="" opacity="1" y="54" transform="rotate(0)"><tspan id="SvgjsTspan1055" dy="30" x="105"><tspan id="SvgjsTspan1056" style="text-decoration:;">全节点</tspan></tspan><tspan id="SvgjsTspan1057" dy="30" x="105"><tspan id="SvgjsTspan1058" style="text-decoration:;">保存了所有区块</tspan></tspan><tspan id="SvgjsTspan1059" dy="30" x="105"><tspan id="SvgjsTspan1060" style="text-decoration:;">链信息</tspan></tspan></text></g></g><g id="SvgjsG1061" transform="translate(63,127)"><path id="SvgjsPath1062" d="M0 105C0 -35 210 -35 210 105C210 245 0 245 0 105Z " stroke="rgba(50,50,50,1)" stroke-width="2" fill-opacity="1" fill="#7373fa"></path><g id="SvgjsG1063"><text id="SvgjsText1064" font-family="微软雅黑" text-anchor="middle" font-size="24px" width="190px" fill="#323232" font-weight="400" align="middle" lineHeight="125%" font-style="" opacity="1" y="69" transform="rotate(0)"><tspan id="SvgjsTspan1065" dy="30" x="105"><tspan id="SvgjsTspan1066" style="text-decoration:;">钱包节点</tspan></tspan><tspan id="SvgjsTspan1067" dy="30" x="105"><tspan id="SvgjsTspan1068" style="text-decoration:;">可以发起交易</tspan></tspan></text></g></g><g id="SvgjsG1069" transform="translate(291,134)"><path id="SvgjsPath1070" d="M0 105C0 -35 210 -35 210 105C210 245 0 245 0 105Z " stroke="rgba(50,50,50,1)" stroke-width="2" fill-opacity="1" fill="#00ffff"></path><g id="SvgjsG1071"><text id="SvgjsText1072" font-family="微软雅黑" text-anchor="middle" font-size="24px" width="190px" fill="#323232" font-weight="400" align="middle" lineHeight="125%" font-style="" opacity="1" y="69" transform="rotate(0)"><tspan id="SvgjsTspan1073" dy="30" x="105"><tspan id="SvgjsTspan1074" style="text-decoration:;">矿工节点</tspan></tspan><tspan id="SvgjsTspan1075" dy="30" x="105"><tspan id="SvgjsTspan1076" style="text-decoration:;">可以挖矿</tspan></tspan></text></g></g><g id="SvgjsG1077" transform="translate(291,351)"><path id="SvgjsPath1078" d="M0 105C0 -35 210 -35 210 105C210 245 0 245 0 105Z " stroke="rgba(50,50,50,1)" stroke-width="2" fill-opacity="1" fill="#ff00ff"></path><g id="SvgjsG1079"><text id="SvgjsText1080" font-family="微软雅黑" text-anchor="middle" font-size="24px" width="190px" fill="#323232" font-weight="400" align="middle" lineHeight="125%" font-style="" opacity="1" y="69" transform="rotate(0)"><tspan id="SvgjsTspan1081" dy="30" x="105"><tspan id="SvgjsTspan1082" style="text-decoration:;">路由节点</tspan></tspan><tspan id="SvgjsTspan1083" dy="30" x="105"><tspan id="SvgjsTspan1084" style="text-decoration:;">参与网络传输</tspan></tspan></text></g></g><g id="SvgjsG1085" transform="translate(147,38)"><path id="SvgjsPath1086" d="M0 0L279 0L279 60L0 60Z " stroke="rgba(50,50,50,1)" stroke-width="2" fill-opacity="1" fill="#ffffff"></path><g id="SvgjsG1087"><text id="SvgjsText1088" font-family="微软雅黑" text-anchor="middle" font-size="24px" width="259px" fill="#323232" font-weight="400" align="middle" lineHeight="125%" font-style="" opacity="1" y="9" transform="rotate(0)"><tspan id="SvgjsTspan1089" dy="30" x="139.5"><tspan id="SvgjsTspan1090" style="text-decoration:;">区块链节点</tspan></tspan></text></g></g></svg>