<svg id="SvgjsSvg1000" xmlns="http://www.w3.org/2000/svg" version="1.1" xmlns:xlink="http://www.w3.org/1999/xlink" xmlns:svgjs="http://svgjs.com/svgjs" width="1035" height="769.921875"><defs id="SvgjsDefs1001"><marker id="SvgjsMarker1069" markerWidth="14" markerHeight="10" refX="10" refY="5" viewBox="0 0 14 10" orient="auto" markerUnits="userSpaceOnUse" stroke-dasharray="0,0"><path id="SvgjsPath1070" d="M0 0L14 5L0 10L0 0 " fill="#323232" stroke="#323232" stroke-width="1"></path></marker><marker id="SvgjsMarker1107" markerWidth="14" markerHeight="10" refX="10" refY="5" viewBox="0 0 14 10" orient="auto" markerUnits="userSpaceOnUse" stroke-dasharray="0,0"><path id="SvgjsPath1108" d="M0 0L14 5L0 10L0 0 " fill="#323232" stroke="#323232" stroke-width="1"></path></marker><marker id="SvgjsMarker1111" markerWidth="14" markerHeight="10" refX="10" refY="5" viewBox="0 0 14 10" orient="auto" markerUnits="userSpaceOnUse" stroke-dasharray="0,0"><path id="SvgjsPath1112" d="M0 0L14 5L0 10L0 0 " fill="#323232" stroke="#323232" stroke-width="1"></path></marker></defs><g id="SvgjsG1007" transform="translate(516.5495129870128,25.00622650375942)"><path id="SvgjsPath1008" d="M0 105C0 -35 210 -35 210 105C210 245 0 245 0 105Z " stroke="rgba(50,50,50,1)" stroke-width="2" fill-opacity="1" fill="#f76060"></path><g id="SvgjsG1009"><text id="SvgjsText1010" font-family="微软雅黑" text-anchor="middle" font-size="13px" width="190px" fill="#323232" font-weight="400" align="middle" lineHeight="125%" font-style="" opacity="1" y="94.375" transform="rotate(0)"><tspan id="SvgjsTspan1011" dy="16" x="105"><tspan id="SvgjsTspan1012" style="text-decoration:;"> </tspan></tspan></text></g></g><g id="SvgjsG1013" transform="translate(226.27678571428544,29.479910714285666)"><path id="SvgjsPath1014" d="M0 105C0 -35 210 -35 210 105C210 245 0 245 0 105Z " stroke="rgba(50,50,50,1)" stroke-width="2" fill-opacity="1" fill="#7373fa"></path><g id="SvgjsG1015"><text id="SvgjsText1016" font-family="微软雅黑" text-anchor="middle" font-size="15px" width="190px" fill="#323232" font-weight="700" align="middle" lineHeight="125%" font-style="" opacity="1" y="93.125" transform="rotate(0)"><tspan id="SvgjsTspan1017" dy="18" x="105"><tspan id="SvgjsTspan1018" style="text-decoration:;"> </tspan></tspan></text></g></g><g id="SvgjsG1019" transform="translate(800.0040584415589,25.00622650375925)"><path id="SvgjsPath1020" d="M0 105C0 -35 210 -35 210 105C210 245 0 245 0 105Z " stroke="rgba(50,50,50,1)" stroke-width="2" fill-opacity="1" fill="#00ffff"></path><g id="SvgjsG1021"><text id="SvgjsText1022" font-family="微软雅黑" text-anchor="middle" font-size="13px" width="190px" fill="#323232" font-weight="400" align="middle" lineHeight="125%" font-style="" opacity="1" y="94.375" transform="rotate(0)"><tspan id="SvgjsTspan1023" dy="16" x="105"><tspan id="SvgjsTspan1024" style="text-decoration:;"> </tspan></tspan></text></g></g><g id="SvgjsG1025" transform="translate(320.2767857142857,76.4799107142857)"><path id="SvgjsPath1026" d="M0 0L52 0L52 36L0 36Z " stroke="rgba(50,50,50,1)" stroke-width="2" fill-opacity="1" fill="#00ff00"></path><g id="SvgjsG1027"><text id="SvgjsText1028" font-family="微软雅黑" text-anchor="middle" font-size="13px" width="32px" fill="#323232" font-weight="400" align="middle" lineHeight="125%" font-style="" opacity="1" y="-0.625" transform="rotate(0)"><tspan id="SvgjsTspan1029" dy="16" x="26"><tspan id="SvgjsTspan1030" style="text-decoration:;">孤儿</tspan></tspan><tspan id="SvgjsTspan1031" dy="16" x="26"><tspan id="SvgjsTspan1032" style="text-decoration:;">交易</tspan></tspan></text></g></g><g id="SvgjsG1033" transform="translate(516.5495129870126,277.733499231032)"><path id="SvgjsPath1034" d="M0 105C0 -35 210 -35 210 105C210 245 0 245 0 105Z " stroke="rgba(50,50,50,1)" stroke-width="2" fill-opacity="1" fill="#f76060"></path><g id="SvgjsG1035"><text id="SvgjsText1036" font-family="微软雅黑" text-anchor="middle" font-size="13px" width="190px" fill="#323232" font-weight="400" align="middle" lineHeight="125%" font-style="" opacity="1" y="94.375" transform="rotate(0)"><tspan id="SvgjsTspan1037" dy="16" x="105"><tspan id="SvgjsTspan1038" style="text-decoration:;"> </tspan></tspan></text></g></g><g id="SvgjsG1039" transform="translate(226.27678571428544,282.20718344155836)"><path id="SvgjsPath1040" d="M0 105C0 -35 210 -35 210 105C210 245 0 245 0 105Z " stroke="rgba(50,50,50,1)" stroke-width="2" fill-opacity="1" fill="#7373fa"></path><g id="SvgjsG1041"><text id="SvgjsText1042" font-family="微软雅黑" text-anchor="middle" font-size="13px" width="190px" fill="#323232" font-weight="400" align="middle" lineHeight="125%" font-style="" opacity="1" y="94.375" transform="rotate(0)"><tspan id="SvgjsTspan1043" dy="16" x="105"><tspan id="SvgjsTspan1044" style="text-decoration:;"> </tspan></tspan></text></g></g><g id="SvgjsG1045" transform="translate(800.0040584415589,277.7334992310319)"><path id="SvgjsPath1046" d="M0 105C0 -35 210 -35 210 105C210 245 0 245 0 105Z " stroke="rgba(50,50,50,1)" stroke-width="2" fill-opacity="1" fill="#00ffff"></path><g id="SvgjsG1047"><text id="SvgjsText1048" font-family="微软雅黑" text-anchor="middle" font-size="13px" width="190px" fill="#323232" font-weight="400" align="middle" lineHeight="125%" font-style="" opacity="1" y="94.375" transform="rotate(0)"><tspan id="SvgjsTspan1049" dy="16" x="105"><tspan id="SvgjsTspan1050" style="text-decoration:;"> </tspan></tspan></text></g></g><g id="SvgjsG1051" transform="translate(637.5495129870126,346.73349923103234)"><path id="SvgjsPath1052" d="M0 0L52 0L52 36L0 36Z " stroke="rgba(50,50,50,1)" stroke-width="2" fill-opacity="1" fill="#00ff00"></path><g id="SvgjsG1053"><text id="SvgjsText1054" font-family="微软雅黑" text-anchor="middle" font-size="13px" width="32px" fill="#323232" font-weight="400" align="middle" lineHeight="125%" font-style="" opacity="1" y="-0.625" transform="rotate(0)"><tspan id="SvgjsTspan1055" dy="16" x="26"><tspan id="SvgjsTspan1056" style="text-decoration:;">孤儿</tspan></tspan><tspan id="SvgjsTspan1057" dy="16" x="26"><tspan id="SvgjsTspan1058" style="text-decoration:;">交易</tspan></tspan></text></g></g><g id="SvgjsG1059" transform="translate(532.5495129870126,340.2071834415587)"><path id="SvgjsPath1060" d="M0 0L59 0L59 49.0526315789474L0 49.0526315789474Z " stroke="rgba(50,50,50,1)" stroke-width="2" fill-opacity="1" fill="#00ff00"></path><g id="SvgjsG1061"><text id="SvgjsText1062" font-family="微软雅黑" text-anchor="middle" font-size="13px" width="39px" fill="#323232" font-weight="400" align="middle" lineHeight="125%" font-style="" opacity="1" y="5.901315789473699" transform="rotate(0)"><tspan id="SvgjsTspan1063" dy="16" x="29.5"><tspan id="SvgjsTspan1064" style="text-decoration:;">验证父</tspan></tspan><tspan id="SvgjsTspan1065" dy="16" x="29.5"><tspan id="SvgjsTspan1066" style="text-decoration:;">交易</tspan></tspan></text></g></g><g id="SvgjsG1067"><path id="SvgjsPath1068" d="M636.5495129870126 364.7334992310322L614.5495129870126 364.7334992310322L614.5495129870126 364.73349923103234L595.1495129870126 364.73349923103234 " stroke="#323232" stroke-width="2" fill="none" marker-end="url(#SvgjsMarker1069)"></path></g><g id="SvgjsG1071" transform="translate(516.5495129870126,530.4607719583043)"><path id="SvgjsPath1072" d="M0 105C0 -35 210 -35 210 105C210 245 0 245 0 105Z " stroke="rgba(50,50,50,1)" stroke-width="2" fill-opacity="1" fill="#f76060"></path><g id="SvgjsG1073"><text id="SvgjsText1074" font-family="微软雅黑" text-anchor="middle" font-size="13px" width="190px" fill="#323232" font-weight="400" align="middle" lineHeight="125%" font-style="" opacity="1" y="94.375" transform="rotate(0)"><tspan id="SvgjsTspan1075" dy="16" x="105"><tspan id="SvgjsTspan1076" style="text-decoration:;"> </tspan></tspan></text></g></g><g id="SvgjsG1077" transform="translate(226.27678571428544,534.9344561688308)"><path id="SvgjsPath1078" d="M0 105C0 -35 210 -35 210 105C210 245 0 245 0 105Z " stroke="rgba(50,50,50,1)" stroke-width="2" fill-opacity="1" fill="#7373fa"></path><g id="SvgjsG1079"><text id="SvgjsText1080" font-family="微软雅黑" text-anchor="middle" font-size="13px" width="190px" fill="#323232" font-weight="400" align="middle" lineHeight="125%" font-style="" opacity="1" y="94.375" transform="rotate(0)"><tspan id="SvgjsTspan1081" dy="16" x="105"><tspan id="SvgjsTspan1082" style="text-decoration:;"> </tspan></tspan></text></g></g><g id="SvgjsG1083" transform="translate(800.0040584415591,530.4607719583043)"><path id="SvgjsPath1084" d="M0 105C0 -35 210 -35 210 105C210 245 0 245 0 105Z " stroke="rgba(50,50,50,1)" stroke-width="2" fill-opacity="1" fill="#00ffff"></path><g id="SvgjsG1085"><text id="SvgjsText1086" font-family="微软雅黑" text-anchor="middle" font-size="13px" width="190px" fill="#323232" font-weight="400" align="middle" lineHeight="125%" font-style="" opacity="1" y="94.375" transform="rotate(0)"><tspan id="SvgjsTspan1087" dy="16" x="105"><tspan id="SvgjsTspan1088" style="text-decoration:;"> </tspan></tspan></text></g></g><g id="SvgjsG1089" transform="translate(933.0040584415578,598.9870877477783)"><path id="SvgjsPath1090" d="M0 0L52 0L52 36L0 36Z " stroke="rgba(50,50,50,1)" stroke-width="2" fill-opacity="1" fill="#00ff00"></path><g id="SvgjsG1091"><text id="SvgjsText1092" font-family="微软雅黑" text-anchor="middle" font-size="13px" width="32px" fill="#323232" font-weight="400" align="middle" lineHeight="125%" font-style="" opacity="1" y="-0.625" transform="rotate(0)"><tspan id="SvgjsTspan1093" dy="16" x="26"><tspan id="SvgjsTspan1094" style="text-decoration:;">孤儿</tspan></tspan><tspan id="SvgjsTspan1095" dy="16" x="26"><tspan id="SvgjsTspan1096" style="text-decoration:;">交易</tspan></tspan></text></g></g><g id="SvgjsG1097" transform="translate(828.0040584415593,592.4607719583046)"><path id="SvgjsPath1098" d="M0 0L59 0L59 49.0526315789474L0 49.0526315789474Z " stroke="rgba(50,50,50,1)" stroke-width="2" fill-opacity="1" fill="#00ff00"></path><g id="SvgjsG1099"><text id="SvgjsText1100" font-family="微软雅黑" text-anchor="middle" font-size="13px" width="39px" fill="#323232" font-weight="400" align="middle" lineHeight="125%" font-style="" opacity="1" y="5.901315789473699" transform="rotate(0)"><tspan id="SvgjsTspan1101" dy="16" x="29.5"><tspan id="SvgjsTspan1102" style="text-decoration:;">验证父</tspan></tspan><tspan id="SvgjsTspan1103" dy="16" x="29.5"><tspan id="SvgjsTspan1104" style="text-decoration:;">交易</tspan></tspan></text></g></g><g id="SvgjsG1105"><path id="SvgjsPath1106" d="M932.0040584415578 616.9870877477783L910.0040584415585 616.9870877477783L910.0040584415585 616.9870877477783L890.6040584415591 616.9870877477783 " stroke="#323232" stroke-width="2" fill="none" marker-end="url(#SvgjsMarker1107)"></path></g><g id="SvgjsG1109"><path id="SvgjsPath1110" d="M827.0040584415593 616.9870877477783L808.0040584415593 616.9870877477783L808.0040584415593 616.9870877477783L788.0040584415593 616.9870877477783 " stroke="#323232" stroke-width="2" fill="none" marker-end="url(#SvgjsMarker1111)"></path></g><g id="SvgjsG1113" transform="translate(25.004058441558755,29.47991071428578)"><path id="SvgjsPath1114" d="M0 53C0 -17.666666666666668 105 -17.666666666666668 105 53C105 123.66666666666667 0 123.66666666666667 0 53Z " stroke="rgba(50,50,50,1)" stroke-width="2" fill-opacity="1" fill="#7373fa"></path><g id="SvgjsG1115"><text id="SvgjsText1116" font-family="微软雅黑" text-anchor="middle" font-size="15px" width="85px" fill="#323232" font-weight="700" align="middle" lineHeight="125%" font-style="" opacity="1" y="41.125" transform="rotate(0)"><tspan id="SvgjsTspan1117" dy="18" x="52.5"><tspan id="SvgjsTspan1118" style="text-decoration:;">孤儿池</tspan></tspan></text></g></g><g id="SvgjsG1119" transform="translate(25.004058441558698,165.1941964285711)"><path id="SvgjsPath1120" d="M0 53C0 -17.666666666666668 105 -17.666666666666668 105 53C105 123.66666666666667 0 123.66666666666667 0 53Z " stroke="rgba(50,50,50,1)" stroke-width="2" fill-opacity="1" fill="#f76060"></path><g id="SvgjsG1121"><text id="SvgjsText1122" font-family="微软雅黑" text-anchor="middle" font-size="15px" width="85px" fill="#323232" font-weight="700" align="middle" lineHeight="125%" font-style="" opacity="1" y="41.125" transform="rotate(0)"><tspan id="SvgjsTspan1123" dy="18" x="52.5"><tspan id="SvgjsTspan1124" style="text-decoration:;">交易池</tspan></tspan></text></g></g><g id="SvgjsG1125" transform="translate(25.004058441558584,306.43479793233183)"><path id="SvgjsPath1126" d="M0 53C0 -17.666666666666668 105 -17.666666666666668 105 53C105 123.66666666666667 0 123.66666666666667 0 53Z " stroke="rgba(50,50,50,1)" stroke-width="2" fill-opacity="1" fill="#00ffff"></path><g id="SvgjsG1127"><text id="SvgjsText1128" font-family="微软雅黑" text-anchor="middle" font-size="15px" width="85px" fill="#323232" font-weight="700" align="middle" lineHeight="125%" font-style="" opacity="1" y="41.125" transform="rotate(0)"><tspan id="SvgjsTspan1129" dy="18" x="52.5"><tspan id="SvgjsTspan1130" style="text-decoration:;">UTXO</tspan></tspan></text></g></g></svg>