<svg id="SvgjsSvg1241" xmlns="http://www.w3.org/2000/svg" version="1.1" xmlns:xlink="http://www.w3.org/1999/xlink" xmlns:svgjs="http://svgjs.com/svgjs" width="1351" height="385"><defs id="SvgjsDefs1242"><marker id="SvgjsMarker1273" markerWidth="14" markerHeight="10" refX="10" refY="5" viewBox="0 0 14 10" orient="auto" markerUnits="userSpaceOnUse" stroke-dasharray="0,0"><path id="SvgjsPath1274" d="M0 0L14 5L0 10L0 0 " fill="#323232" stroke="#323232" stroke-width="1"></path></marker><marker id="SvgjsMarker1277" markerWidth="14" markerHeight="10" refX="10" refY="5" viewBox="0 0 14 10" orient="auto" markerUnits="userSpaceOnUse" stroke-dasharray="0,0"><path id="SvgjsPath1278" d="M0 0L14 5L0 10L0 0 " fill="#323232" stroke="#323232" stroke-width="1"></path></marker><marker id="SvgjsMarker1305" markerWidth="14" markerHeight="10" refX="10" refY="5" viewBox="0 0 14 10" orient="auto" markerUnits="userSpaceOnUse" stroke-dasharray="0,0"><path id="SvgjsPath1306" d="M0 0L14 5L0 10L0 0 " fill="#323232" stroke="#323232" stroke-width="1"></path></marker><marker id="SvgjsMarker1315" markerWidth="14" markerHeight="10" refX="10" refY="5" viewBox="0 0 14 10" orient="auto" markerUnits="userSpaceOnUse" stroke-dasharray="0,0"><path id="SvgjsPath1316" d="M0 0L14 5L0 10L0 0 " fill="#323232" stroke="#323232" stroke-width="1"></path></marker><marker id="SvgjsMarker1359" markerWidth="14" markerHeight="10" refX="10" refY="5" viewBox="0 0 14 10" orient="auto" markerUnits="userSpaceOnUse" stroke-dasharray="0,0"><path id="SvgjsPath1360" d="M0 0L14 5L0 10L0 0 " fill="#323232" stroke="#323232" stroke-width="1"></path></marker><marker id="SvgjsMarker1363" markerWidth="14" markerHeight="10" refX="10" refY="5" viewBox="0 0 14 10" orient="auto" markerUnits="userSpaceOnUse" stroke-dasharray="0,0"><path id="SvgjsPath1364" d="M0 0L14 5L0 10L0 0 " fill="#323232" stroke="#323232" stroke-width="1"></path></marker><marker id="SvgjsMarker1379" markerWidth="14" markerHeight="10" refX="10" refY="5" viewBox="0 0 14 10" orient="auto" markerUnits="userSpaceOnUse" stroke-dasharray="0,0"><path id="SvgjsPath1380" d="M0 0L14 5L0 10L0 0 " fill="#323232" stroke="#323232" stroke-width="1"></path></marker></defs><g id="SvgjsG1243" transform="translate(505,25)"><path id="SvgjsPath1244" d="M0 0L333 0L333 301L0 301Z " stroke="rgba(50,50,50,1)" stroke-width="2" fill-opacity="1" fill="#ffffff"></path><g id="SvgjsG1245"><text id="SvgjsText1246" font-family="微软雅黑" text-anchor="middle" font-size="13px" width="313px" fill="#323232" font-weight="400" align="middle" lineHeight="125%" font-style="" opacity="1" y="139.875" transform="rotate(0)"></text></g></g><g id="SvgjsG1247" transform="translate(513,50)"><path id="SvgjsPath1248" d="M0 0L100 0L100 70L0 70Z " stroke="rgba(50,50,50,1)" stroke-width="2" fill-opacity="1" fill="#ffffff"></path><g id="SvgjsG1249"><text id="SvgjsText1250" font-family="微软雅黑" text-anchor="middle" font-size="13px" width="80px" fill="#323232" font-weight="400" align="middle" lineHeight="125%" font-style="" opacity="1" y="16.375" transform="rotate(0)"><tspan id="SvgjsTspan1251" dy="16" x="50"><tspan id="SvgjsTspan1252" style="text-decoration:;">A公钥</tspan></tspan><tspan id="SvgjsTspan1253" dy="16" x="50"><tspan id="SvgjsTspan1254" style="text-decoration:;">转账金额5</tspan></tspan></text></g></g><g id="SvgjsG1255" transform="translate(721,50)"><path id="SvgjsPath1256" d="M0 0L100 0L100 70L0 70Z " stroke="rgba(50,50,50,1)" stroke-width="2" fill-opacity="1" fill="#ffffff"></path><g id="SvgjsG1257"><text id="SvgjsText1258" font-family="微软雅黑" text-anchor="middle" font-size="13px" width="80px" fill="#323232" font-weight="400" align="middle" lineHeight="125%" font-style="" opacity="1" y="16.375" transform="rotate(0)"><tspan id="SvgjsTspan1259" dy="16" x="50"><tspan id="SvgjsTspan1260" style="text-decoration:;">B公钥</tspan></tspan><tspan id="SvgjsTspan1261" dy="16" x="50"><tspan id="SvgjsTspan1262" style="text-decoration:;">收入金额3</tspan></tspan></text></g></g><g id="SvgjsG1263" transform="translate(721,177)"><path id="SvgjsPath1264" d="M0 0L100 0L100 70L0 70Z " stroke="rgba(50,50,50,1)" stroke-width="2" fill-opacity="1" fill="#ffffff"></path><g id="SvgjsG1265"><text id="SvgjsText1266" font-family="微软雅黑" text-anchor="middle" font-size="13px" width="80px" fill="#323232" font-weight="400" align="middle" lineHeight="125%" font-style="" opacity="1" y="16.375" transform="rotate(0)"><tspan id="SvgjsTspan1267" dy="16" x="50"><tspan id="SvgjsTspan1268" style="text-decoration:;">C公钥</tspan></tspan><tspan id="SvgjsTspan1269" dy="16" x="50"><tspan id="SvgjsTspan1270" style="text-decoration:;">收入金额2</tspan></tspan></text></g></g><g id="SvgjsG1271"><path id="SvgjsPath1272" d="M614 85L667 85L667 85L717.4 85 " stroke="#323232" stroke-width="2" fill="none" marker-end="url(#SvgjsMarker1273)"></path></g><g id="SvgjsG1275"><path id="SvgjsPath1276" d="M614 85L667 85L667 212L717.4 212 " stroke="#323232" stroke-width="2" fill="none" marker-end="url(#SvgjsMarker1277)"></path></g><g id="SvgjsG1279" transform="translate(572,271)"><path id="SvgjsPath1280" d="M0 0L149 0L149 42L0 42Z " stroke="rgba(50,50,50,1)" stroke-width="2" fill-opacity="1" fill="#ffffff"></path><g id="SvgjsG1281"><text id="SvgjsText1282" font-family="微软雅黑" text-anchor="middle" font-size="13px" width="129px" fill="#323232" font-weight="400" align="middle" lineHeight="125%" font-style="" opacity="1" y="10.375" transform="rotate(0)"><tspan id="SvgjsTspan1283" dy="16" x="74.5"><tspan id="SvgjsTspan1284" style="text-decoration:;">签名（A私钥生成）</tspan></tspan></text></g></g><g id="SvgjsG1285" transform="translate(25,25)"><path id="SvgjsPath1286" d="M0 0L333 0L333 301L0 301Z " stroke="rgba(50,50,50,1)" stroke-width="2" fill-opacity="1" fill="#ffffff"></path><g id="SvgjsG1287"><text id="SvgjsText1288" font-family="微软雅黑" text-anchor="middle" font-size="13px" width="313px" fill="#323232" font-weight="400" align="middle" lineHeight="125%" font-style="" opacity="1" y="139.875" transform="rotate(0)"></text></g></g><g id="SvgjsG1289" transform="translate(33,50)"><path id="SvgjsPath1290" d="M0 0L100 0L100 70L0 70Z " stroke="rgba(50,50,50,1)" stroke-width="2" fill-opacity="1" fill="#ffffff"></path><g id="SvgjsG1291"><text id="SvgjsText1292" font-family="微软雅黑" text-anchor="middle" font-size="13px" width="80px" fill="#323232" font-weight="400" align="middle" lineHeight="125%" font-style="" opacity="1" y="24.375" transform="rotate(0)"><tspan id="SvgjsTspan1293" dy="16" x="50"><tspan id="SvgjsTspan1294" style="text-decoration:;"> </tspan></tspan></text></g></g><g id="SvgjsG1295" transform="translate(225,50)"><path id="SvgjsPath1296" d="M0 0L100 0L100 70L0 70Z " stroke="rgba(50,50,50,1)" stroke-width="2" fill-opacity="1" fill="#ffffff"></path><g id="SvgjsG1297"><text id="SvgjsText1298" font-family="微软雅黑" text-anchor="middle" font-size="13px" width="80px" fill="#323232" font-weight="400" align="middle" lineHeight="125%" font-style="" opacity="1" y="16.375" transform="rotate(0)"><tspan id="SvgjsTspan1299" dy="16" x="50"><tspan id="SvgjsTspan1300" style="text-decoration:;">A公钥</tspan></tspan><tspan id="SvgjsTspan1301" dy="16" x="50"><tspan id="SvgjsTspan1302" style="text-decoration:;">收入金额5</tspan></tspan></text></g></g><g id="SvgjsG1303"><path id="SvgjsPath1304" d="M134 85L179 85L179 85L221.39999999999998 85 " stroke="#323232" stroke-width="2" fill="none" marker-end="url(#SvgjsMarker1305)"></path></g><g id="SvgjsG1307" transform="translate(92,271)"><path id="SvgjsPath1308" d="M0 0L149 0L149 42L0 42Z " stroke="rgba(50,50,50,1)" stroke-width="2" fill-opacity="1" fill="#ffffff"></path><g id="SvgjsG1309"><text id="SvgjsText1310" font-family="微软雅黑" text-anchor="middle" font-size="13px" width="129px" fill="#323232" font-weight="400" align="middle" lineHeight="125%" font-style="" opacity="1" y="10.375" transform="rotate(0)"><tspan id="SvgjsTspan1311" dy="16" x="74.5"><tspan id="SvgjsTspan1312" style="text-decoration:;">签名</tspan></tspan></text></g></g><g id="SvgjsG1313"><path id="SvgjsPath1314" d="M512 85L419 85L419 85L328.6 85 " stroke="#323232" stroke-width="2" fill="none" marker-end="url(#SvgjsMarker1315)"></path></g><g id="SvgjsG1317" transform="translate(579,326)"><path id="SvgjsPath1318" d="M0 0L193 0L193 34L0 34Z " stroke="none" fill="none"></path><g id="SvgjsG1319"><text id="SvgjsText1320" font-family="微软雅黑" text-anchor="middle" font-size="13px" width="193px" fill="#323232" font-weight="400" align="middle" lineHeight="125%" font-style="" opacity="1" y="6.375" transform="rotate(0)"><tspan id="SvgjsTspan1321" dy="16" x="96.5"><tspan id="SvgjsTspan1322" style="text-decoration:;">上一次交易（已经写入区块链）</tspan></tspan></text></g></g><g id="SvgjsG1323" transform="translate(92,326)"><path id="SvgjsPath1324" d="M0 0L193 0L193 34L0 34Z " stroke="none" fill="none"></path><g id="SvgjsG1325"><text id="SvgjsText1326" font-family="微软雅黑" text-anchor="middle" font-size="13px" width="193px" fill="#323232" font-weight="400" align="middle" lineHeight="125%" font-style="" opacity="1" y="6.375" transform="rotate(0)"><tspan id="SvgjsTspan1327" dy="16" x="96.5"><tspan id="SvgjsTspan1328" style="text-decoration:;">上一次交易（已经写入区块链）</tspan></tspan></text></g></g><g id="SvgjsG1329" transform="translate(993,25)"><path id="SvgjsPath1330" d="M0 0L333 0L333 301L0 301Z " stroke="rgba(50,50,50,1)" stroke-width="2" fill-opacity="1" fill="#ffffff"></path><g id="SvgjsG1331"><text id="SvgjsText1332" font-family="微软雅黑" text-anchor="middle" font-size="13px" width="313px" fill="#323232" font-weight="400" align="middle" lineHeight="125%" font-style="" opacity="1" y="139.875" transform="rotate(0)"></text></g></g><g id="SvgjsG1333" transform="translate(1001,50)"><path id="SvgjsPath1334" d="M0 0L100 0L100 70L0 70Z " stroke="rgba(50,50,50,1)" stroke-width="2" fill-opacity="1" fill="#ffffff"></path><g id="SvgjsG1335"><text id="SvgjsText1336" font-family="微软雅黑" text-anchor="middle" font-size="13px" width="80px" fill="#323232" font-weight="400" align="middle" lineHeight="125%" font-style="" opacity="1" y="16.375" transform="rotate(0)"><tspan id="SvgjsTspan1337" dy="16" x="50"><tspan id="SvgjsTspan1338" style="text-decoration:;">B公钥</tspan></tspan><tspan id="SvgjsTspan1339" dy="16" x="50"><tspan id="SvgjsTspan1340" style="text-decoration:;">转账金额3</tspan></tspan></text></g></g><g id="SvgjsG1341" transform="translate(1209,50)"><path id="SvgjsPath1342" d="M0 0L100 0L100 70L0 70Z " stroke="rgba(50,50,50,1)" stroke-width="2" fill-opacity="1" fill="#ffffff"></path><g id="SvgjsG1343"><text id="SvgjsText1344" font-family="微软雅黑" text-anchor="middle" font-size="13px" width="80px" fill="#323232" font-weight="400" align="middle" lineHeight="125%" font-style="" opacity="1" y="16.375" transform="rotate(0)"><tspan id="SvgjsTspan1345" dy="16" x="50"><tspan id="SvgjsTspan1346" style="text-decoration:;">D公钥</tspan></tspan><tspan id="SvgjsTspan1347" dy="16" x="50"><tspan id="SvgjsTspan1348" style="text-decoration:;">收入金额2</tspan></tspan></text></g></g><g id="SvgjsG1349" transform="translate(1209,177)"><path id="SvgjsPath1350" d="M0 0L100 0L100 70L0 70Z " stroke="rgba(50,50,50,1)" stroke-width="2" fill-opacity="1" fill="#ffffff"></path><g id="SvgjsG1351"><text id="SvgjsText1352" font-family="微软雅黑" text-anchor="middle" font-size="13px" width="80px" fill="#323232" font-weight="400" align="middle" lineHeight="125%" font-style="" opacity="1" y="16.375" transform="rotate(0)"><tspan id="SvgjsTspan1353" dy="16" x="50"><tspan id="SvgjsTspan1354" style="text-decoration:;">E公钥</tspan></tspan><tspan id="SvgjsTspan1355" dy="16" x="50"><tspan id="SvgjsTspan1356" style="text-decoration:;">收入金额1</tspan></tspan></text></g></g><g id="SvgjsG1357"><path id="SvgjsPath1358" d="M1102 85L1155 85L1155 85L1205.4 85 " stroke="#323232" stroke-width="2" fill="none" marker-end="url(#SvgjsMarker1359)"></path></g><g id="SvgjsG1361"><path id="SvgjsPath1362" d="M1102 85L1155 85L1155 212L1205.4 212 " stroke="#323232" stroke-width="2" fill="none" marker-end="url(#SvgjsMarker1363)"></path></g><g id="SvgjsG1365" transform="translate(1060,271)"><path id="SvgjsPath1366" d="M0 0L149 0L149 42L0 42Z " stroke="rgba(50,50,50,1)" stroke-width="2" fill-opacity="1" fill="#ffffff"></path><g id="SvgjsG1367"><text id="SvgjsText1368" font-family="微软雅黑" text-anchor="middle" font-size="13px" width="129px" fill="#323232" font-weight="400" align="middle" lineHeight="125%" font-style="" opacity="1" y="10.375" transform="rotate(0)"><tspan id="SvgjsTspan1369" dy="16" x="74.5"><tspan id="SvgjsTspan1370" style="text-decoration:;">签名（B私钥生成）</tspan></tspan></text></g></g><g id="SvgjsG1371" transform="translate(1067,326)"><path id="SvgjsPath1372" d="M0 0L193 0L193 34L0 34Z " stroke="none" fill="none"></path><g id="SvgjsG1373"><text id="SvgjsText1374" font-family="微软雅黑" text-anchor="middle" font-size="13px" width="193px" fill="#323232" font-weight="400" align="middle" lineHeight="125%" font-style="" opacity="1" y="6.375" transform="rotate(0)"><tspan id="SvgjsTspan1375" dy="16" x="96.5"><tspan id="SvgjsTspan1376" style="text-decoration:;">本次交易（还未写入区块链）</tspan></tspan></text></g></g><g id="SvgjsG1377"><path id="SvgjsPath1378" d="M1000 85L911 85L911 85L824.6 85 " stroke="#323232" stroke-width="2" fill="none" marker-end="url(#SvgjsMarker1379)"></path><rect id="SvgjsRect1381" width="91" height="16" x="866.8000000000001" y="77" fill="#ffffff"></rect><text id="SvgjsText1382" font-family="微软雅黑" text-anchor="middle" font-size="13px" width="91px" fill="#323232" font-weight="400" align="top" lineHeight="16px" font-style="" opacity="1" y="74.375" transform="rotate(0)"><tspan id="SvgjsTspan1383" dy="16" x="912.3000000000001"><tspan id="SvgjsTspan1384" style="text-decoration:;">验证公钥和余额</tspan></tspan></text></g></svg>