<svg id="SvgjsSvg1000" xmlns="http://www.w3.org/2000/svg" version="1.1" xmlns:xlink="http://www.w3.org/1999/xlink" xmlns:svgjs="http://svgjs.com/svgjs" width="432" height="214"><defs id="SvgjsDefs1001"></defs><g id="SvgjsG1007" transform="translate(115,25)"><path id="SvgjsPath1008" d="M0 0L292 0L292 55L0 55Z " stroke="rgba(50,50,50,1)" stroke-width="2" fill-opacity="1" fill="#ffffff"></path><g id="SvgjsG1009"><text id="SvgjsText1010" font-family="微软雅黑" text-anchor="middle" font-size="13px" width="272px" fill="#323232" font-weight="400" align="middle" lineHeight="125%" font-style="" opacity="1" y="16.875" transform="rotate(0)"><tspan id="SvgjsTspan1011" dy="16" x="146"><tspan id="SvgjsTspan1012" style="text-decoration:;">  出款方公钥</tspan></tspan></text></g></g><g id="SvgjsG1013" transform="translate(115,79)"><path id="SvgjsPath1014" d="M0 0L292 0L292 55L0 55Z " stroke="rgba(50,50,50,1)" stroke-width="2" fill-opacity="1" fill="#ffffff"></path><g id="SvgjsG1015"><text id="SvgjsText1016" font-family="微软雅黑" text-anchor="middle" font-size="13px" width="272px" fill="#323232" font-weight="400" align="middle" lineHeight="125%" font-style="" opacity="1" y="16.875" transform="rotate(0)"><tspan id="SvgjsTspan1017" dy="16" x="146"><tspan id="SvgjsTspan1018" style="text-decoration:;">  出款方公钥</tspan></tspan></text></g></g><g id="SvgjsG1019" transform="translate(115,134)"><path id="SvgjsPath1020" d="M0 0L292 0L292 55L0 55Z " stroke="rgba(50,50,50,1)" stroke-width="2" fill-opacity="1" fill="#ffffff"></path><g id="SvgjsG1021"><text id="SvgjsText1022" font-family="微软雅黑" text-anchor="middle" font-size="13px" width="272px" fill="#323232" font-weight="400" align="middle" lineHeight="125%" font-style="" opacity="1" y="16.875" transform="rotate(0)"><tspan id="SvgjsTspan1023" dy="16" x="146"><tspan id="SvgjsTspan1024" style="text-decoration:;">出款方私钥签名</tspan></tspan></text></g></g><g id="SvgjsG1025" transform="translate(25,25)"><path id="SvgjsPath1026" d="M0 19.8L60 19.8L60 0L90 30L60 60L60 40.2L0 40.2L0 19.8Z " stroke="rgba(50,50,50,1)" stroke-width="2" fill-opacity="1" fill="#ffffff"></path><g id="SvgjsG1027"><text id="SvgjsText1028" font-family="微软雅黑" text-anchor="middle" font-size="13px" width="90px" fill="#323232" font-weight="400" align="middle" lineHeight="125%" font-style="" opacity="1" y="19.375" transform="rotate(0)"><tspan id="SvgjsTspan1029" dy="16" x="45"><tspan id="SvgjsTspan1030" style="text-decoration:;">top</tspan></tspan></text></g></g></svg>