<svg id="SvgjsSvg1132" xmlns="http://www.w3.org/2000/svg" version="1.1" xmlns:xlink="http://www.w3.org/1999/xlink" xmlns:svgjs="http://svgjs.com/svgjs" width="992.1875" height="175.75"><defs id="SvgjsDefs1133"><marker id="SvgjsMarker1176" markerWidth="14" markerHeight="10" refX="10" refY="5" viewBox="0 0 14 10" orient="auto" markerUnits="userSpaceOnUse" stroke-dasharray="0,0"><path id="SvgjsPath1177" d="M0 0L14 5L0 10L0 0 " fill="#323232" stroke="#323232" stroke-width="1"></path></marker><marker id="SvgjsMarker1201" markerWidth="14" markerHeight="10" refX="10" refY="5" viewBox="0 0 14 10" orient="auto" markerUnits="userSpaceOnUse" stroke-dasharray="0,0"><path id="SvgjsPath1202" d="M0 0L14 5L0 10L0 0 " fill="#323232" stroke="#323232" stroke-width="1"></path></marker><marker id="SvgjsMarker1242" markerWidth="14" markerHeight="10" refX="10" refY="5" viewBox="0 0 14 10" orient="auto" markerUnits="userSpaceOnUse" stroke-dasharray="0,0"><path id="SvgjsPath1243" d="M0 0L14 5L0 10L0 0 " fill="#323232" stroke="#323232" stroke-width="1"></path></marker><marker id="SvgjsMarker1257" markerWidth="14" markerHeight="10" refX="10" refY="5" viewBox="0 0 14 10" orient="auto" markerUnits="userSpaceOnUse" stroke-dasharray="0,0"><path id="SvgjsPath1258" d="M0 0L14 5L0 10L0 0 " fill="#323232" stroke="#323232" stroke-width="1"></path></marker></defs><g id="SvgjsG1134" transform="translate(26.359375,80.75)"><path id="SvgjsPath1135" d="M0 0L100 0L100 70L0 70Z " stroke="rgba(50,50,50,1)" stroke-width="2" fill-opacity="1" fill="#ffffff"></path><g id="SvgjsG1136"><text id="SvgjsText1137" font-family="微软雅黑" text-anchor="middle" font-size="13px" width="80px" fill="#323232" font-weight="400" align="middle" lineHeight="125%" font-style="" opacity="1" y="24.375" transform="rotate(0)"><tspan id="SvgjsTspan1138" dy="16" x="50"><tspan id="SvgjsTspan1139" style="text-decoration:;">创世区块</tspan></tspan></text></g></g><g id="SvgjsG1140" transform="translate(182.07366071428584,80.74999999999983)"><path id="SvgjsPath1141" d="M0 0L100 0L100 70L0 70Z " stroke="rgba(50,50,50,1)" stroke-width="2" fill-opacity="1" fill="#ffffff"></path><g id="SvgjsG1142"><text id="SvgjsText1143" font-family="微软雅黑" text-anchor="middle" font-size="13px" width="80px" fill="#323232" font-weight="400" align="middle" lineHeight="125%" font-style="" opacity="1" y="24.375" transform="rotate(0)"></text></g></g><g id="SvgjsG1144"><path id="SvgjsPath1145" d="M535.3797831632654 116.33823529411728L498.0124362244899 116.33823529411728L498.0124362244899 116.33823529411728L460.6450892857142 116.33823529411728 " stroke-dasharray="3,3" stroke="#323232" stroke-width="4" fill="none"></path></g><g id="SvgjsG1146" transform="translate(182.32091346153857,80.75)"><path id="SvgjsPath1147" d="M0 0L99.50549450549454 0L99.50549450549454 32.5L0 32.5Z " stroke="rgba(255,0,0,1)" stroke-width="2" fill-opacity="1" fill="#ffffff"></path><g id="SvgjsG1148"><text id="SvgjsText1149" font-family="微软雅黑" text-anchor="middle" font-size="13px" width="80px" fill="#323232" font-weight="400" align="middle" lineHeight="125%" font-style="" opacity="1" y="5.625" transform="rotate(0)"><tspan id="SvgjsTspan1150" dy="16" x="50"><tspan id="SvgjsTspan1151" style="text-decoration:;">区块头</tspan></tspan></text></g></g><g id="SvgjsG1152" transform="matrix(6.123233995736766e-17,1,-1,6.123233995736766e-17,823.3593739413205,29.74999714616907)"><path id="SvgjsPath1153" d="M47.11764705882334 0Q42.405882352941006 0 42.405882352941006 9L42.405882352941006 390.179487179487Q42.405882352941006 399.179487179487 25.117647058823337 399.179487179487Q42.405882352941006 399.179487179487 42.405882352941006 408.179487179487L42.405882352941006 789.358974358974Q42.405882352941006 798.358974358974 47.11764705882334 798.358974358974 " stroke="rgba(50,50,50,1)" stroke-width="2" fill="none"></path><path id="SvgjsPath1154" d="M0 0L47.11764705882334 0L47.11764705882334 798.358974358974L0 798.358974358974Z " stroke="none" fill="none"></path><g id="SvgjsG1155"><text id="SvgjsText1156" font-family="微软雅黑" text-anchor="end" font-size="13px" width="21px" fill="#323232" font-weight="400" align="middle" lineHeight="125%" font-style="" opacity="1" y="388.554487179487" transform="rotate(0)"></text></g></g><g id="SvgjsG1157" transform="translate(325.23849587912105,25.002747252747554)"><path id="SvgjsPath1158" d="M0 0L192.94871794871824 0L192.94871794871824 29.230769230769226L0 29.230769230769226Z " stroke="none" fill="none"></path><g id="SvgjsG1159"><text id="SvgjsText1160" font-family="微软雅黑" text-anchor="middle" font-size="13px" width="193px" fill="#323232" font-weight="400" align="middle" lineHeight="125%" font-style="" opacity="1" y="3.990384615384613" transform="rotate(0)"><tspan id="SvgjsTspan1161" dy="16" x="96.5"><tspan id="SvgjsTspan1162" style="text-decoration:;">区块的高度，即区块的多少</tspan></tspan></text></g></g><g id="SvgjsG1163" transform="translate(182.0736607142859,113.41666666666674)"><path id="SvgjsPath1164" d="M0 0L99.75274725274727 0L99.75274725274727 20L0 20Z " stroke="rgba(255,0,0,1)" stroke-width="2" fill-opacity="1" fill="#ffffff"></path><g id="SvgjsG1165"><text id="SvgjsText1166" font-family="微软雅黑" text-anchor="middle" font-size="13px" width="80px" fill="#323232" font-weight="400" align="middle" lineHeight="125%" font-style="" opacity="1" y="-0.625" transform="rotate(0)"><tspan id="SvgjsTspan1167" dy="16" x="50"><tspan id="SvgjsTspan1168" style="text-decoration:;">前块标识</tspan></tspan></text></g></g><g id="SvgjsG1169" transform="translate(126.359375,80.75)"><path id="SvgjsPath1170" d="M0 52.66666666666674Q9 52.66666666666674 9 47.40000000000007L9 31.600000000000044Q9 26.33333333333337 22 26.33333333333337Q9 26.33333333333337 9 21.0666666666667L9 5.266666666666675Q9 0 0 0 " stroke="rgba(50,50,50,1)" stroke-width="2" fill="none"></path><path id="SvgjsPath1171" d="M0 0L102.5 0L102.5 52.66666666666674L0 52.66666666666674Z " stroke="none" fill="none"></path><g id="SvgjsG1172"><text id="SvgjsText1173" font-family="微软雅黑" text-anchor="start" font-size="13px" width="76px" fill="#323232" font-weight="400" align="middle" lineHeight="125%" font-style="" opacity="1" y="15.708333333333371" transform="rotate(0)"></text></g></g><g id="SvgjsG1174"><path id="SvgjsPath1175" d="M181.0736607142859 123.41666666666674L165.71651785714295 123.41666666666674L165.71651785714295 108.25L149.359375 108.25 " stroke="#323232" stroke-width="2" fill="none" marker-end="url(#SvgjsMarker1176)"></path></g><g id="SvgjsG1178" transform="translate(337.7879464285721,80.75000000000028)"><path id="SvgjsPath1179" d="M0 0L100 0L100 70L0 70Z " stroke="rgba(50,50,50,1)" stroke-width="2" fill-opacity="1" fill="#ffffff"></path><g id="SvgjsG1180"><text id="SvgjsText1181" font-family="微软雅黑" text-anchor="middle" font-size="13px" width="80px" fill="#323232" font-weight="400" align="middle" lineHeight="125%" font-style="" opacity="1" y="24.375" transform="rotate(0)"></text></g></g><g id="SvgjsG1182" transform="translate(338.0351991758248,80.75000000000045)"><path id="SvgjsPath1183" d="M0 0L99.50549450549454 0L99.50549450549454 32.5L0 32.5Z " stroke="rgba(255,0,0,1)" stroke-width="2" fill-opacity="1" fill="#ffffff"></path><g id="SvgjsG1184"><text id="SvgjsText1185" font-family="微软雅黑" text-anchor="middle" font-size="13px" width="80px" fill="#323232" font-weight="400" align="middle" lineHeight="125%" font-style="" opacity="1" y="5.625" transform="rotate(0)"><tspan id="SvgjsTspan1186" dy="16" x="50"><tspan id="SvgjsTspan1187" style="text-decoration:;">区块头</tspan></tspan></text></g></g><g id="SvgjsG1188" transform="translate(337.7879464285721,113.4166666666672)"><path id="SvgjsPath1189" d="M0 0L99.75274725274727 0L99.75274725274727 20L0 20Z " stroke="rgba(255,0,0,1)" stroke-width="2" fill-opacity="1" fill="#ffffff"></path><g id="SvgjsG1190"><text id="SvgjsText1191" font-family="微软雅黑" text-anchor="middle" font-size="13px" width="80px" fill="#323232" font-weight="400" align="middle" lineHeight="125%" font-style="" opacity="1" y="-0.625" transform="rotate(0)"><tspan id="SvgjsTspan1192" dy="16" x="50"><tspan id="SvgjsTspan1193" style="text-decoration:;">前块标识</tspan></tspan></text></g></g><g id="SvgjsG1194" transform="translate(282.82996323529375,80.75)"><path id="SvgjsPath1195" d="M0 52.66666666666674Q9 52.66666666666674 9 47.40000000000007L9 31.600000000000044Q9 26.33333333333337 22 26.33333333333337Q9 26.33333333333337 9 21.0666666666667L9 5.266666666666675Q9 0 0 0 " stroke="rgba(50,50,50,1)" stroke-width="2" fill="none"></path><path id="SvgjsPath1196" d="M0 0L102.5 0L102.5 52.66666666666674L0 52.66666666666674Z " stroke="none" fill="none"></path><g id="SvgjsG1197"><text id="SvgjsText1198" font-family="微软雅黑" text-anchor="start" font-size="13px" width="76px" fill="#323232" font-weight="400" align="middle" lineHeight="125%" font-style="" opacity="1" y="15.708333333333371" transform="rotate(0)"></text></g></g><g id="SvgjsG1199"><path id="SvgjsPath1200" d="M338.54424894958004 123.41666666666674L322.18710609243703 123.41666666666674L322.18710609243703 108.25L305.8299632352939 108.25 " stroke="#323232" stroke-width="2" fill="none" marker-end="url(#SvgjsMarker1201)"></path></g><g id="SvgjsG1203" transform="translate(550.7291228991606,80.7500000000008)"><path id="SvgjsPath1204" d="M0 0L100 0L100 70L0 70Z " stroke="rgba(50,50,50,1)" stroke-width="2" fill-opacity="1" fill="#ffffff"></path><g id="SvgjsG1205"><text id="SvgjsText1206" font-family="微软雅黑" text-anchor="middle" font-size="13px" width="80px" fill="#323232" font-weight="400" align="middle" lineHeight="125%" font-style="" opacity="1" y="24.375" transform="rotate(0)"></text></g></g><g id="SvgjsG1207" transform="translate(550.9763756464133,80.75000000000097)"><path id="SvgjsPath1208" d="M0 0L99.50549450549454 0L99.50549450549454 32.5L0 32.5Z " stroke="rgba(255,0,0,1)" stroke-width="2" fill-opacity="1" fill="#ffffff"></path><g id="SvgjsG1209"><text id="SvgjsText1210" font-family="微软雅黑" text-anchor="middle" font-size="13px" width="80px" fill="#323232" font-weight="400" align="middle" lineHeight="125%" font-style="" opacity="1" y="5.625" transform="rotate(0)"><tspan id="SvgjsTspan1211" dy="16" x="50"><tspan id="SvgjsTspan1212" style="text-decoration:;">区块头</tspan></tspan></text></g></g><g id="SvgjsG1213" transform="translate(550.7291228991606,113.41666666666771)"><path id="SvgjsPath1214" d="M0 0L99.75274725274727 0L99.75274725274727 20L0 20Z " stroke="rgba(255,0,0,1)" stroke-width="2" fill-opacity="1" fill="#ffffff"></path><g id="SvgjsG1215"><text id="SvgjsText1216" font-family="微软雅黑" text-anchor="middle" font-size="13px" width="80px" fill="#323232" font-weight="400" align="middle" lineHeight="125%" font-style="" opacity="1" y="-0.625" transform="rotate(0)"><tspan id="SvgjsTspan1217" dy="16" x="50"><tspan id="SvgjsTspan1218" style="text-decoration:;">前块标识</tspan></tspan></text></g></g><g id="SvgjsG1219" transform="translate(708.9644170168089,80.75000000000074)"><path id="SvgjsPath1220" d="M0 0L100 0L100 70L0 70Z " stroke="rgba(50,50,50,1)" stroke-width="2" fill-opacity="1" fill="#ffffff"></path><g id="SvgjsG1221"><text id="SvgjsText1222" font-family="微软雅黑" text-anchor="middle" font-size="13px" width="80px" fill="#323232" font-weight="400" align="middle" lineHeight="125%" font-style="" opacity="1" y="24.375" transform="rotate(0)"></text></g></g><g id="SvgjsG1223" transform="translate(709.2116697640615,80.75000000000091)"><path id="SvgjsPath1224" d="M0 0L99.50549450549454 0L99.50549450549454 32.5L0 32.5Z " stroke="rgba(255,0,0,1)" stroke-width="2" fill-opacity="1" fill="#ffffff"></path><g id="SvgjsG1225"><text id="SvgjsText1226" font-family="微软雅黑" text-anchor="middle" font-size="13px" width="80px" fill="#323232" font-weight="400" align="middle" lineHeight="125%" font-style="" opacity="1" y="5.625" transform="rotate(0)"><tspan id="SvgjsTspan1227" dy="16" x="50"><tspan id="SvgjsTspan1228" style="text-decoration:;">区块头</tspan></tspan></text></g></g><g id="SvgjsG1229" transform="translate(708.9644170168089,113.41666666666765)"><path id="SvgjsPath1230" d="M0 0L99.75274725274727 0L99.75274725274727 20L0 20Z " stroke="rgba(255,0,0,1)" stroke-width="2" fill-opacity="1" fill="#ffffff"></path><g id="SvgjsG1231"><text id="SvgjsText1232" font-family="微软雅黑" text-anchor="middle" font-size="13px" width="80px" fill="#323232" font-weight="400" align="middle" lineHeight="125%" font-style="" opacity="1" y="-0.625" transform="rotate(0)"><tspan id="SvgjsTspan1233" dy="16" x="50"><tspan id="SvgjsTspan1234" style="text-decoration:;">前块标识</tspan></tspan></text></g></g><g id="SvgjsG1235" transform="translate(651.6534926470576,80.7500000000008)"><path id="SvgjsPath1236" d="M0 52.66666666666674Q9 52.66666666666674 9 47.40000000000007L9 31.600000000000044Q9 26.33333333333337 22 26.33333333333337Q9 26.33333333333337 9 21.0666666666667L9 5.266666666666675Q9 0 0 0 " stroke="rgba(50,50,50,1)" stroke-width="2" fill="none"></path><path id="SvgjsPath1237" d="M0 0L102.5 0L102.5 52.66666666666674L0 52.66666666666674Z " stroke="none" fill="none"></path><g id="SvgjsG1238"><text id="SvgjsText1239" font-family="微软雅黑" text-anchor="start" font-size="13px" width="76px" fill="#323232" font-weight="400" align="middle" lineHeight="125%" font-style="" opacity="1" y="15.708333333333371" transform="rotate(0)"></text></g></g><g id="SvgjsG1240"><path id="SvgjsPath1241" d="M707.367778361344 123.41666666666754L691.010635504201 123.41666666666754L691.010635504201 108.2500000000008L674.6534926470579 108.2500000000008 " stroke="#323232" stroke-width="2" fill="none" marker-end="url(#SvgjsMarker1242)"></path></g><g id="SvgjsG1244" transform="translate(867.1997111344574,113.41666666666765)"><path id="SvgjsPath1245" d="M0 0L99.75274725274727 0L99.75274725274727 20L0 20Z " stroke="rgba(255,0,0,1)" stroke-width="2" fill-opacity="1" fill="#ffffff"></path><g id="SvgjsG1246"><text id="SvgjsText1247" font-family="微软雅黑" text-anchor="middle" font-size="13px" width="80px" fill="#323232" font-weight="400" align="middle" lineHeight="125%" font-style="" opacity="1" y="-0.625" transform="rotate(0)"><tspan id="SvgjsTspan1248" dy="16" x="50"><tspan id="SvgjsTspan1249" style="text-decoration:;">区块链标识</tspan></tspan></text></g></g><g id="SvgjsG1250" transform="translate(809.0652573529399,80.75000000000091)"><path id="SvgjsPath1251" d="M0 52.66666666666674Q9 52.66666666666674 9 47.40000000000007L9 31.600000000000044Q9 26.33333333333337 22 26.33333333333337Q9 26.33333333333337 9 21.0666666666667L9 5.266666666666675Q9 0 0 0 " stroke="rgba(50,50,50,1)" stroke-width="2" fill="none"></path><path id="SvgjsPath1252" d="M0 0L102.5 0L102.5 52.66666666666674L0 52.66666666666674Z " stroke="none" fill="none"></path><g id="SvgjsG1253"><text id="SvgjsText1254" font-family="微软雅黑" text-anchor="start" font-size="13px" width="76px" fill="#323232" font-weight="400" align="middle" lineHeight="125%" font-style="" opacity="1" y="15.708333333333371" transform="rotate(0)"></text></g></g><g id="SvgjsG1255"><path id="SvgjsPath1256" d="M864.7795430672263 123.41666666666765L848.4224002100832 123.41666666666765L848.4224002100832 108.25000000000091L832.0652573529403 108.25000000000091 " stroke="#323232" stroke-width="2" fill="none" marker-end="url(#SvgjsMarker1257)"></path></g></svg>