<svg id="SvgjsSvg1000" xmlns="http://www.w3.org/2000/svg" version="1.1" xmlns:xlink="http://www.w3.org/1999/xlink" xmlns:svgjs="http://svgjs.com/svgjs" width="992.1875" height="260.859375"><defs id="SvgjsDefs1001"><marker id="SvgjsMarker1049" markerWidth="14" markerHeight="10" refX="10" refY="5" viewBox="0 0 14 10" orient="auto" markerUnits="userSpaceOnUse" stroke-dasharray="0,0"><path id="SvgjsPath1050" d="M0 0L14 5L0 10L0 0 " fill="#323232" stroke="#323232" stroke-width="1"></path></marker><marker id="SvgjsMarker1074" markerWidth="14" markerHeight="10" refX="10" refY="5" viewBox="0 0 14 10" orient="auto" markerUnits="userSpaceOnUse" stroke-dasharray="0,0"><path id="SvgjsPath1075" d="M0 0L14 5L0 10L0 0 " fill="#323232" stroke="#323232" stroke-width="1"></path></marker><marker id="SvgjsMarker1115" markerWidth="14" markerHeight="10" refX="10" refY="5" viewBox="0 0 14 10" orient="auto" markerUnits="userSpaceOnUse" stroke-dasharray="0,0"><path id="SvgjsPath1116" d="M0 0L14 5L0 10L0 0 " fill="#323232" stroke="#323232" stroke-width="1"></path></marker><marker id="SvgjsMarker1130" markerWidth="14" markerHeight="10" refX="10" refY="5" viewBox="0 0 14 10" orient="auto" markerUnits="userSpaceOnUse" stroke-dasharray="0,0"><path id="SvgjsPath1131" d="M0 0L14 5L0 10L0 0 " fill="#323232" stroke="#323232" stroke-width="1"></path></marker></defs><g id="SvgjsG1007" transform="translate(26.359375,165.859375)"><path id="SvgjsPath1008" d="M0 0L100 0L100 70L0 70Z " stroke="rgba(50,50,50,1)" stroke-width="2" fill-opacity="1" fill="#ffffff"></path><g id="SvgjsG1009"><text id="SvgjsText1010" font-family="微软雅黑" text-anchor="middle" font-size="13px" width="80px" fill="#323232" font-weight="400" align="middle" lineHeight="125%" font-style="" opacity="1" y="24.375" transform="rotate(0)"><tspan id="SvgjsTspan1011" dy="16" x="50"><tspan id="SvgjsTspan1012" style="text-decoration:;">创世区块</tspan></tspan></text></g></g><g id="SvgjsG1013" transform="translate(182.07366071428584,165.85937499999983)"><path id="SvgjsPath1014" d="M0 0L100 0L100 70L0 70Z " stroke="rgba(50,50,50,1)" stroke-width="2" fill-opacity="1" fill="#ffffff"></path><g id="SvgjsG1015"><text id="SvgjsText1016" font-family="微软雅黑" text-anchor="middle" font-size="13px" width="80px" fill="#323232" font-weight="400" align="middle" lineHeight="125%" font-style="" opacity="1" y="24.375" transform="rotate(0)"></text></g></g><g id="SvgjsG1017"><path id="SvgjsPath1018" d="M535.3797831632654 201.44761029411728L498.0124362244899 201.44761029411728L498.0124362244899 201.44761029411728L460.6450892857142 201.44761029411728 " stroke-dasharray="3,3" stroke="#323232" stroke-width="4" fill="none"></path></g><g id="SvgjsG1019" transform="translate(182.32091346153857,165.859375)"><path id="SvgjsPath1020" d="M0 0L99.50549450549454 0L99.50549450549454 32.5L0 32.5Z " stroke="rgba(255,0,0,1)" stroke-width="2" fill-opacity="1" fill="#ffffff"></path><g id="SvgjsG1021"><text id="SvgjsText1022" font-family="微软雅黑" text-anchor="middle" font-size="13px" width="80px" fill="#323232" font-weight="400" align="middle" lineHeight="125%" font-style="" opacity="1" y="5.625" transform="rotate(0)"><tspan id="SvgjsTspan1023" dy="16" x="50"><tspan id="SvgjsTspan1024" style="text-decoration:;">区块头</tspan></tspan></text></g></g><g id="SvgjsG1025" transform="matrix(6.123233995736766e-17,1,-1,6.123233995736766e-17,818.6450969463431,25.002246727642316)"><path id="SvgjsPath1026" d="M136.97478991596628 0Q127.97478991596628 0 127.97478991596628 9L127.97478991596628 387.82234432234424Q127.97478991596628 396.82234432234424 114.97478991596628 396.82234432234424Q127.97478991596628 396.82234432234424 127.97478991596628 405.82234432234424L127.97478991596628 784.6446886446885Q127.97478991596628 793.6446886446885 136.97478991596628 793.6446886446885 " stroke="rgba(50,50,50,1)" stroke-width="2" fill="none"></path><path id="SvgjsPath1027" d="M0 0L136.97478991596628 0L136.97478991596628 793.6446886446885L0 793.6446886446885Z " stroke="none" fill="none"></path><g id="SvgjsG1028"><text id="SvgjsText1029" font-family="微软雅黑" text-anchor="end" font-size="13px" width="110px" fill="#323232" font-weight="400" align="middle" lineHeight="125%" font-style="" opacity="1" y="386.19734432234424" transform="rotate(0)"></text></g></g><g id="SvgjsG1030" transform="translate(325.23849587912105,110.11212225274755)"><path id="SvgjsPath1031" d="M0 0L192.94871794871824 0L192.94871794871824 29.230769230769226L0 29.230769230769226Z " stroke="none" fill="none"></path><g id="SvgjsG1032"><text id="SvgjsText1033" font-family="微软雅黑" text-anchor="middle" font-size="13px" width="193px" fill="#323232" font-weight="400" align="middle" lineHeight="125%" font-style="" opacity="1" y="3.990384615384613" transform="rotate(0)"><tspan id="SvgjsTspan1034" dy="16" x="96.5"><tspan id="SvgjsTspan1035" style="text-decoration:;">区块的高度，即区块的多少</tspan></tspan></text></g></g><g id="SvgjsG1036" transform="translate(182.0736607142859,198.52604166666674)"><path id="SvgjsPath1037" d="M0 0L99.75274725274727 0L99.75274725274727 20L0 20Z " stroke="rgba(255,0,0,1)" stroke-width="2" fill-opacity="1" fill="#ffffff"></path><g id="SvgjsG1038"><text id="SvgjsText1039" font-family="微软雅黑" text-anchor="middle" font-size="13px" width="80px" fill="#323232" font-weight="400" align="middle" lineHeight="125%" font-style="" opacity="1" y="-0.625" transform="rotate(0)"><tspan id="SvgjsTspan1040" dy="16" x="50"><tspan id="SvgjsTspan1041" style="text-decoration:;">前块标识</tspan></tspan></text></g></g><g id="SvgjsG1042" transform="translate(126.359375,165.859375)"><path id="SvgjsPath1043" d="M0 52.66666666666674Q9 52.66666666666674 9 47.40000000000007L9 31.600000000000044Q9 26.33333333333337 22 26.33333333333337Q9 26.33333333333337 9 21.0666666666667L9 5.266666666666675Q9 0 0 0 " stroke="rgba(50,50,50,1)" stroke-width="2" fill="none"></path><path id="SvgjsPath1044" d="M0 0L102.5 0L102.5 52.66666666666674L0 52.66666666666674Z " stroke="none" fill="none"></path><g id="SvgjsG1045"><text id="SvgjsText1046" font-family="微软雅黑" text-anchor="start" font-size="13px" width="76px" fill="#323232" font-weight="400" align="middle" lineHeight="125%" font-style="" opacity="1" y="15.708333333333371" transform="rotate(0)"></text></g></g><g id="SvgjsG1047"><path id="SvgjsPath1048" d="M181.0736607142859 208.52604166666674L165.71651785714295 208.52604166666674L165.71651785714295 193.359375L149.359375 193.359375 " stroke="#323232" stroke-width="2" fill="none" marker-end="url(#SvgjsMarker1049)"></path></g><g id="SvgjsG1051" transform="translate(337.7879464285721,165.85937500000028)"><path id="SvgjsPath1052" d="M0 0L100 0L100 70L0 70Z " stroke="rgba(50,50,50,1)" stroke-width="2" fill-opacity="1" fill="#ffffff"></path><g id="SvgjsG1053"><text id="SvgjsText1054" font-family="微软雅黑" text-anchor="middle" font-size="13px" width="80px" fill="#323232" font-weight="400" align="middle" lineHeight="125%" font-style="" opacity="1" y="24.375" transform="rotate(0)"></text></g></g><g id="SvgjsG1055" transform="translate(338.0351991758248,165.85937500000045)"><path id="SvgjsPath1056" d="M0 0L99.50549450549454 0L99.50549450549454 32.5L0 32.5Z " stroke="rgba(255,0,0,1)" stroke-width="2" fill-opacity="1" fill="#ffffff"></path><g id="SvgjsG1057"><text id="SvgjsText1058" font-family="微软雅黑" text-anchor="middle" font-size="13px" width="80px" fill="#323232" font-weight="400" align="middle" lineHeight="125%" font-style="" opacity="1" y="5.625" transform="rotate(0)"><tspan id="SvgjsTspan1059" dy="16" x="50"><tspan id="SvgjsTspan1060" style="text-decoration:;">区块头</tspan></tspan></text></g></g><g id="SvgjsG1061" transform="translate(337.7879464285721,198.5260416666672)"><path id="SvgjsPath1062" d="M0 0L99.75274725274727 0L99.75274725274727 20L0 20Z " stroke="rgba(255,0,0,1)" stroke-width="2" fill-opacity="1" fill="#ffffff"></path><g id="SvgjsG1063"><text id="SvgjsText1064" font-family="微软雅黑" text-anchor="middle" font-size="13px" width="80px" fill="#323232" font-weight="400" align="middle" lineHeight="125%" font-style="" opacity="1" y="-0.625" transform="rotate(0)"><tspan id="SvgjsTspan1065" dy="16" x="50"><tspan id="SvgjsTspan1066" style="text-decoration:;">前块标识</tspan></tspan></text></g></g><g id="SvgjsG1067" transform="translate(282.82996323529375,165.859375)"><path id="SvgjsPath1068" d="M0 52.66666666666674Q9 52.66666666666674 9 47.40000000000007L9 31.600000000000044Q9 26.33333333333337 22 26.33333333333337Q9 26.33333333333337 9 21.0666666666667L9 5.266666666666675Q9 0 0 0 " stroke="rgba(50,50,50,1)" stroke-width="2" fill="none"></path><path id="SvgjsPath1069" d="M0 0L102.5 0L102.5 52.66666666666674L0 52.66666666666674Z " stroke="none" fill="none"></path><g id="SvgjsG1070"><text id="SvgjsText1071" font-family="微软雅黑" text-anchor="start" font-size="13px" width="76px" fill="#323232" font-weight="400" align="middle" lineHeight="125%" font-style="" opacity="1" y="15.708333333333371" transform="rotate(0)"></text></g></g><g id="SvgjsG1072"><path id="SvgjsPath1073" d="M338.54424894958004 208.52604166666674L322.18710609243703 208.52604166666674L322.18710609243703 193.359375L305.8299632352939 193.359375 " stroke="#323232" stroke-width="2" fill="none" marker-end="url(#SvgjsMarker1074)"></path></g><g id="SvgjsG1076" transform="translate(550.7291228991606,165.8593750000008)"><path id="SvgjsPath1077" d="M0 0L100 0L100 70L0 70Z " stroke="rgba(50,50,50,1)" stroke-width="2" fill-opacity="1" fill="#ffffff"></path><g id="SvgjsG1078"><text id="SvgjsText1079" font-family="微软雅黑" text-anchor="middle" font-size="13px" width="80px" fill="#323232" font-weight="400" align="middle" lineHeight="125%" font-style="" opacity="1" y="24.375" transform="rotate(0)"></text></g></g><g id="SvgjsG1080" transform="translate(550.9763756464133,165.85937500000097)"><path id="SvgjsPath1081" d="M0 0L99.50549450549454 0L99.50549450549454 32.5L0 32.5Z " stroke="rgba(255,0,0,1)" stroke-width="2" fill-opacity="1" fill="#ffffff"></path><g id="SvgjsG1082"><text id="SvgjsText1083" font-family="微软雅黑" text-anchor="middle" font-size="13px" width="80px" fill="#323232" font-weight="400" align="middle" lineHeight="125%" font-style="" opacity="1" y="5.625" transform="rotate(0)"><tspan id="SvgjsTspan1084" dy="16" x="50"><tspan id="SvgjsTspan1085" style="text-decoration:;">区块头</tspan></tspan></text></g></g><g id="SvgjsG1086" transform="translate(550.7291228991606,198.5260416666677)"><path id="SvgjsPath1087" d="M0 0L99.75274725274727 0L99.75274725274727 20L0 20Z " stroke="rgba(255,0,0,1)" stroke-width="2" fill-opacity="1" fill="#ffffff"></path><g id="SvgjsG1088"><text id="SvgjsText1089" font-family="微软雅黑" text-anchor="middle" font-size="13px" width="80px" fill="#323232" font-weight="400" align="middle" lineHeight="125%" font-style="" opacity="1" y="-0.625" transform="rotate(0)"><tspan id="SvgjsTspan1090" dy="16" x="50"><tspan id="SvgjsTspan1091" style="text-decoration:;">前块标识</tspan></tspan></text></g></g><g id="SvgjsG1092" transform="translate(708.9644170168089,165.85937500000074)"><path id="SvgjsPath1093" d="M0 0L100 0L100 70L0 70Z " stroke="rgba(50,50,50,1)" stroke-width="2" fill-opacity="1" fill="#ffffff"></path><g id="SvgjsG1094"><text id="SvgjsText1095" font-family="微软雅黑" text-anchor="middle" font-size="13px" width="80px" fill="#323232" font-weight="400" align="middle" lineHeight="125%" font-style="" opacity="1" y="24.375" transform="rotate(0)"></text></g></g><g id="SvgjsG1096" transform="translate(709.2116697640615,165.8593750000009)"><path id="SvgjsPath1097" d="M0 0L99.50549450549454 0L99.50549450549454 32.5L0 32.5Z " stroke="rgba(255,0,0,1)" stroke-width="2" fill-opacity="1" fill="#ffffff"></path><g id="SvgjsG1098"><text id="SvgjsText1099" font-family="微软雅黑" text-anchor="middle" font-size="13px" width="80px" fill="#323232" font-weight="400" align="middle" lineHeight="125%" font-style="" opacity="1" y="5.625" transform="rotate(0)"><tspan id="SvgjsTspan1100" dy="16" x="50"><tspan id="SvgjsTspan1101" style="text-decoration:;">区块头</tspan></tspan></text></g></g><g id="SvgjsG1102" transform="translate(708.9644170168089,198.52604166666765)"><path id="SvgjsPath1103" d="M0 0L99.75274725274727 0L99.75274725274727 20L0 20Z " stroke="rgba(255,0,0,1)" stroke-width="2" fill-opacity="1" fill="#ffffff"></path><g id="SvgjsG1104"><text id="SvgjsText1105" font-family="微软雅黑" text-anchor="middle" font-size="13px" width="80px" fill="#323232" font-weight="400" align="middle" lineHeight="125%" font-style="" opacity="1" y="-0.625" transform="rotate(0)"><tspan id="SvgjsTspan1106" dy="16" x="50"><tspan id="SvgjsTspan1107" style="text-decoration:;">前块标识</tspan></tspan></text></g></g><g id="SvgjsG1108" transform="translate(651.6534926470576,165.8593750000008)"><path id="SvgjsPath1109" d="M0 52.66666666666674Q9 52.66666666666674 9 47.40000000000007L9 31.600000000000044Q9 26.33333333333337 22 26.33333333333337Q9 26.33333333333337 9 21.0666666666667L9 5.266666666666675Q9 0 0 0 " stroke="rgba(50,50,50,1)" stroke-width="2" fill="none"></path><path id="SvgjsPath1110" d="M0 0L102.5 0L102.5 52.66666666666674L0 52.66666666666674Z " stroke="none" fill="none"></path><g id="SvgjsG1111"><text id="SvgjsText1112" font-family="微软雅黑" text-anchor="start" font-size="13px" width="76px" fill="#323232" font-weight="400" align="middle" lineHeight="125%" font-style="" opacity="1" y="15.708333333333371" transform="rotate(0)"></text></g></g><g id="SvgjsG1113"><path id="SvgjsPath1114" d="M707.367778361344 208.52604166666754L691.010635504201 208.52604166666754L691.010635504201 193.3593750000008L674.6534926470579 193.3593750000008 " stroke="#323232" stroke-width="2" fill="none" marker-end="url(#SvgjsMarker1115)"></path></g><g id="SvgjsG1117" transform="translate(867.1997111344574,198.52604166666765)"><path id="SvgjsPath1118" d="M0 0L99.75274725274727 0L99.75274725274727 20L0 20Z " stroke="rgba(255,0,0,1)" stroke-width="2" fill-opacity="1" fill="#ffffff"></path><g id="SvgjsG1119"><text id="SvgjsText1120" font-family="微软雅黑" text-anchor="middle" font-size="13px" width="80px" fill="#323232" font-weight="400" align="middle" lineHeight="125%" font-style="" opacity="1" y="-0.625" transform="rotate(0)"><tspan id="SvgjsTspan1121" dy="16" x="50"><tspan id="SvgjsTspan1122" style="text-decoration:;">区块链标识</tspan></tspan></text></g></g><g id="SvgjsG1123" transform="translate(809.0652573529399,165.8593750000009)"><path id="SvgjsPath1124" d="M0 52.66666666666674Q9 52.66666666666674 9 47.40000000000007L9 31.600000000000044Q9 26.33333333333337 22 26.33333333333337Q9 26.33333333333337 9 21.0666666666667L9 5.266666666666675Q9 0 0 0 " stroke="rgba(50,50,50,1)" stroke-width="2" fill="none"></path><path id="SvgjsPath1125" d="M0 0L102.5 0L102.5 52.66666666666674L0 52.66666666666674Z " stroke="none" fill="none"></path><g id="SvgjsG1126"><text id="SvgjsText1127" font-family="微软雅黑" text-anchor="start" font-size="13px" width="76px" fill="#323232" font-weight="400" align="middle" lineHeight="125%" font-style="" opacity="1" y="15.708333333333371" transform="rotate(0)"></text></g></g><g id="SvgjsG1128"><path id="SvgjsPath1129" d="M864.7795430672263 208.52604166666765L848.4224002100832 208.52604166666765L848.4224002100832 193.3593750000009L832.0652573529403 193.3593750000009 " stroke="#323232" stroke-width="2" fill="none" marker-end="url(#SvgjsMarker1130)"></path></g></svg>