<svg id="SvgjsSvg1000" xmlns="http://www.w3.org/2000/svg" version="1.1" xmlns:xlink="http://www.w3.org/1999/xlink" xmlns:svgjs="http://svgjs.com/svgjs" width="837.078125" height="211.609375"><defs id="SvgjsDefs1001"><marker id="SvgjsMarker1023" markerWidth="14" markerHeight="10" refX="10" refY="5" viewBox="0 0 14 10" orient="auto" markerUnits="userSpaceOnUse" stroke-dasharray="0,0"><path id="SvgjsPath1024" d="M0 0L14 5L0 10L0 0 " fill="#323232" stroke="#323232" stroke-width="1"></path></marker><marker id="SvgjsMarker1027" markerWidth="14" markerHeight="10" refX="10" refY="5" viewBox="0 0 14 10" orient="auto" markerUnits="userSpaceOnUse" stroke-dasharray="0,0"><path id="SvgjsPath1028" d="M0 0L14 5L0 10L0 0 " fill="#323232" stroke="#323232" stroke-width="1"></path></marker><marker id="SvgjsMarker1031" markerWidth="14" markerHeight="10" refX="10" refY="5" viewBox="0 0 14 10" orient="auto" markerUnits="userSpaceOnUse" stroke-dasharray="0,0"><path id="SvgjsPath1032" d="M0 0L14 5L0 10L0 0 " fill="#323232" stroke="#323232" stroke-width="1"></path></marker><marker id="SvgjsMarker1041" markerWidth="14" markerHeight="10" refX="10" refY="5" viewBox="0 0 14 10" orient="auto" markerUnits="userSpaceOnUse" stroke-dasharray="0,0"><path id="SvgjsPath1042" d="M0 0L14 5L0 10L0 0 " fill="#323232" stroke="#323232" stroke-width="1"></path></marker><marker id="SvgjsMarker1098" markerWidth="14" markerHeight="10" refX="10" refY="5" viewBox="0 0 14 10" orient="auto" markerUnits="userSpaceOnUse" stroke-dasharray="0,0"><path id="SvgjsPath1099" d="M0 0L14 5L0 10L0 0 " fill="#323232" stroke="#323232" stroke-width="1"></path></marker><marker id="SvgjsMarker1104" markerWidth="14" markerHeight="10" refX="10" refY="5" viewBox="0 0 14 10" orient="auto" markerUnits="userSpaceOnUse" stroke-dasharray="0,0"><path id="SvgjsPath1105" d="M0 0L14 5L0 10L0 0 " fill="#323232" stroke="#323232" stroke-width="1"></path></marker><marker id="SvgjsMarker1110" markerWidth="14" markerHeight="10" refX="10" refY="5" viewBox="0 0 14 10" orient="auto" markerUnits="userSpaceOnUse" stroke-dasharray="0,0"><path id="SvgjsPath1111" d="M0 0L14 5L0 10L0 0 " fill="#323232" stroke="#323232" stroke-width="1"></path></marker><marker id="SvgjsMarker1116" markerWidth="14" markerHeight="10" refX="10" refY="5" viewBox="0 0 14 10" orient="auto" markerUnits="userSpaceOnUse" stroke-dasharray="0,0"><path id="SvgjsPath1117" d="M0 0L14 5L0 10L0 0 " fill="#323232" stroke="#323232" stroke-width="1"></path></marker></defs><g id="SvgjsG1007" transform="translate(29.625,83.609375)"><path id="SvgjsPath1008" d="M0 0L100 0L100 70L0 70Z " stroke="rgba(50,50,50,1)" stroke-width="2" fill-opacity="1" fill="#ffffff"></path><g id="SvgjsG1009"><text id="SvgjsText1010" font-family="微软雅黑" text-anchor="middle" font-size="13px" width="80px" fill="#323232" font-weight="400" align="middle" lineHeight="125%" font-style="" opacity="1" y="24.375" transform="rotate(0)"><tspan id="SvgjsTspan1011" dy="16" x="50"><tspan id="SvgjsTspan1012" style="text-decoration:;">创世区块</tspan></tspan></text></g></g><g id="SvgjsG1013" transform="translate(185.33928571428584,83.60937499999983)"><path id="SvgjsPath1014" d="M0 0L100 0L100 70L0 70Z " stroke="rgba(50,50,50,1)" stroke-width="2" fill-opacity="1" fill="#ffffff"></path><g id="SvgjsG1015"><text id="SvgjsText1016" font-family="微软雅黑" text-anchor="middle" font-size="13px" width="80px" fill="#323232" font-weight="400" align="middle" lineHeight="125%" font-style="" opacity="1" y="24.375" transform="rotate(0)"></text></g></g><g id="SvgjsG1017" transform="translate(541.0535714285722,83.60937499999989)"><path id="SvgjsPath1018" d="M0 0L100 0L100 70L0 70Z " stroke="rgba(50,50,50,1)" stroke-width="2" fill-opacity="1" fill="#ffffff"></path><g id="SvgjsG1019"><text id="SvgjsText1020" font-family="微软雅黑" text-anchor="middle" font-size="13px" width="80px" fill="#323232" font-weight="400" align="middle" lineHeight="125%" font-style="" opacity="1" y="24.375" transform="rotate(0)"></text></g></g><g id="SvgjsG1021"><path id="SvgjsPath1022" d="M184.33928571428584 118.60937499999983L157.4821428571429 118.60937499999983L157.4821428571429 118.60937499999983L133.22500000000002 118.60937499999983 " stroke="#323232" stroke-width="2" fill="none" marker-end="url(#SvgjsMarker1023)"></path></g><g id="SvgjsG1025"><path id="SvgjsPath1026" d="M360.073979591837 118.60937499999989L322.70663265306143 118.60937499999989L322.70663265306143 118.60937499999989L288.93928571428586 118.60937499999989 " stroke="#323232" stroke-width="2" fill="none" marker-end="url(#SvgjsMarker1027)"></path></g><g id="SvgjsG1029"><path id="SvgjsPath1030" d="M540.0535714285722 118.60937499999989L510.76785714285757 118.60937499999989L510.76785714285757 118.60937499999989L480.4821428571429 118.60937499999989 " stroke="#323232" stroke-width="2" fill="none" marker-end="url(#SvgjsMarker1031)"></path></g><g id="SvgjsG1033"><path id="SvgjsPath1034" d="M458.64540816326644 118.60937499999966L421.2780612244909 118.60937499999966L421.2780612244909 118.60937499999966L383.91071428571524 118.60937499999966 " stroke-dasharray="3,3" stroke="#323232" stroke-width="4" fill="none"></path></g><g id="SvgjsG1035" transform="translate(703.6964285714299,83.60937499999989)"><path id="SvgjsPath1036" d="M0 0L100 0L100 70L0 70Z " stroke="rgba(50,50,50,1)" stroke-width="2" fill-opacity="1" fill="#ffffff"></path><g id="SvgjsG1037"><text id="SvgjsText1038" font-family="微软雅黑" text-anchor="middle" font-size="13px" width="80px" fill="#323232" font-weight="400" align="middle" lineHeight="125%" font-style="" opacity="1" y="24.375" transform="rotate(0)"></text></g></g><g id="SvgjsG1039"><path id="SvgjsPath1040" d="M702.6964285714299 118.60937499999989L672.3750000000011 118.60937499999989L672.3750000000011 118.60937499999989L644.6535714285723 118.60937499999989 " stroke="#323232" stroke-width="2" fill="none" marker-end="url(#SvgjsMarker1041)"></path></g><g id="SvgjsG1043" transform="matrix(6.123233995736766e-17,1,-1,6.123233995736766e-17,804.0535818246694,32.037949558579314)"><path id="SvgjsPath1044" d="M44.90476190476201 0Q40.41428571428581 0 40.41428571428581 9L40.41428571428581 378.89377289377285Q40.41428571428581 387.89377289377285 22.90476190476201 387.89377289377285Q40.41428571428581 387.89377289377285 40.41428571428581 396.89377289377285L40.41428571428581 766.7875457875457Q40.41428571428581 775.7875457875457 44.90476190476201 775.7875457875457 " stroke="rgba(50,50,50,1)" stroke-width="2" fill="none"></path><path id="SvgjsPath1045" d="M0 0L44.90476190476201 0L44.90476190476201 775.7875457875457L0 775.7875457875457Z " stroke="none" fill="none"></path><g id="SvgjsG1046"><text id="SvgjsText1047" font-family="微软雅黑" text-anchor="end" font-size="13px" width="18px" fill="#323232" font-weight="400" align="middle" lineHeight="125%" font-style="" opacity="1" y="377.26877289377285" transform="rotate(0)"></text></g></g><g id="SvgjsG1048" transform="translate(318.5041208791216,25.004979395604664)"><path id="SvgjsPath1049" d="M0 0L192.94871794871824 0L192.94871794871824 29.230769230769226L0 29.230769230769226Z " stroke="none" fill="none"></path><g id="SvgjsG1050"><text id="SvgjsText1051" font-family="微软雅黑" text-anchor="middle" font-size="13px" width="193px" fill="#323232" font-weight="400" align="middle" lineHeight="125%" font-style="" opacity="1" y="3.990384615384613" transform="rotate(0)"><tspan id="SvgjsTspan1052" dy="16" x="96.5"><tspan id="SvgjsTspan1053" style="text-decoration:;">区块的高度，即区块的多少</tspan></tspan></text></g></g><g id="SvgjsG1054" transform="translate(25.00961538461533,165.60937499999994)"><path id="SvgjsPath1055" d="M0 0L109.23076923076923 0L109.23076923076923 20.769230769230774L0 20.769230769230774Z " stroke="none" fill="none"></path><g id="SvgjsG1056"><text id="SvgjsText1057" font-family="微软雅黑" text-anchor="middle" font-size="13px" width="110px" fill="#323232" font-weight="400" align="middle" lineHeight="125%" font-style="" opacity="1" y="-0.2403846153846132" transform="rotate(0)"><tspan id="SvgjsTspan1058" dy="16" x="55"><tspan id="SvgjsTspan1059" style="text-decoration:;">sha256(区块头)</tspan></tspan></text></g></g><g id="SvgjsG1060" transform="translate(177.6874638519377,165.609375)"><path id="SvgjsPath1061" d="M0 0L109.23076923076923 0L109.23076923076923 20.769230769230774L0 20.769230769230774Z " stroke="none" fill="none"></path><g id="SvgjsG1062"><text id="SvgjsText1063" font-family="微软雅黑" text-anchor="middle" font-size="13px" width="110px" fill="#323232" font-weight="400" align="middle" lineHeight="125%" font-style="" opacity="1" y="-0.2403846153846132" transform="rotate(0)"><tspan id="SvgjsTspan1064" dy="16" x="55"><tspan id="SvgjsTspan1065" style="text-decoration:;">sha256(区块头)</tspan></tspan></text></g></g><g id="SvgjsG1066" transform="translate(185.58653846153857,83.609375)"><path id="SvgjsPath1067" d="M0 0L99.75274725274727 0L99.75274725274727 20L0 20Z " stroke="rgba(50,50,50,1)" stroke-width="2" fill-opacity="1" fill="#ffffff"></path><g id="SvgjsG1068"><text id="SvgjsText1069" font-family="微软雅黑" text-anchor="middle" font-size="13px" width="80px" fill="#323232" font-weight="400" align="middle" lineHeight="125%" font-style="" opacity="1" y="-0.625" transform="rotate(0)"><tspan id="SvgjsTspan1070" dy="16" x="50"><tspan id="SvgjsTspan1071" style="text-decoration:;">前块标识</tspan></tspan></text></g></g><g id="SvgjsG1072" transform="translate(541.5865384615386,83.60937499999989)"><path id="SvgjsPath1073" d="M0 0L99.75274725274727 0L99.75274725274727 20L0 20Z " stroke="rgba(50,50,50,1)" stroke-width="2" fill-opacity="1" fill="#ffffff"></path><g id="SvgjsG1074"><text id="SvgjsText1075" font-family="微软雅黑" text-anchor="middle" font-size="13px" width="80px" fill="#323232" font-weight="400" align="middle" lineHeight="125%" font-style="" opacity="1" y="-0.625" transform="rotate(0)"><tspan id="SvgjsTspan1076" dy="16" x="50"><tspan id="SvgjsTspan1077" style="text-decoration:;">前块标识</tspan></tspan></text></g></g><g id="SvgjsG1078" transform="translate(704.3008241758243,83.60937499999989)"><path id="SvgjsPath1079" d="M0 0L99.75274725274727 0L99.75274725274727 20L0 20Z " stroke="rgba(50,50,50,1)" stroke-width="2" fill-opacity="1" fill="#ffffff"></path><g id="SvgjsG1080"><text id="SvgjsText1081" font-family="微软雅黑" text-anchor="middle" font-size="13px" width="80px" fill="#323232" font-weight="400" align="middle" lineHeight="125%" font-style="" opacity="1" y="-0.625" transform="rotate(0)"><tspan id="SvgjsTspan1082" dy="16" x="50"><tspan id="SvgjsTspan1083" style="text-decoration:;">前块标识</tspan></tspan></text></g></g><g id="SvgjsG1084" transform="translate(536.4381868131876,165.60937500000006)"><path id="SvgjsPath1085" d="M0 0L109.23076923076923 0L109.23076923076923 20.769230769230774L0 20.769230769230774Z " stroke="none" fill="none"></path><g id="SvgjsG1086"><text id="SvgjsText1087" font-family="微软雅黑" text-anchor="middle" font-size="13px" width="110px" fill="#323232" font-weight="400" align="middle" lineHeight="125%" font-style="" opacity="1" y="-0.2403846153846132" transform="rotate(0)"><tspan id="SvgjsTspan1088" dy="16" x="55"><tspan id="SvgjsTspan1089" style="text-decoration:;">sha256(区块头)</tspan></tspan></text></g></g><g id="SvgjsG1090" transform="translate(703.0865384615386,165.60937500000006)"><path id="SvgjsPath1091" d="M0 0L109.23076923076923 0L109.23076923076923 20.769230769230774L0 20.769230769230774Z " stroke="none" fill="none"></path><g id="SvgjsG1092"><text id="SvgjsText1093" font-family="微软雅黑" text-anchor="middle" font-size="13px" width="110px" fill="#323232" font-weight="400" align="middle" lineHeight="125%" font-style="" opacity="1" y="-0.2403846153846132" transform="rotate(0)"><tspan id="SvgjsTspan1094" dy="16" x="55"><tspan id="SvgjsTspan1095" style="text-decoration:;">sha256(区块头)</tspan></tspan></text></g></g><g id="SvgjsG1096"><path id="SvgjsPath1097" d="M155.625 176.609375L155.625 93.609375L181.98653846153854 93.609375 " stroke-dasharray="3,3" stroke="#323232" stroke-width="2" fill="none" marker-end="url(#SvgjsMarker1098)"></path></g><g id="SvgjsG1100"><path id="SvgjsPath1101" d="M125.125 175.609375L141.07829670329693 175.609375L141.07829670329693 175.609375L157.0315934065938 175.609375 " stroke-dasharray="3,3" stroke="#323232" stroke-width="2" fill="none"></path></g><g id="SvgjsG1102"><path id="SvgjsPath1103" d="M309.625 177.609375L309.625 94.609375L339.58653846153857 94.609375 " stroke-dasharray="3,3" stroke="#323232" stroke-width="2" fill="none" marker-end="url(#SvgjsMarker1104)"></path></g><g id="SvgjsG1106"><path id="SvgjsPath1107" d="M279.125 176.609375L295.0782967032969 176.609375L295.0782967032969 176.609375L311.03159340659386 176.609375 " stroke-dasharray="3,3" stroke="#323232" stroke-width="2" fill="none"></path></g><g id="SvgjsG1108"><path id="SvgjsPath1109" d="M668.125 177.109375L668.125 94.109375L698.0865384615386 94.109375 " stroke-dasharray="3,3" stroke="#323232" stroke-width="2" fill="none" marker-end="url(#SvgjsMarker1110)"></path></g><g id="SvgjsG1112"><path id="SvgjsPath1113" d="M637.625 176.109375L653.5782967032969 176.109375L653.5782967032969 176.109375L669.5315934065939 176.109375 " stroke-dasharray="3,3" stroke="#323232" stroke-width="2" fill="none"></path></g><g id="SvgjsG1114"><path id="SvgjsPath1115" d="M510.9821428571415 177.1093749999999L510.9821428571415 94.10937499999989L540.9436813186801 94.10937499999989 " stroke-dasharray="3,3" stroke="#323232" stroke-width="2" fill="none" marker-end="url(#SvgjsMarker1116)"></path></g><g id="SvgjsG1118"><path id="SvgjsPath1119" d="M480.4821428571415 176.1093749999999L496.43543956043845 176.1093749999999L496.43543956043845 176.1093749999999L512.3887362637354 176.1093749999999 " stroke-dasharray="3,3" stroke="#323232" stroke-width="2" fill="none"></path></g></svg>