<svg xmlns:xlink="http://www.w3.org/1999/xlink" height="263" width="612" viewBox="0 0 612 263" xmlns="http://www.w3.org/2000/svg" xmlns:ev="http://www.w3.org/2001/xml-events"><defs/><g id="page1" transform="translate(5.5,5.5)"><rect height="253" x="0" width="602" fill="#ffffff" y="0"/><g id="shape1" transform="translate(39.259843,38.850394)"><path fill-rule="nonzero" stroke="#101843" d="M.0,.0L46.0,.0L46.0,52.0L.0,52.0L.0,.0z" stroke-width="1" fill="#ffffff"/><text xml:space="preserve" style="fill:#191919;font-family:Microsoft YaHei;font-size:10.00pt"><tspan x="19.2" y="32.0">1</tspan></text></g><path fill-rule="nonzero" stroke="#101843" d="M.0,.0L46.0,.0L46.0,52.0L.0,52.0L.0,.0z" stroke-width="1" id="shape2" transform="translate(84.259843,38.850394)" fill="#ffffff"/><g id="shape3" transform="translate(201.759843,38.850394)"><path fill-rule="nonzero" stroke="#101843" d="M.0,.0L46.0,.0L46.0,52.0L.0,52.0L.0,.0z" stroke-width="1" fill="#ffffff"/><text xml:space="preserve" style="fill:#191919;font-family:Microsoft YaHei;font-size:10.00pt"><tspan x="19.2" y="32.0">2</tspan></text></g><path fill-rule="nonzero" stroke="#101843" d="M.0,.0L46.0,.0L46.0,52.0L.0,52.0L.0,.0z" stroke-width="1" id="shape4" transform="translate(246.759843,38.850394)" fill="#ffffff"/><g id="shape5" transform="translate(361.259843,38.850394)"><path fill-rule="nonzero" stroke="#101843" d="M.0,.0L46.0,.0L46.0,52.0L.0,52.0L.0,.0z" stroke-width="1" fill="#ffffff"/><text xml:space="preserve" style="fill:#191919;font-family:Microsoft YaHei;font-size:10.00pt"><tspan x="19.2" y="32.0">3</tspan></text></g><path fill-rule="nonzero" stroke="#101843" d="M.0,.0L46.0,.0L46.0,52.0L.0,52.0L.0,.0z" stroke-width="1" id="shape6" transform="translate(406.259843,38.850394)" fill="#ffffff"/><g id="shape7" transform="translate(106.259843,64.850394)"><path stroke="#191919" d="M.0,.0L89.5,.0" stroke-width="1" fill="none"/><path stroke="#191919" d="M89.5,-3.0L95.5,.0L89.5,3.0L89.5,-3.0" stroke-width="1" stroke-linecap="round" fill="#191919"/></g><g id="shape8" transform="translate(270.259843,64.850394)"><path stroke="#191919" d="M.0,.0L85.0,.0" stroke-width="1" fill="none"/><path stroke="#191919" d="M85.0,-3.0L91.0,.0L85.0,3.0L85.0,-3.0" stroke-width="1" stroke-linecap="round" fill="#191919"/></g><g id="shape9" transform="translate(429.259843,64.850394)"><path stroke="#191919" d="M.0,.0L82.0,.0" stroke-width="1" fill="none"/><path stroke="#191919" d="M82.0,-3.0L88.0,.0L82.0,3.0L82.0,-3.0" stroke-width="1" stroke-linecap="round" fill="#191919"/></g><g id="shape10" transform="translate(517.259843,38.850394)"><path fill-rule="nonzero" stroke="#101843" d="M.0,.0L46.0,.0L46.0,52.0L.0,52.0L.0,.0z" stroke-width="1" fill="#ffffff"/><text xml:space="preserve" style="fill:#191919;font-family:Microsoft YaHei;font-size:10.00pt"><tspan x="14.3" y="32.0">Nil</tspan></text></g><g id="shape11" transform="translate(39.259843,162.000000)"><path fill-rule="nonzero" stroke="#101843" d="M.0,.0L46.0,.0L46.0,52.0L.0,52.0L.0,.0z" stroke-width="1" fill="#ffffff"/><text xml:space="preserve" style="fill:#191919;font-family:Microsoft YaHei;font-size:10.00pt"><tspan x="11.6" y="32.0">101</tspan></text></g><path fill-rule="nonzero" stroke="#101843" d="M.0,.0L46.0,.0L46.0,52.0L.0,52.0L.0,.0z" stroke-width="1" id="shape12" transform="translate(84.259843,162.000000)" fill="#ffffff"/><g id="shape13" transform="translate(106.000000,187.000000)"><path stroke="#191919" d="M.0,.0L118.0,.0L118.0,-91.0" stroke-width="1" fill="none"/><path stroke="#191919" d="M115.0,-91.0L118.0,-97.0L121.0,-91.0L115.0,-91.0" stroke-width="1" stroke-linecap="round" fill="#191919"/></g></g></svg>