<svg xmlns:xlink="http://www.w3.org/1999/xlink" height="140" width="612" viewBox="0 0 612 140" xmlns="http://www.w3.org/2000/svg" xmlns:ev="http://www.w3.org/2001/xml-events"><defs/><g id="page1" transform="translate(5.5,5.5)"><rect height="130" x="0" width="602" fill="#ffffff" y="0"/><g id="shape1" transform="translate(39.000000,39.000000)"><path fill-rule="nonzero" stroke="#101843" d="M.0,.0L46.0,.0L46.0,52.0L.0,52.0L.0,.0z" stroke-width="1" fill="#ffffff"/><text xml:space="preserve" style="fill:#191919;font-family:Microsoft YaHei;font-size:10.00pt"><tspan x="19.2" y="32.0">1</tspan></text></g><path fill-rule="nonzero" stroke="#101843" d="M.0,.0L46.0,.0L46.0,52.0L.0,52.0L.0,.0z" stroke-width="1" id="shape2" transform="translate(84.000000,39.000000)" fill="#ffffff"/><g id="shape3" transform="translate(201.500000,39.000000)"><path fill-rule="nonzero" stroke="#101843" d="M.0,.0L46.0,.0L46.0,52.0L.0,52.0L.0,.0z" stroke-width="1" fill="#ffffff"/><text xml:space="preserve" style="fill:#191919;font-family:Microsoft YaHei;font-size:10.00pt"><tspan x="19.2" y="32.0">2</tspan></text></g><path fill-rule="nonzero" stroke="#101843" d="M.0,.0L46.0,.0L46.0,52.0L.0,52.0L.0,.0z" stroke-width="1" id="shape4" transform="translate(246.500000,39.000000)" fill="#ffffff"/><g id="shape5" transform="translate(361.000000,39.000000)"><path fill-rule="nonzero" stroke="#101843" d="M.0,.0L46.0,.0L46.0,52.0L.0,52.0L.0,.0z" stroke-width="1" fill="#ffffff"/><text xml:space="preserve" style="fill:#191919;font-family:Microsoft YaHei;font-size:10.00pt"><tspan x="19.2" y="32.0">3</tspan></text></g><path fill-rule="nonzero" stroke="#101843" d="M.0,.0L46.0,.0L46.0,52.0L.0,52.0L.0,.0z" stroke-width="1" id="shape6" transform="translate(406.000000,39.000000)" fill="#ffffff"/><g id="shape7" transform="translate(106.000000,65.000000)"><path stroke="#191919" d="M.0,.0L89.0,.0" stroke-width="1" fill="none"/><path stroke="#191919" d="M89.0,-3.0L95.0,.0L89.0,3.0L89.0,-3.0" stroke-width="1" stroke-linecap="round" fill="#191919"/></g><g id="shape8" transform="translate(270.000000,65.000000)"><path stroke="#191919" d="M.0,.0L85.0,.0" stroke-width="1" fill="none"/><path stroke="#191919" d="M85.0,-3.0L91.0,.0L85.0,3.0L85.0,-3.0" stroke-width="1" stroke-linecap="round" fill="#191919"/></g><g id="shape9" transform="translate(429.000000,65.000000)"><path stroke="#191919" d="M.0,.0L82.0,.0" stroke-width="1" fill="none"/><path stroke="#191919" d="M82.0,-3.0L88.0,.0L82.0,3.0L82.0,-3.0" stroke-width="1" stroke-linecap="round" fill="#191919"/></g><g id="shape10" transform="translate(517.000000,39.000000)"><path fill-rule="nonzero" stroke="#101843" d="M.0,.0L46.0,.0L46.0,52.0L.0,52.0L.0,.0z" stroke-width="1" fill="#ffffff"/><text xml:space="preserve" style="fill:#191919;font-family:Microsoft YaHei;font-size:10.00pt"><tspan x="14.3" y="32.0">Nil</tspan></text></g></g></svg>