<svg id="SvgjsSvg1000" xmlns="http://www.w3.org/2000/svg" version="1.1" xmlns:xlink="http://www.w3.org/1999/xlink" xmlns:svgjs="http://svgjs.com/svgjs" width="1288" height="502.546875"><defs id="SvgjsDefs1001"><marker id="SvgjsMarker1057" markerWidth="14" markerHeight="10" refX="10" refY="5" viewBox="0 0 14 10" orient="auto" markerUnits="userSpaceOnUse" stroke-dasharray="0,0"><path id="SvgjsPath1058" d="M0 0L14 5L0 10L0 0 " fill="#323232" stroke="#323232" stroke-width="1"></path></marker><marker id="SvgjsMarker1067" markerWidth="14" markerHeight="10" refX="10" refY="5" viewBox="0 0 14 10" orient="auto" markerUnits="userSpaceOnUse" stroke-dasharray="0,0"><path id="SvgjsPath1068" d="M0 0L14 5L0 10L0 0 " fill="#323232" stroke="#323232" stroke-width="1"></path></marker><marker id="SvgjsMarker1077" markerWidth="14" markerHeight="10" refX="10" refY="5" viewBox="0 0 14 10" orient="auto" markerUnits="userSpaceOnUse" stroke-dasharray="0,0"><path id="SvgjsPath1078" d="M0 0L14 5L0 10L0 0 " fill="#323232" stroke="#323232" stroke-width="1"></path></marker><marker id="SvgjsMarker1087" markerWidth="14" markerHeight="10" refX="10" refY="5" viewBox="0 0 14 10" orient="auto" markerUnits="userSpaceOnUse" stroke-dasharray="0,0"><path id="SvgjsPath1088" d="M0 0L14 5L0 10L0 0 " fill="#323232" stroke="#323232" stroke-width="1"></path></marker><marker id="SvgjsMarker1097" markerWidth="14" markerHeight="10" refX="10" refY="5" viewBox="0 0 14 10" orient="auto" markerUnits="userSpaceOnUse" stroke-dasharray="0,0"><path id="SvgjsPath1098" d="M0 0L14 5L0 10L0 0 " fill="#323232" stroke="#323232" stroke-width="1"></path></marker><marker id="SvgjsMarker1107" markerWidth="14" markerHeight="10" refX="10" refY="5" viewBox="0 0 14 10" orient="auto" markerUnits="userSpaceOnUse" stroke-dasharray="0,0"><path id="SvgjsPath1108" d="M0 0L14 5L0 10L0 0 " fill="#323232" stroke="#323232" stroke-width="1"></path></marker><marker id="SvgjsMarker1117" markerWidth="14" markerHeight="10" refX="10" refY="5" viewBox="0 0 14 10" orient="auto" markerUnits="userSpaceOnUse" stroke-dasharray="0,0"><path id="SvgjsPath1118" d="M0 0L14 5L0 10L0 0 " fill="#323232" stroke="#323232" stroke-width="1"></path></marker><marker id="SvgjsMarker1127" markerWidth="14" markerHeight="10" refX="10" refY="5" viewBox="0 0 14 10" orient="auto" markerUnits="userSpaceOnUse" stroke-dasharray="0,0"><path id="SvgjsPath1128" d="M0 0L14 5L0 10L0 0 " fill="#323232" stroke="#323232" stroke-width="1"></path></marker><marker id="SvgjsMarker1143" markerWidth="14" markerHeight="10" refX="10" refY="5" viewBox="0 0 14 10" orient="auto" markerUnits="userSpaceOnUse" stroke-dasharray="0,0"><path id="SvgjsPath1144" d="M0 0L14 5L0 10L0 0 " fill="#323232" stroke="#323232" stroke-width="1"></path></marker><marker id="SvgjsMarker1147" markerWidth="14" markerHeight="10" refX="10" refY="5" viewBox="0 0 14 10" orient="auto" markerUnits="userSpaceOnUse" stroke-dasharray="0,0"><path id="SvgjsPath1148" d="M0 0L14 5L0 10L0 0 " fill="#323232" stroke="#323232" stroke-width="1"></path></marker><marker id="SvgjsMarker1157" markerWidth="14" markerHeight="10" refX="10" refY="5" viewBox="0 0 14 10" orient="auto" markerUnits="userSpaceOnUse" stroke-dasharray="0,0"><path id="SvgjsPath1158" d="M0 0L14 5L0 10L0 0 " fill="#323232" stroke="#323232" stroke-width="1"></path></marker><marker id="SvgjsMarker1161" markerWidth="14" markerHeight="10" refX="10" refY="5" viewBox="0 0 14 10" orient="auto" markerUnits="userSpaceOnUse" stroke-dasharray="0,0"><path id="SvgjsPath1162" d="M0 0L14 5L0 10L0 0 " fill="#323232" stroke="#323232" stroke-width="1"></path></marker><marker id="SvgjsMarker1171" markerWidth="14" markerHeight="10" refX="10" refY="5" viewBox="0 0 14 10" orient="auto" markerUnits="userSpaceOnUse" stroke-dasharray="0,0"><path id="SvgjsPath1172" d="M0 0L14 5L0 10L0 0 " fill="#323232" stroke="#323232" stroke-width="1"></path></marker><marker id="SvgjsMarker1175" markerWidth="14" markerHeight="10" refX="10" refY="5" viewBox="0 0 14 10" orient="auto" markerUnits="userSpaceOnUse" stroke-dasharray="0,0"><path id="SvgjsPath1176" d="M0 0L14 5L0 10L0 0 " fill="#323232" stroke="#323232" stroke-width="1"></path></marker><marker id="SvgjsMarker1185" markerWidth="14" markerHeight="10" refX="10" refY="5" viewBox="0 0 14 10" orient="auto" markerUnits="userSpaceOnUse" stroke-dasharray="0,0"><path id="SvgjsPath1186" d="M0 0L14 5L0 10L0 0 " fill="#323232" stroke="#323232" stroke-width="1"></path></marker><marker id="SvgjsMarker1189" markerWidth="14" markerHeight="10" refX="10" refY="5" viewBox="0 0 14 10" orient="auto" markerUnits="userSpaceOnUse" stroke-dasharray="0,0"><path id="SvgjsPath1190" d="M0 0L14 5L0 10L0 0 " fill="#323232" stroke="#323232" stroke-width="1"></path></marker><marker id="SvgjsMarker1199" markerWidth="14" markerHeight="10" refX="10" refY="5" viewBox="0 0 14 10" orient="auto" markerUnits="userSpaceOnUse" stroke-dasharray="0,0"><path id="SvgjsPath1200" d="M0 0L14 5L0 10L0 0 " fill="#323232" stroke="#323232" stroke-width="1"></path></marker><marker id="SvgjsMarker1203" markerWidth="14" markerHeight="10" refX="10" refY="5" viewBox="0 0 14 10" orient="auto" markerUnits="userSpaceOnUse" stroke-dasharray="0,0"><path id="SvgjsPath1204" d="M0 0L14 5L0 10L0 0 " fill="#323232" stroke="#323232" stroke-width="1"></path></marker><marker id="SvgjsMarker1213" markerWidth="14" markerHeight="10" refX="10" refY="5" viewBox="0 0 14 10" orient="auto" markerUnits="userSpaceOnUse" stroke-dasharray="0,0"><path id="SvgjsPath1214" d="M0 0L14 5L0 10L0 0 " fill="#323232" stroke="#323232" stroke-width="1"></path></marker><marker id="SvgjsMarker1217" markerWidth="14" markerHeight="10" refX="10" refY="5" viewBox="0 0 14 10" orient="auto" markerUnits="userSpaceOnUse" stroke-dasharray="0,0"><path id="SvgjsPath1218" d="M0 0L14 5L0 10L0 0 " fill="#323232" stroke="#323232" stroke-width="1"></path></marker><marker id="SvgjsMarker1229" markerWidth="14" markerHeight="10" refX="10" refY="5" viewBox="0 0 14 10" orient="auto" markerUnits="userSpaceOnUse" stroke-dasharray="0,0"><path id="SvgjsPath1230" d="M0 0L14 5L0 10L0 0 " fill="#323232" stroke="#323232" stroke-width="1"></path></marker><marker id="SvgjsMarker1233" markerWidth="14" markerHeight="10" refX="10" refY="5" viewBox="0 0 14 10" orient="auto" markerUnits="userSpaceOnUse" stroke-dasharray="0,0"><path id="SvgjsPath1234" d="M0 0L14 5L0 10L0 0 " fill="#323232" stroke="#323232" stroke-width="1"></path></marker></defs><g id="SvgjsG1007" transform="translate(663.0032051282044,426.55729166666606)"><path id="SvgjsPath1008" d="M0 0L113.03846153846143 0L113.03846153846143 51L0 51Z " stroke="rgba(50,50,50,1)" stroke-width="2" fill-opacity="1" fill="#ffffff"></path><g id="SvgjsG1009"><text id="SvgjsText1010" font-family="微软雅黑" text-anchor="middle" font-size="13px" width="94px" fill="#323232" font-weight="400" align="middle" lineHeight="125%" font-style="" opacity="1" y="14.875" transform="rotate(0)"><tspan id="SvgjsTspan1011" dy="16" x="57"><tspan id="SvgjsTspan1012" style="text-decoration:;">交易数据</tspan></tspan></text></g></g><g id="SvgjsG1013" transform="translate(821.0032051282045,426.55729166666606)"><path id="SvgjsPath1014" d="M0 0L113.03846153846143 0L113.03846153846143 51L0 51Z " stroke="rgba(50,50,50,1)" stroke-width="2" fill-opacity="1" fill="#ffffff"></path><g id="SvgjsG1015"><text id="SvgjsText1016" font-family="微软雅黑" text-anchor="middle" font-size="13px" width="94px" fill="#323232" font-weight="400" align="middle" lineHeight="125%" font-style="" opacity="1" y="14.875" transform="rotate(0)"><tspan id="SvgjsTspan1017" dy="16" x="57"><tspan id="SvgjsTspan1018" style="text-decoration:;">交易数据</tspan></tspan></text></g></g><g id="SvgjsG1019" transform="translate(992.0032051282069,426.55729166666606)"><path id="SvgjsPath1020" d="M0 0L113.03846153846143 0L113.03846153846143 51L0 51Z " stroke="rgba(50,50,50,1)" stroke-width="2" fill-opacity="1" fill="#ffffff"></path><g id="SvgjsG1021"><text id="SvgjsText1022" font-family="微软雅黑" text-anchor="middle" font-size="13px" width="94px" fill="#323232" font-weight="400" align="middle" lineHeight="125%" font-style="" opacity="1" y="14.875" transform="rotate(0)"><tspan id="SvgjsTspan1023" dy="16" x="57"><tspan id="SvgjsTspan1024" style="text-decoration:;">交易数据</tspan></tspan></text></g></g><g id="SvgjsG1025" transform="translate(1150.003205128207,426.55729166666606)"><path id="SvgjsPath1026" d="M0 0L113.03846153846143 0L113.03846153846143 51L0 51Z " stroke="rgba(50,50,50,1)" stroke-width="2" fill-opacity="1" fill="#ffffff"></path><g id="SvgjsG1027"><text id="SvgjsText1028" font-family="微软雅黑" text-anchor="middle" font-size="13px" width="94px" fill="#323232" font-weight="400" align="middle" lineHeight="125%" font-style="" opacity="1" y="14.875" transform="rotate(0)"><tspan id="SvgjsTspan1029" dy="16" x="57"><tspan id="SvgjsTspan1030" style="text-decoration:;">交易数据</tspan></tspan></text></g></g><g id="SvgjsG1031" transform="translate(25.00320512820535,426.55729166666606)"><path id="SvgjsPath1032" d="M0 0L113.03846153846143 0L113.03846153846143 51L0 51Z " stroke="rgba(50,50,50,1)" stroke-width="2" fill-opacity="1" fill="#ffffff"></path><g id="SvgjsG1033"><text id="SvgjsText1034" font-family="微软雅黑" text-anchor="middle" font-size="13px" width="94px" fill="#323232" font-weight="400" align="middle" lineHeight="125%" font-style="" opacity="1" y="14.875" transform="rotate(0)"><tspan id="SvgjsTspan1035" dy="16" x="57"><tspan id="SvgjsTspan1036" style="text-decoration:;">交易数据</tspan></tspan></text></g></g><g id="SvgjsG1037" transform="translate(183.00320512820537,426.55729166666606)"><path id="SvgjsPath1038" d="M0 0L113.03846153846143 0L113.03846153846143 51L0 51Z " stroke="rgba(50,50,50,1)" stroke-width="2" fill-opacity="1" fill="#ffffff"></path><g id="SvgjsG1039"><text id="SvgjsText1040" font-family="微软雅黑" text-anchor="middle" font-size="13px" width="94px" fill="#323232" font-weight="400" align="middle" lineHeight="125%" font-style="" opacity="1" y="14.875" transform="rotate(0)"><tspan id="SvgjsTspan1041" dy="16" x="57"><tspan id="SvgjsTspan1042" style="text-decoration:;">交易数据</tspan></tspan></text></g></g><g id="SvgjsG1043" transform="translate(354.0032051282057,426.55729166666606)"><path id="SvgjsPath1044" d="M0 0L113.03846153846143 0L113.03846153846143 51L0 51Z " stroke="rgba(50,50,50,1)" stroke-width="2" fill-opacity="1" fill="#ffffff"></path><g id="SvgjsG1045"><text id="SvgjsText1046" font-family="微软雅黑" text-anchor="middle" font-size="13px" width="94px" fill="#323232" font-weight="400" align="middle" lineHeight="125%" font-style="" opacity="1" y="14.875" transform="rotate(0)"><tspan id="SvgjsTspan1047" dy="16" x="57"><tspan id="SvgjsTspan1048" style="text-decoration:;">交易数据</tspan></tspan></text></g></g><g id="SvgjsG1049" transform="translate(512.0032051282044,426.55729166666606)"><path id="SvgjsPath1050" d="M0 0L113.03846153846143 0L113.03846153846143 51L0 51Z " stroke="rgba(50,50,50,1)" stroke-width="2" fill-opacity="1" fill="#ffffff"></path><g id="SvgjsG1051"><text id="SvgjsText1052" font-family="微软雅黑" text-anchor="middle" font-size="13px" width="94px" fill="#323232" font-weight="400" align="middle" lineHeight="125%" font-style="" opacity="1" y="14.875" transform="rotate(0)"><tspan id="SvgjsTspan1053" dy="16" x="57"><tspan id="SvgjsTspan1054" style="text-decoration:;">交易数据</tspan></tspan></text></g></g><g id="SvgjsG1055"><path id="SvgjsPath1056" d="M81.52243589743608 425.55729166666606L81.52243589743608 409.22395833333303L81.52243589743608 409.22395833333303L81.52243589743608 395.490625 " stroke="#323232" stroke-width="2" fill="none" marker-end="url(#SvgjsMarker1057)"></path></g><g id="SvgjsG1059" transform="translate(31.522435897436083,341.890625)"><path id="SvgjsPath1060" d="M16.666666666666668 0L83.33333333333333 0C105.55555555555556 0 105.55555555555556 50 83.33333333333333 50L16.666666666666668 50C-5.555555555555556 50 -5.555555555555556 0 16.666666666666668 0Z " stroke="rgba(50,50,50,1)" stroke-width="2" fill-opacity="1" fill="#ffffff"></path><g id="SvgjsG1061"><text id="SvgjsText1062" font-family="微软雅黑" text-anchor="middle" font-size="13px" width="80px" fill="#323232" font-weight="400" align="middle" lineHeight="125%" font-style="" opacity="1" y="14.375" transform="rotate(0)"><tspan id="SvgjsTspan1063" dy="16" x="50"><tspan id="SvgjsTspan1064" style="text-decoration:;">sha256</tspan></tspan></text></g></g><g id="SvgjsG1065"><path id="SvgjsPath1066" d="M239.04166666666356 426.5572916666664L239.04166666666356 409.22395833333337L239.04166666666356 409.22395833333337L239.04166666666356 395.49062500000036 " stroke="#323232" stroke-width="2" fill="none" marker-end="url(#SvgjsMarker1067)"></path></g><g id="SvgjsG1069" transform="translate(189.04166666666356,341.89062500000034)"><path id="SvgjsPath1070" d="M16.666666666666668 0L83.33333333333333 0C105.55555555555556 0 105.55555555555556 50 83.33333333333333 50L16.666666666666668 50C-5.555555555555556 50 -5.555555555555556 0 16.666666666666668 0Z " stroke="rgba(50,50,50,1)" stroke-width="2" fill-opacity="1" fill="#ffffff"></path><g id="SvgjsG1071"><text id="SvgjsText1072" font-family="微软雅黑" text-anchor="middle" font-size="13px" width="80px" fill="#323232" font-weight="400" align="middle" lineHeight="125%" font-style="" opacity="1" y="14.375" transform="rotate(0)"><tspan id="SvgjsTspan1073" dy="16" x="50"><tspan id="SvgjsTspan1074" style="text-decoration:;">sha256</tspan></tspan></text></g></g><g id="SvgjsG1075"><path id="SvgjsPath1076" d="M410.52243589743654 426.5572916666662L410.52243589743654 409.22395833333314L410.52243589743654 409.22395833333314L410.52243589743654 395.49062500000014 " stroke="#323232" stroke-width="2" fill="none" marker-end="url(#SvgjsMarker1077)"></path></g><g id="SvgjsG1079" transform="translate(360.52243589743654,341.8906250000001)"><path id="SvgjsPath1080" d="M16.666666666666668 0L83.33333333333333 0C105.55555555555556 0 105.55555555555556 50 83.33333333333333 50L16.666666666666668 50C-5.555555555555556 50 -5.555555555555556 0 16.666666666666668 0Z " stroke="rgba(50,50,50,1)" stroke-width="2" fill-opacity="1" fill="#ffffff"></path><g id="SvgjsG1081"><text id="SvgjsText1082" font-family="微软雅黑" text-anchor="middle" font-size="13px" width="80px" fill="#323232" font-weight="400" align="middle" lineHeight="125%" font-style="" opacity="1" y="14.375" transform="rotate(0)"><tspan id="SvgjsTspan1083" dy="16" x="50"><tspan id="SvgjsTspan1084" style="text-decoration:;">sha256</tspan></tspan></text></g></g><g id="SvgjsG1085"><path id="SvgjsPath1086" d="M568.0416666666658 426.55729166666606L568.0416666666658 409.22395833333303L568.0416666666658 409.22395833333303L568.0416666666658 395.490625 " stroke="#323232" stroke-width="2" fill="none" marker-end="url(#SvgjsMarker1087)"></path></g><g id="SvgjsG1089" transform="translate(518.0416666666657,341.890625)"><path id="SvgjsPath1090" d="M16.666666666666668 0L83.33333333333333 0C105.55555555555556 0 105.55555555555556 50 83.33333333333333 50L16.666666666666668 50C-5.555555555555556 50 -5.555555555555556 0 16.666666666666668 0Z " stroke="rgba(50,50,50,1)" stroke-width="2" fill-opacity="1" fill="#ffffff"></path><g id="SvgjsG1091"><text id="SvgjsText1092" font-family="微软雅黑" text-anchor="middle" font-size="13px" width="80px" fill="#323232" font-weight="400" align="middle" lineHeight="125%" font-style="" opacity="1" y="14.375" transform="rotate(0)"><tspan id="SvgjsTspan1093" dy="16" x="50"><tspan id="SvgjsTspan1094" style="text-decoration:;">sha256</tspan></tspan></text></g></g><g id="SvgjsG1095"><path id="SvgjsPath1096" d="M720.0032051282033 426.55729166666606L720.0032051282033 409.22395833333303L720.0032051282033 409.22395833333303L720.0032051282033 395.490625 " stroke="#323232" stroke-width="2" fill="none" marker-end="url(#SvgjsMarker1097)"></path></g><g id="SvgjsG1099" transform="translate(670.003205128203,341.890625)"><path id="SvgjsPath1100" d="M16.666666666666668 0L83.33333333333333 0C105.55555555555556 0 105.55555555555556 50 83.33333333333333 50L16.666666666666668 50C-5.555555555555556 50 -5.555555555555556 0 16.666666666666668 0Z " stroke="rgba(50,50,50,1)" stroke-width="2" fill-opacity="1" fill="#ffffff"></path><g id="SvgjsG1101"><text id="SvgjsText1102" font-family="微软雅黑" text-anchor="middle" font-size="13px" width="80px" fill="#323232" font-weight="400" align="middle" lineHeight="125%" font-style="" opacity="1" y="14.375" transform="rotate(0)"><tspan id="SvgjsTspan1103" dy="16" x="50"><tspan id="SvgjsTspan1104" style="text-decoration:;">sha256</tspan></tspan></text></g></g><g id="SvgjsG1105"><path id="SvgjsPath1106" d="M878.3365384615364 426.5572916666665L878.3365384615364 409.2239583333335L878.3365384615364 409.2239583333335L878.3365384615364 395.4906250000005 " stroke="#323232" stroke-width="2" fill="none" marker-end="url(#SvgjsMarker1107)"></path></g><g id="SvgjsG1109" transform="translate(828.3365384615362,341.89062500000045)"><path id="SvgjsPath1110" d="M16.666666666666668 0L83.33333333333333 0C105.55555555555556 0 105.55555555555556 50 83.33333333333333 50L16.666666666666668 50C-5.555555555555556 50 -5.555555555555556 0 16.666666666666668 0Z " stroke="rgba(50,50,50,1)" stroke-width="2" fill-opacity="1" fill="#ffffff"></path><g id="SvgjsG1111"><text id="SvgjsText1112" font-family="微软雅黑" text-anchor="middle" font-size="13px" width="80px" fill="#323232" font-weight="400" align="middle" lineHeight="125%" font-style="" opacity="1" y="14.375" transform="rotate(0)"><tspan id="SvgjsTspan1113" dy="16" x="50"><tspan id="SvgjsTspan1114" style="text-decoration:;">sha256</tspan></tspan></text></g></g><g id="SvgjsG1115"><path id="SvgjsPath1116" d="M1049.0032051282033 426.55729166666595L1049.0032051282033 409.2239583333329L1049.0032051282033 409.2239583333329L1049.0032051282033 395.4906249999999 " stroke="#323232" stroke-width="2" fill="none" marker-end="url(#SvgjsMarker1117)"></path></g><g id="SvgjsG1119" transform="translate(999.0032051282033,341.8906249999999)"><path id="SvgjsPath1120" d="M16.666666666666668 0L83.33333333333333 0C105.55555555555556 0 105.55555555555556 50 83.33333333333333 50L16.666666666666668 50C-5.555555555555556 50 -5.555555555555556 0 16.666666666666668 0Z " stroke="rgba(50,50,50,1)" stroke-width="2" fill-opacity="1" fill="#ffffff"></path><g id="SvgjsG1121"><text id="SvgjsText1122" font-family="微软雅黑" text-anchor="middle" font-size="13px" width="80px" fill="#323232" font-weight="400" align="middle" lineHeight="125%" font-style="" opacity="1" y="14.375" transform="rotate(0)"><tspan id="SvgjsTspan1123" dy="16" x="50"><tspan id="SvgjsTspan1124" style="text-decoration:;">sha256</tspan></tspan></text></g></g><g id="SvgjsG1125"><path id="SvgjsPath1126" d="M1207.3365384615354 426.5572916666664L1207.3365384615354 409.22395833333337L1207.3365384615354 409.22395833333337L1207.3365384615354 395.49062500000036 " stroke="#323232" stroke-width="2" fill="none" marker-end="url(#SvgjsMarker1127)"></path></g><g id="SvgjsG1129" transform="translate(1157.3365384615354,341.89062500000034)"><path id="SvgjsPath1130" d="M16.666666666666668 0L83.33333333333333 0C105.55555555555556 0 105.55555555555556 50 83.33333333333333 50L16.666666666666668 50C-5.555555555555556 50 -5.555555555555556 0 16.666666666666668 0Z " stroke="rgba(50,50,50,1)" stroke-width="2" fill-opacity="1" fill="#ffffff"></path><g id="SvgjsG1131"><text id="SvgjsText1132" font-family="微软雅黑" text-anchor="middle" font-size="13px" width="80px" fill="#323232" font-weight="400" align="middle" lineHeight="125%" font-style="" opacity="1" y="14.375" transform="rotate(0)"><tspan id="SvgjsTspan1133" dy="16" x="50"><tspan id="SvgjsTspan1134" style="text-decoration:;">sha256</tspan></tspan></text></g></g><g id="SvgjsG1135" transform="translate(110.411324786325,237.22395833333474)"><path id="SvgjsPath1136" d="M16.666666666666668 0L83.33333333333333 0C105.55555555555556 0 105.55555555555556 50 83.33333333333333 50L16.666666666666668 50C-5.555555555555556 50 -5.555555555555556 0 16.666666666666668 0Z " stroke="rgba(50,50,50,1)" stroke-width="2" fill-opacity="1" fill="#ffffff"></path><g id="SvgjsG1137"><text id="SvgjsText1138" font-family="微软雅黑" text-anchor="middle" font-size="13px" width="80px" fill="#323232" font-weight="400" align="middle" lineHeight="125%" font-style="" opacity="1" y="14.375" transform="rotate(0)"><tspan id="SvgjsTspan1139" dy="16" x="50"><tspan id="SvgjsTspan1140" style="text-decoration:;">sha256</tspan></tspan></text></g></g><g id="SvgjsG1141"><path id="SvgjsPath1142" d="M81.52243589743608 340.890625L81.52243589743608 314.5572916666674L160.411324786325 314.5572916666674L160.411324786325 290.82395833333476 " stroke="#323232" stroke-width="2" fill="none" marker-end="url(#SvgjsMarker1143)"></path></g><g id="SvgjsG1145"><path id="SvgjsPath1146" d="M239.04166666666356 340.89062500000034L239.04166666666356 314.55729166666754L160.411324786325 314.55729166666754L160.411324786325 290.82395833333476 " stroke="#323232" stroke-width="2" fill="none" marker-end="url(#SvgjsMarker1147)"></path></g><g id="SvgjsG1149" transform="translate(437.07799145299134,237.22395833333474)"><path id="SvgjsPath1150" d="M16.666666666666668 0L83.33333333333333 0C105.55555555555556 0 105.55555555555556 50 83.33333333333333 50L16.666666666666668 50C-5.555555555555556 50 -5.555555555555556 0 16.666666666666668 0Z " stroke="rgba(50,50,50,1)" stroke-width="2" fill-opacity="1" fill="#ffffff"></path><g id="SvgjsG1151"><text id="SvgjsText1152" font-family="微软雅黑" text-anchor="middle" font-size="13px" width="80px" fill="#323232" font-weight="400" align="middle" lineHeight="125%" font-style="" opacity="1" y="14.375" transform="rotate(0)"><tspan id="SvgjsTspan1153" dy="16" x="50"><tspan id="SvgjsTspan1154" style="text-decoration:;">sha256</tspan></tspan></text></g></g><g id="SvgjsG1155"><path id="SvgjsPath1156" d="M408.1891025641024 341.890625L408.1891025641024 314.5572916666674L487.07799145299134 314.5572916666674L487.07799145299134 290.82395833333476 " stroke="#323232" stroke-width="2" fill="none" marker-end="url(#SvgjsMarker1157)"></path></g><g id="SvgjsG1159"><path id="SvgjsPath1160" d="M565.7083333333296 341.89062500000034L565.7083333333296 314.55729166666754L487.07799145299134 314.55729166666754L487.07799145299134 290.82395833333476 " stroke="#323232" stroke-width="2" fill="none" marker-end="url(#SvgjsMarker1161)"></path></g><g id="SvgjsG1163" transform="translate(747.0779914529913,237.22395833333508)"><path id="SvgjsPath1164" d="M16.666666666666668 0L83.33333333333333 0C105.55555555555556 0 105.55555555555556 50 83.33333333333333 50L16.666666666666668 50C-5.555555555555556 50 -5.555555555555556 0 16.666666666666668 0Z " stroke="rgba(50,50,50,1)" stroke-width="2" fill-opacity="1" fill="#ffffff"></path><g id="SvgjsG1165"><text id="SvgjsText1166" font-family="微软雅黑" text-anchor="middle" font-size="13px" width="80px" fill="#323232" font-weight="400" align="middle" lineHeight="125%" font-style="" opacity="1" y="14.375" transform="rotate(0)"><tspan id="SvgjsTspan1167" dy="16" x="50"><tspan id="SvgjsTspan1168" style="text-decoration:;">sha256</tspan></tspan></text></g></g><g id="SvgjsG1169"><path id="SvgjsPath1170" d="M718.1891025641024 341.89062500000034L718.1891025641024 314.55729166666777L797.0779914529919 314.55729166666777L797.0779914529919 290.8239583333351 " stroke="#323232" stroke-width="2" fill="none" marker-end="url(#SvgjsMarker1171)"></path></g><g id="SvgjsG1173"><path id="SvgjsPath1174" d="M875.7083333333303 341.8906250000007L875.7083333333303 314.5572916666679L797.0779914529919 314.5572916666679L797.0779914529919 290.8239583333351 " stroke="#323232" stroke-width="2" fill="none" marker-end="url(#SvgjsMarker1175)"></path></g><g id="SvgjsG1177" transform="translate(1078.1891025641016,237.22395833333496)"><path id="SvgjsPath1178" d="M16.666666666666668 0L83.33333333333333 0C105.55555555555556 0 105.55555555555556 50 83.33333333333333 50L16.666666666666668 50C-5.555555555555556 50 -5.555555555555556 0 16.666666666666668 0Z " stroke="rgba(50,50,50,1)" stroke-width="2" fill-opacity="1" fill="#ffffff"></path><g id="SvgjsG1179"><text id="SvgjsText1180" font-family="微软雅黑" text-anchor="middle" font-size="13px" width="80px" fill="#323232" font-weight="400" align="middle" lineHeight="125%" font-style="" opacity="1" y="14.375" transform="rotate(0)"><tspan id="SvgjsTspan1181" dy="16" x="50"><tspan id="SvgjsTspan1182" style="text-decoration:;">sha256</tspan></tspan></text></g></g><g id="SvgjsG1183"><path id="SvgjsPath1184" d="M1049.3002136752127 341.8906250000002L1049.3002136752127 314.55729166666765L1128.1891025641023 314.55729166666765L1128.1891025641023 290.823958333335 " stroke="#323232" stroke-width="2" fill="none" marker-end="url(#SvgjsMarker1185)"></path></g><g id="SvgjsG1187"><path id="SvgjsPath1188" d="M1206.8194444444407 341.89062500000057L1206.8194444444407 314.55729166666777L1128.1891025641023 314.55729166666777L1128.1891025641023 290.823958333335 " stroke="#323232" stroke-width="2" fill="none" marker-end="url(#SvgjsMarker1189)"></path></g><g id="SvgjsG1191" transform="translate(272.63354700854734,129.44618055555645)"><path id="SvgjsPath1192" d="M16.666666666666668 0L83.33333333333333 0C105.55555555555556 0 105.55555555555556 50 83.33333333333333 50L16.666666666666668 50C-5.555555555555556 50 -5.555555555555556 0 16.666666666666668 0Z " stroke="rgba(50,50,50,1)" stroke-width="2" fill-opacity="1" fill="#ffffff"></path><g id="SvgjsG1193"><text id="SvgjsText1194" font-family="微软雅黑" text-anchor="middle" font-size="13px" width="80px" fill="#323232" font-weight="400" align="middle" lineHeight="125%" font-style="" opacity="1" y="14.375" transform="rotate(0)"><tspan id="SvgjsTspan1195" dy="16" x="50"><tspan id="SvgjsTspan1196" style="text-decoration:;">sha256</tspan></tspan></text></g></g><g id="SvgjsG1197"><path id="SvgjsPath1198" d="M160.411324786325 236.22395833333474L160.411324786325 208.3350694444456L322.63354700854734 208.3350694444456L322.63354700854734 183.04618055555648 " stroke="#323232" stroke-width="2" fill="none" marker-end="url(#SvgjsMarker1199)"></path></g><g id="SvgjsG1201"><path id="SvgjsPath1202" d="M487.07799145299134 236.22395833333474L487.07799145299134 208.3350694444456L322.63354700854734 208.3350694444456L322.63354700854734 183.04618055555648 " stroke="#323232" stroke-width="2" fill="none" marker-end="url(#SvgjsMarker1203)"></path></g><g id="SvgjsG1205" transform="translate(908.1891025641027,129.44618055555645)"><path id="SvgjsPath1206" d="M16.666666666666668 0L83.33333333333333 0C105.55555555555556 0 105.55555555555556 50 83.33333333333333 50L16.666666666666668 50C-5.555555555555556 50 -5.555555555555556 0 16.666666666666668 0Z " stroke="rgba(50,50,50,1)" stroke-width="2" fill-opacity="1" fill="#ffffff"></path><g id="SvgjsG1207"><text id="SvgjsText1208" font-family="微软雅黑" text-anchor="middle" font-size="13px" width="80px" fill="#323232" font-weight="400" align="middle" lineHeight="125%" font-style="" opacity="1" y="14.375" transform="rotate(0)"><tspan id="SvgjsTspan1209" dy="16" x="50"><tspan id="SvgjsTspan1210" style="text-decoration:;">sha256</tspan></tspan></text></g></g><g id="SvgjsG1211"><path id="SvgjsPath1212" d="M795.966880341881 237.22395833333474L795.966880341881 208.3350694444456L958.1891025641025 208.3350694444456L958.1891025641025 183.04618055555648 " stroke="#323232" stroke-width="2" fill="none" marker-end="url(#SvgjsMarker1213)"></path></g><g id="SvgjsG1215"><path id="SvgjsPath1216" d="M1122.6335470085462 237.22395833333474L1122.6335470085462 208.3350694444456L958.1891025641025 208.3350694444456L958.1891025641025 183.04618055555648 " stroke="#323232" stroke-width="2" fill="none" marker-end="url(#SvgjsMarker1217)"></path></g><g id="SvgjsG1219" transform="translate(588.1891025641032,25.001736111112052)"><path id="SvgjsPath1220" d="M16.666666666666668 0L83.33333333333333 0C105.55555555555556 0 105.55555555555556 50 83.33333333333333 50L16.666666666666668 50C-5.555555555555556 50 -5.555555555555556 0 16.666666666666668 0Z " stroke="rgba(50,50,50,1)" stroke-width="2" fill-opacity="1" fill="#ffffff"></path><g id="SvgjsG1221"><text id="SvgjsText1222" font-family="微软雅黑" text-anchor="middle" font-size="13px" width="80px" fill="#323232" font-weight="400" align="middle" lineHeight="125%" font-style="" opacity="1" y="6.375" transform="rotate(0)"><tspan id="SvgjsTspan1223" dy="16" x="50"><tspan id="SvgjsTspan1224" style="text-decoration:;">默克尔</tspan></tspan><tspan id="SvgjsTspan1225" dy="16" x="50"><tspan id="SvgjsTspan1226" style="text-decoration:;">值sha256</tspan></tspan></text></g></g><g id="SvgjsG1227"><path id="SvgjsPath1228" d="M322.63354700854734 128.44618055555645L322.63354700854734 102.22395833333417L638.1891025641032 102.22395833333417L638.1891025641032 78.60173611111202 " stroke="#323232" stroke-width="2" fill="none" marker-end="url(#SvgjsMarker1229)"></path></g><g id="SvgjsG1231"><path id="SvgjsPath1232" d="M958.1891025641025 128.44618055555645L958.1891025641025 102.22395833333417L638.1891025641032 102.22395833333417L638.1891025641032 78.60173611111202 " stroke="#323232" stroke-width="2" fill="none" marker-end="url(#SvgjsMarker1233)"></path></g></svg>