<svg id="SvgjsSvg1235" xmlns="http://www.w3.org/2000/svg" version="1.1" xmlns:xlink="http://www.w3.org/1999/xlink" xmlns:svgjs="http://svgjs.com/svgjs" width="1288" height="502.546875"><defs id="SvgjsDefs1236"><marker id="SvgjsMarker1287" markerWidth="14" markerHeight="10" refX="10" refY="5" viewBox="0 0 14 10" orient="auto" markerUnits="userSpaceOnUse" stroke-dasharray="0,0"><path id="SvgjsPath1288" d="M0 0L14 5L0 10L0 0 " fill="#323232" stroke="#323232" stroke-width="1"></path></marker><marker id="SvgjsMarker1297" markerWidth="14" markerHeight="10" refX="10" refY="5" viewBox="0 0 14 10" orient="auto" markerUnits="userSpaceOnUse" stroke-dasharray="0,0"><path id="SvgjsPath1298" d="M0 0L14 5L0 10L0 0 " fill="#323232" stroke="#323232" stroke-width="1"></path></marker><marker id="SvgjsMarker1307" markerWidth="14" markerHeight="10" refX="10" refY="5" viewBox="0 0 14 10" orient="auto" markerUnits="userSpaceOnUse" stroke-dasharray="0,0"><path id="SvgjsPath1308" d="M0 0L14 5L0 10L0 0 " fill="#323232" stroke="#323232" stroke-width="1"></path></marker><marker id="SvgjsMarker1317" markerWidth="14" markerHeight="10" refX="10" refY="5" viewBox="0 0 14 10" orient="auto" markerUnits="userSpaceOnUse" stroke-dasharray="0,0"><path id="SvgjsPath1318" d="M0 0L14 5L0 10L0 0 " fill="#323232" stroke="#323232" stroke-width="1"></path></marker><marker id="SvgjsMarker1327" markerWidth="14" markerHeight="10" refX="10" refY="5" viewBox="0 0 14 10" orient="auto" markerUnits="userSpaceOnUse" stroke-dasharray="0,0"><path id="SvgjsPath1328" d="M0 0L14 5L0 10L0 0 " fill="#323232" stroke="#323232" stroke-width="1"></path></marker><marker id="SvgjsMarker1337" markerWidth="14" markerHeight="10" refX="10" refY="5" viewBox="0 0 14 10" orient="auto" markerUnits="userSpaceOnUse" stroke-dasharray="0,0"><path id="SvgjsPath1338" d="M0 0L14 5L0 10L0 0 " fill="#323232" stroke="#323232" stroke-width="1"></path></marker><marker id="SvgjsMarker1347" markerWidth="14" markerHeight="10" refX="10" refY="5" viewBox="0 0 14 10" orient="auto" markerUnits="userSpaceOnUse" stroke-dasharray="0,0"><path id="SvgjsPath1348" d="M0 0L14 5L0 10L0 0 " fill="#323232" stroke="#323232" stroke-width="1"></path></marker><marker id="SvgjsMarker1357" markerWidth="14" markerHeight="10" refX="10" refY="5" viewBox="0 0 14 10" orient="auto" markerUnits="userSpaceOnUse" stroke-dasharray="0,0"><path id="SvgjsPath1358" d="M0 0L14 5L0 10L0 0 " fill="#323232" stroke="#323232" stroke-width="1"></path></marker><marker id="SvgjsMarker1373" markerWidth="14" markerHeight="10" refX="10" refY="5" viewBox="0 0 14 10" orient="auto" markerUnits="userSpaceOnUse" stroke-dasharray="0,0"><path id="SvgjsPath1374" d="M0 0L14 5L0 10L0 0 " fill="#323232" stroke="#323232" stroke-width="1"></path></marker><marker id="SvgjsMarker1377" markerWidth="14" markerHeight="10" refX="10" refY="5" viewBox="0 0 14 10" orient="auto" markerUnits="userSpaceOnUse" stroke-dasharray="0,0"><path id="SvgjsPath1378" d="M0 0L14 5L0 10L0 0 " fill="#323232" stroke="#323232" stroke-width="1"></path></marker><marker id="SvgjsMarker1387" markerWidth="14" markerHeight="10" refX="10" refY="5" viewBox="0 0 14 10" orient="auto" markerUnits="userSpaceOnUse" stroke-dasharray="0,0"><path id="SvgjsPath1388" d="M0 0L14 5L0 10L0 0 " fill="#323232" stroke="#323232" stroke-width="1"></path></marker><marker id="SvgjsMarker1391" markerWidth="14" markerHeight="10" refX="10" refY="5" viewBox="0 0 14 10" orient="auto" markerUnits="userSpaceOnUse" stroke-dasharray="0,0"><path id="SvgjsPath1392" d="M0 0L14 5L0 10L0 0 " fill="#323232" stroke="#323232" stroke-width="1"></path></marker><marker id="SvgjsMarker1401" markerWidth="14" markerHeight="10" refX="10" refY="5" viewBox="0 0 14 10" orient="auto" markerUnits="userSpaceOnUse" stroke-dasharray="0,0"><path id="SvgjsPath1402" d="M0 0L14 5L0 10L0 0 " fill="#323232" stroke="#323232" stroke-width="1"></path></marker><marker id="SvgjsMarker1405" markerWidth="14" markerHeight="10" refX="10" refY="5" viewBox="0 0 14 10" orient="auto" markerUnits="userSpaceOnUse" stroke-dasharray="0,0"><path id="SvgjsPath1406" d="M0 0L14 5L0 10L0 0 " fill="#323232" stroke="#323232" stroke-width="1"></path></marker><marker id="SvgjsMarker1415" markerWidth="14" markerHeight="10" refX="10" refY="5" viewBox="0 0 14 10" orient="auto" markerUnits="userSpaceOnUse" stroke-dasharray="0,0"><path id="SvgjsPath1416" d="M0 0L14 5L0 10L0 0 " fill="#323232" stroke="#323232" stroke-width="1"></path></marker><marker id="SvgjsMarker1419" markerWidth="14" markerHeight="10" refX="10" refY="5" viewBox="0 0 14 10" orient="auto" markerUnits="userSpaceOnUse" stroke-dasharray="0,0"><path id="SvgjsPath1420" d="M0 0L14 5L0 10L0 0 " fill="#323232" stroke="#323232" stroke-width="1"></path></marker><marker id="SvgjsMarker1429" markerWidth="14" markerHeight="10" refX="10" refY="5" viewBox="0 0 14 10" orient="auto" markerUnits="userSpaceOnUse" stroke-dasharray="0,0"><path id="SvgjsPath1430" d="M0 0L14 5L0 10L0 0 " fill="#323232" stroke="#323232" stroke-width="1"></path></marker><marker id="SvgjsMarker1433" markerWidth="14" markerHeight="10" refX="10" refY="5" viewBox="0 0 14 10" orient="auto" markerUnits="userSpaceOnUse" stroke-dasharray="0,0"><path id="SvgjsPath1434" d="M0 0L14 5L0 10L0 0 " fill="#323232" stroke="#323232" stroke-width="1"></path></marker><marker id="SvgjsMarker1443" markerWidth="14" markerHeight="10" refX="10" refY="5" viewBox="0 0 14 10" orient="auto" markerUnits="userSpaceOnUse" stroke-dasharray="0,0"><path id="SvgjsPath1444" d="M0 0L14 5L0 10L0 0 " fill="#323232" stroke="#323232" stroke-width="1"></path></marker><marker id="SvgjsMarker1447" markerWidth="14" markerHeight="10" refX="10" refY="5" viewBox="0 0 14 10" orient="auto" markerUnits="userSpaceOnUse" stroke-dasharray="0,0"><path id="SvgjsPath1448" d="M0 0L14 5L0 10L0 0 " fill="#323232" stroke="#323232" stroke-width="1"></path></marker><marker id="SvgjsMarker1459" markerWidth="14" markerHeight="10" refX="10" refY="5" viewBox="0 0 14 10" orient="auto" markerUnits="userSpaceOnUse" stroke-dasharray="0,0"><path id="SvgjsPath1460" d="M0 0L14 5L0 10L0 0 " fill="#323232" stroke="#323232" stroke-width="1"></path></marker><marker id="SvgjsMarker1463" markerWidth="14" markerHeight="10" refX="10" refY="5" viewBox="0 0 14 10" orient="auto" markerUnits="userSpaceOnUse" stroke-dasharray="0,0"><path id="SvgjsPath1464" d="M0 0L14 5L0 10L0 0 " fill="#323232" stroke="#323232" stroke-width="1"></path></marker></defs><g id="SvgjsG1237" transform="translate(663.0032051282044,426.55729166666606)"><path id="SvgjsPath1238" d="M0 0L113.03846153846143 0L113.03846153846143 51L0 51Z " stroke="rgba(50,50,50,1)" stroke-width="2" fill-opacity="1" fill="#ffffff"></path><g id="SvgjsG1239"><text id="SvgjsText1240" font-family="微软雅黑" text-anchor="middle" font-size="13px" width="94px" fill="#323232" font-weight="400" align="middle" lineHeight="125%" font-style="" opacity="1" y="14.875" transform="rotate(0)"><tspan id="SvgjsTspan1241" dy="16" x="57"><tspan id="SvgjsTspan1242" style="text-decoration:;">交易数据</tspan></tspan></text></g></g><g id="SvgjsG1243" transform="translate(821.0032051282045,426.55729166666606)"><path id="SvgjsPath1244" d="M0 0L113.03846153846143 0L113.03846153846143 51L0 51Z " stroke="rgba(50,50,50,1)" stroke-width="2" fill-opacity="1" fill="#ffffff"></path><g id="SvgjsG1245"><text id="SvgjsText1246" font-family="微软雅黑" text-anchor="middle" font-size="13px" width="94px" fill="#323232" font-weight="400" align="middle" lineHeight="125%" font-style="" opacity="1" y="14.875" transform="rotate(0)"><tspan id="SvgjsTspan1247" dy="16" x="57"><tspan id="SvgjsTspan1248" style="text-decoration:;">交易数据</tspan></tspan></text></g></g><g id="SvgjsG1249" transform="translate(992.0032051282069,426.55729166666606)"><path id="SvgjsPath1250" d="M0 0L113.03846153846143 0L113.03846153846143 51L0 51Z " stroke="rgba(50,50,50,1)" stroke-width="2" fill-opacity="1" fill="#ffffff"></path><g id="SvgjsG1251"><text id="SvgjsText1252" font-family="微软雅黑" text-anchor="middle" font-size="13px" width="94px" fill="#323232" font-weight="400" align="middle" lineHeight="125%" font-style="" opacity="1" y="14.875" transform="rotate(0)"><tspan id="SvgjsTspan1253" dy="16" x="57"><tspan id="SvgjsTspan1254" style="text-decoration:;">交易数据</tspan></tspan></text></g></g><g id="SvgjsG1255" transform="translate(1150.003205128207,426.55729166666606)"><path id="SvgjsPath1256" d="M0 0L113.03846153846143 0L113.03846153846143 51L0 51Z " stroke="rgba(50,50,50,1)" stroke-width="2" fill-opacity="1" fill="#ffffff"></path><g id="SvgjsG1257"><text id="SvgjsText1258" font-family="微软雅黑" text-anchor="middle" font-size="13px" width="94px" fill="#323232" font-weight="400" align="middle" lineHeight="125%" font-style="" opacity="1" y="14.875" transform="rotate(0)"><tspan id="SvgjsTspan1259" dy="16" x="57"><tspan id="SvgjsTspan1260" style="text-decoration:;">交易数据</tspan></tspan></text></g></g><g id="SvgjsG1261" transform="translate(25.00320512820535,426.55729166666606)"><path id="SvgjsPath1262" d="M0 0L113.03846153846143 0L113.03846153846143 51L0 51Z " stroke="rgba(50,50,50,1)" stroke-width="2" fill-opacity="1" fill="#ffffff"></path><g id="SvgjsG1263"><text id="SvgjsText1264" font-family="微软雅黑" text-anchor="middle" font-size="13px" width="94px" fill="#323232" font-weight="400" align="middle" lineHeight="125%" font-style="" opacity="1" y="14.875" transform="rotate(0)"><tspan id="SvgjsTspan1265" dy="16" x="57"><tspan id="SvgjsTspan1266" style="text-decoration:;">交易数据</tspan></tspan></text></g></g><g id="SvgjsG1267" transform="translate(183.00320512820537,426.55729166666606)"><path id="SvgjsPath1268" d="M0 0L113.03846153846143 0L113.03846153846143 51L0 51Z " stroke="rgba(50,50,50,1)" stroke-width="2" fill-opacity="1" fill="#ffffff"></path><g id="SvgjsG1269"><text id="SvgjsText1270" font-family="微软雅黑" text-anchor="middle" font-size="13px" width="94px" fill="#323232" font-weight="400" align="middle" lineHeight="125%" font-style="" opacity="1" y="14.875" transform="rotate(0)"><tspan id="SvgjsTspan1271" dy="16" x="57"><tspan id="SvgjsTspan1272" style="text-decoration:;">交易数据</tspan></tspan></text></g></g><g id="SvgjsG1273" transform="translate(354.0032051282057,426.55729166666606)"><path id="SvgjsPath1274" d="M0 0L113.03846153846143 0L113.03846153846143 51L0 51Z " stroke="rgba(50,50,50,1)" stroke-width="2" fill-opacity="1" fill="#f76060"></path><g id="SvgjsG1275"><text id="SvgjsText1276" font-family="微软雅黑" text-anchor="middle" font-size="13px" width="94px" fill="#323232" font-weight="400" align="middle" lineHeight="125%" font-style="" opacity="1" y="14.875" transform="rotate(0)"><tspan id="SvgjsTspan1277" dy="16" x="57"><tspan id="SvgjsTspan1278" style="text-decoration:;">交易数据</tspan></tspan></text></g></g><g id="SvgjsG1279" transform="translate(512.0032051282044,426.55729166666606)"><path id="SvgjsPath1280" d="M0 0L113.03846153846143 0L113.03846153846143 51L0 51Z " stroke="rgba(50,50,50,1)" stroke-width="2" fill-opacity="1" fill="#ffffff"></path><g id="SvgjsG1281"><text id="SvgjsText1282" font-family="微软雅黑" text-anchor="middle" font-size="13px" width="94px" fill="#323232" font-weight="400" align="middle" lineHeight="125%" font-style="" opacity="1" y="14.875" transform="rotate(0)"><tspan id="SvgjsTspan1283" dy="16" x="57"><tspan id="SvgjsTspan1284" style="text-decoration:;">交易数据</tspan></tspan></text></g></g><g id="SvgjsG1285"><path id="SvgjsPath1286" d="M81.52243589743608 425.55729166666606L81.52243589743608 409.22395833333303L81.52243589743608 409.22395833333303L81.52243589743608 395.490625 " stroke="#323232" stroke-width="2" fill="none" marker-end="url(#SvgjsMarker1287)"></path></g><g id="SvgjsG1289" transform="translate(31.522435897436083,341.890625)"><path id="SvgjsPath1290" d="M16.666666666666668 0L83.33333333333333 0C105.55555555555556 0 105.55555555555556 50 83.33333333333333 50L16.666666666666668 50C-5.555555555555556 50 -5.555555555555556 0 16.666666666666668 0Z " stroke="rgba(50,50,50,1)" stroke-width="2" fill-opacity="1" fill="#ffffff"></path><g id="SvgjsG1291"><text id="SvgjsText1292" font-family="微软雅黑" text-anchor="middle" font-size="13px" width="80px" fill="#323232" font-weight="400" align="middle" lineHeight="125%" font-style="" opacity="1" y="14.375" transform="rotate(0)"><tspan id="SvgjsTspan1293" dy="16" x="50"><tspan id="SvgjsTspan1294" style="text-decoration:;">sha256</tspan></tspan></text></g></g><g id="SvgjsG1295"><path id="SvgjsPath1296" d="M239.04166666666356 426.5572916666664L239.04166666666356 409.22395833333337L239.04166666666356 409.22395833333337L239.04166666666356 395.49062500000036 " stroke="#323232" stroke-width="2" fill="none" marker-end="url(#SvgjsMarker1297)"></path></g><g id="SvgjsG1299" transform="translate(189.04166666666356,341.89062500000034)"><path id="SvgjsPath1300" d="M16.666666666666668 0L83.33333333333333 0C105.55555555555556 0 105.55555555555556 50 83.33333333333333 50L16.666666666666668 50C-5.555555555555556 50 -5.555555555555556 0 16.666666666666668 0Z " stroke="rgba(50,50,50,1)" stroke-width="2" fill-opacity="1" fill="#ffffff"></path><g id="SvgjsG1301"><text id="SvgjsText1302" font-family="微软雅黑" text-anchor="middle" font-size="13px" width="80px" fill="#323232" font-weight="400" align="middle" lineHeight="125%" font-style="" opacity="1" y="14.375" transform="rotate(0)"><tspan id="SvgjsTspan1303" dy="16" x="50"><tspan id="SvgjsTspan1304" style="text-decoration:;">sha256</tspan></tspan></text></g></g><g id="SvgjsG1305"><path id="SvgjsPath1306" d="M410.52243589743654 426.5572916666662L410.52243589743654 409.22395833333314L410.52243589743654 409.22395833333314L410.52243589743654 395.49062500000014 " stroke="#323232" stroke-width="2" fill="none" marker-end="url(#SvgjsMarker1307)"></path></g><g id="SvgjsG1309" transform="translate(360.52243589743654,341.8906250000001)"><path id="SvgjsPath1310" d="M16.666666666666668 0L83.33333333333333 0C105.55555555555556 0 105.55555555555556 50 83.33333333333333 50L16.666666666666668 50C-5.555555555555556 50 -5.555555555555556 0 16.666666666666668 0Z " stroke="rgba(50,50,50,1)" stroke-width="2" fill-opacity="1" fill="#7373fa"></path><g id="SvgjsG1311"><text id="SvgjsText1312" font-family="微软雅黑" text-anchor="middle" font-size="13px" width="80px" fill="#323232" font-weight="400" align="middle" lineHeight="125%" font-style="" opacity="1" y="14.375" transform="rotate(0)"><tspan id="SvgjsTspan1313" dy="16" x="50"><tspan id="SvgjsTspan1314" style="text-decoration:;">sha256</tspan></tspan></text></g></g><g id="SvgjsG1315"><path id="SvgjsPath1316" d="M568.0416666666658 426.55729166666606L568.0416666666658 409.22395833333303L568.0416666666658 409.22395833333303L568.0416666666658 395.490625 " stroke="#323232" stroke-width="2" fill="none" marker-end="url(#SvgjsMarker1317)"></path></g><g id="SvgjsG1319" transform="translate(518.0416666666657,341.890625)"><path id="SvgjsPath1320" d="M16.666666666666668 0L83.33333333333333 0C105.55555555555556 0 105.55555555555556 50 83.33333333333333 50L16.666666666666668 50C-5.555555555555556 50 -5.555555555555556 0 16.666666666666668 0Z " stroke="rgba(50,50,50,1)" stroke-width="2" fill-opacity="1" fill="#ffff00"></path><g id="SvgjsG1321"><text id="SvgjsText1322" font-family="微软雅黑" text-anchor="middle" font-size="13px" width="80px" fill="#323232" font-weight="400" align="middle" lineHeight="125%" font-style="" opacity="1" y="14.375" transform="rotate(0)"><tspan id="SvgjsTspan1323" dy="16" x="50"><tspan id="SvgjsTspan1324" style="text-decoration:;">sha256</tspan></tspan></text></g></g><g id="SvgjsG1325"><path id="SvgjsPath1326" d="M720.0032051282033 426.55729166666606L720.0032051282033 409.22395833333303L720.0032051282033 409.22395833333303L720.0032051282033 395.490625 " stroke="#323232" stroke-width="2" fill="none" marker-end="url(#SvgjsMarker1327)"></path></g><g id="SvgjsG1329" transform="translate(670.003205128203,341.890625)"><path id="SvgjsPath1330" d="M16.666666666666668 0L83.33333333333333 0C105.55555555555556 0 105.55555555555556 50 83.33333333333333 50L16.666666666666668 50C-5.555555555555556 50 -5.555555555555556 0 16.666666666666668 0Z " stroke="rgba(50,50,50,1)" stroke-width="2" fill-opacity="1" fill="#ffffff"></path><g id="SvgjsG1331"><text id="SvgjsText1332" font-family="微软雅黑" text-anchor="middle" font-size="13px" width="80px" fill="#323232" font-weight="400" align="middle" lineHeight="125%" font-style="" opacity="1" y="14.375" transform="rotate(0)"><tspan id="SvgjsTspan1333" dy="16" x="50"><tspan id="SvgjsTspan1334" style="text-decoration:;">sha256</tspan></tspan></text></g></g><g id="SvgjsG1335"><path id="SvgjsPath1336" d="M878.3365384615364 426.5572916666665L878.3365384615364 409.2239583333335L878.3365384615364 409.2239583333335L878.3365384615364 395.4906250000005 " stroke="#323232" stroke-width="2" fill="none" marker-end="url(#SvgjsMarker1337)"></path></g><g id="SvgjsG1339" transform="translate(828.3365384615362,341.89062500000045)"><path id="SvgjsPath1340" d="M16.666666666666668 0L83.33333333333333 0C105.55555555555556 0 105.55555555555556 50 83.33333333333333 50L16.666666666666668 50C-5.555555555555556 50 -5.555555555555556 0 16.666666666666668 0Z " stroke="rgba(50,50,50,1)" stroke-width="2" fill-opacity="1" fill="#ffffff"></path><g id="SvgjsG1341"><text id="SvgjsText1342" font-family="微软雅黑" text-anchor="middle" font-size="13px" width="80px" fill="#323232" font-weight="400" align="middle" lineHeight="125%" font-style="" opacity="1" y="14.375" transform="rotate(0)"><tspan id="SvgjsTspan1343" dy="16" x="50"><tspan id="SvgjsTspan1344" style="text-decoration:;">sha256</tspan></tspan></text></g></g><g id="SvgjsG1345"><path id="SvgjsPath1346" d="M1049.0032051282033 426.55729166666595L1049.0032051282033 409.2239583333329L1049.0032051282033 409.2239583333329L1049.0032051282033 395.4906249999999 " stroke="#323232" stroke-width="2" fill="none" marker-end="url(#SvgjsMarker1347)"></path></g><g id="SvgjsG1349" transform="translate(999.0032051282033,341.8906249999999)"><path id="SvgjsPath1350" d="M16.666666666666668 0L83.33333333333333 0C105.55555555555556 0 105.55555555555556 50 83.33333333333333 50L16.666666666666668 50C-5.555555555555556 50 -5.555555555555556 0 16.666666666666668 0Z " stroke="rgba(50,50,50,1)" stroke-width="2" fill-opacity="1" fill="#ffffff"></path><g id="SvgjsG1351"><text id="SvgjsText1352" font-family="微软雅黑" text-anchor="middle" font-size="13px" width="80px" fill="#323232" font-weight="400" align="middle" lineHeight="125%" font-style="" opacity="1" y="14.375" transform="rotate(0)"><tspan id="SvgjsTspan1353" dy="16" x="50"><tspan id="SvgjsTspan1354" style="text-decoration:;">sha256</tspan></tspan></text></g></g><g id="SvgjsG1355"><path id="SvgjsPath1356" d="M1207.3365384615354 426.5572916666664L1207.3365384615354 409.22395833333337L1207.3365384615354 409.22395833333337L1207.3365384615354 395.49062500000036 " stroke="#323232" stroke-width="2" fill="none" marker-end="url(#SvgjsMarker1357)"></path></g><g id="SvgjsG1359" transform="translate(1157.3365384615354,341.89062500000034)"><path id="SvgjsPath1360" d="M16.666666666666668 0L83.33333333333333 0C105.55555555555556 0 105.55555555555556 50 83.33333333333333 50L16.666666666666668 50C-5.555555555555556 50 -5.555555555555556 0 16.666666666666668 0Z " stroke="rgba(50,50,50,1)" stroke-width="2" fill-opacity="1" fill="#ffffff"></path><g id="SvgjsG1361"><text id="SvgjsText1362" font-family="微软雅黑" text-anchor="middle" font-size="13px" width="80px" fill="#323232" font-weight="400" align="middle" lineHeight="125%" font-style="" opacity="1" y="14.375" transform="rotate(0)"><tspan id="SvgjsTspan1363" dy="16" x="50"><tspan id="SvgjsTspan1364" style="text-decoration:;">sha256</tspan></tspan></text></g></g><g id="SvgjsG1365" transform="translate(110.411324786325,237.22395833333474)"><path id="SvgjsPath1366" d="M16.666666666666668 0L83.33333333333333 0C105.55555555555556 0 105.55555555555556 50 83.33333333333333 50L16.666666666666668 50C-5.555555555555556 50 -5.555555555555556 0 16.666666666666668 0Z " stroke="rgba(50,50,50,1)" stroke-width="2" fill-opacity="1" fill="#ffff00"></path><g id="SvgjsG1367"><text id="SvgjsText1368" font-family="微软雅黑" text-anchor="middle" font-size="13px" width="80px" fill="#323232" font-weight="400" align="middle" lineHeight="125%" font-style="" opacity="1" y="14.375" transform="rotate(0)"><tspan id="SvgjsTspan1369" dy="16" x="50"><tspan id="SvgjsTspan1370" style="text-decoration:;">sha256</tspan></tspan></text></g></g><g id="SvgjsG1371"><path id="SvgjsPath1372" d="M81.52243589743608 340.890625L81.52243589743608 314.5572916666674L160.411324786325 314.5572916666674L160.411324786325 290.82395833333476 " stroke="#323232" stroke-width="2" fill="none" marker-end="url(#SvgjsMarker1373)"></path></g><g id="SvgjsG1375"><path id="SvgjsPath1376" d="M239.04166666666356 340.89062500000034L239.04166666666356 314.55729166666754L160.411324786325 314.55729166666754L160.411324786325 290.82395833333476 " stroke="#323232" stroke-width="2" fill="none" marker-end="url(#SvgjsMarker1377)"></path></g><g id="SvgjsG1379" transform="translate(437.07799145299134,237.22395833333474)"><path id="SvgjsPath1380" d="M16.666666666666668 0L83.33333333333333 0C105.55555555555556 0 105.55555555555556 50 83.33333333333333 50L16.666666666666668 50C-5.555555555555556 50 -5.555555555555556 0 16.666666666666668 0Z " stroke="rgba(50,50,50,1)" stroke-width="2" fill-opacity="1" fill="#7373fa"></path><g id="SvgjsG1381"><text id="SvgjsText1382" font-family="微软雅黑" text-anchor="middle" font-size="13px" width="80px" fill="#323232" font-weight="400" align="middle" lineHeight="125%" font-style="" opacity="1" y="14.375" transform="rotate(0)"><tspan id="SvgjsTspan1383" dy="16" x="50"><tspan id="SvgjsTspan1384" style="text-decoration:;">sha256</tspan></tspan></text></g></g><g id="SvgjsG1385"><path id="SvgjsPath1386" d="M408.1891025641024 341.890625L408.1891025641024 314.5572916666674L487.07799145299134 314.5572916666674L487.07799145299134 290.82395833333476 " stroke="#323232" stroke-width="2" fill="none" marker-end="url(#SvgjsMarker1387)"></path></g><g id="SvgjsG1389"><path id="SvgjsPath1390" d="M565.7083333333296 341.89062500000034L565.7083333333296 314.55729166666754L487.07799145299134 314.55729166666754L487.07799145299134 290.82395833333476 " stroke="#323232" stroke-width="2" fill="none" marker-end="url(#SvgjsMarker1391)"></path></g><g id="SvgjsG1393" transform="translate(747.0779914529913,237.22395833333508)"><path id="SvgjsPath1394" d="M16.666666666666668 0L83.33333333333333 0C105.55555555555556 0 105.55555555555556 50 83.33333333333333 50L16.666666666666668 50C-5.555555555555556 50 -5.555555555555556 0 16.666666666666668 0Z " stroke="rgba(50,50,50,1)" stroke-width="2" fill-opacity="1" fill="#ffffff"></path><g id="SvgjsG1395"><text id="SvgjsText1396" font-family="微软雅黑" text-anchor="middle" font-size="13px" width="80px" fill="#323232" font-weight="400" align="middle" lineHeight="125%" font-style="" opacity="1" y="14.375" transform="rotate(0)"><tspan id="SvgjsTspan1397" dy="16" x="50"><tspan id="SvgjsTspan1398" style="text-decoration:;">sha256</tspan></tspan></text></g></g><g id="SvgjsG1399"><path id="SvgjsPath1400" d="M718.1891025641024 341.89062500000034L718.1891025641024 314.55729166666777L797.0779914529919 314.55729166666777L797.0779914529919 290.8239583333351 " stroke="#323232" stroke-width="2" fill="none" marker-end="url(#SvgjsMarker1401)"></path></g><g id="SvgjsG1403"><path id="SvgjsPath1404" d="M875.7083333333303 341.8906250000007L875.7083333333303 314.5572916666679L797.0779914529919 314.5572916666679L797.0779914529919 290.8239583333351 " stroke="#323232" stroke-width="2" fill="none" marker-end="url(#SvgjsMarker1405)"></path></g><g id="SvgjsG1407" transform="translate(1078.1891025641016,237.22395833333496)"><path id="SvgjsPath1408" d="M16.666666666666668 0L83.33333333333333 0C105.55555555555556 0 105.55555555555556 50 83.33333333333333 50L16.666666666666668 50C-5.555555555555556 50 -5.555555555555556 0 16.666666666666668 0Z " stroke="rgba(50,50,50,1)" stroke-width="2" fill-opacity="1" fill="#ffffff"></path><g id="SvgjsG1409"><text id="SvgjsText1410" font-family="微软雅黑" text-anchor="middle" font-size="13px" width="80px" fill="#323232" font-weight="400" align="middle" lineHeight="125%" font-style="" opacity="1" y="14.375" transform="rotate(0)"><tspan id="SvgjsTspan1411" dy="16" x="50"><tspan id="SvgjsTspan1412" style="text-decoration:;">sha256</tspan></tspan></text></g></g><g id="SvgjsG1413"><path id="SvgjsPath1414" d="M1049.3002136752127 341.8906250000002L1049.3002136752127 314.55729166666765L1128.1891025641023 314.55729166666765L1128.1891025641023 290.823958333335 " stroke="#323232" stroke-width="2" fill="none" marker-end="url(#SvgjsMarker1415)"></path></g><g id="SvgjsG1417"><path id="SvgjsPath1418" d="M1206.8194444444407 341.89062500000057L1206.8194444444407 314.55729166666777L1128.1891025641023 314.55729166666777L1128.1891025641023 290.823958333335 " stroke="#323232" stroke-width="2" fill="none" marker-end="url(#SvgjsMarker1419)"></path></g><g id="SvgjsG1421" transform="translate(272.63354700854734,129.44618055555645)"><path id="SvgjsPath1422" d="M16.666666666666668 0L83.33333333333333 0C105.55555555555556 0 105.55555555555556 50 83.33333333333333 50L16.666666666666668 50C-5.555555555555556 50 -5.555555555555556 0 16.666666666666668 0Z " stroke="rgba(50,50,50,1)" stroke-width="2" fill-opacity="1" fill="#7373fa"></path><g id="SvgjsG1423"><text id="SvgjsText1424" font-family="微软雅黑" text-anchor="middle" font-size="13px" width="80px" fill="#323232" font-weight="400" align="middle" lineHeight="125%" font-style="" opacity="1" y="14.375" transform="rotate(0)"><tspan id="SvgjsTspan1425" dy="16" x="50"><tspan id="SvgjsTspan1426" style="text-decoration:;">sha256</tspan></tspan></text></g></g><g id="SvgjsG1427"><path id="SvgjsPath1428" d="M160.411324786325 236.22395833333474L160.411324786325 208.3350694444456L322.63354700854734 208.3350694444456L322.63354700854734 183.04618055555648 " stroke="#323232" stroke-width="2" fill="none" marker-end="url(#SvgjsMarker1429)"></path></g><g id="SvgjsG1431"><path id="SvgjsPath1432" d="M487.07799145299134 236.22395833333474L487.07799145299134 208.3350694444456L322.63354700854734 208.3350694444456L322.63354700854734 183.04618055555648 " stroke="#323232" stroke-width="2" fill="none" marker-end="url(#SvgjsMarker1433)"></path></g><g id="SvgjsG1435" transform="translate(908.1891025641027,129.44618055555645)"><path id="SvgjsPath1436" d="M16.666666666666668 0L83.33333333333333 0C105.55555555555556 0 105.55555555555556 50 83.33333333333333 50L16.666666666666668 50C-5.555555555555556 50 -5.555555555555556 0 16.666666666666668 0Z " stroke="rgba(50,50,50,1)" stroke-width="2" fill-opacity="1" fill="#ffff00"></path><g id="SvgjsG1437"><text id="SvgjsText1438" font-family="微软雅黑" text-anchor="middle" font-size="13px" width="80px" fill="#323232" font-weight="400" align="middle" lineHeight="125%" font-style="" opacity="1" y="14.375" transform="rotate(0)"><tspan id="SvgjsTspan1439" dy="16" x="50"><tspan id="SvgjsTspan1440" style="text-decoration:;">sha256</tspan></tspan></text></g></g><g id="SvgjsG1441"><path id="SvgjsPath1442" d="M795.966880341881 237.22395833333474L795.966880341881 208.3350694444456L958.1891025641025 208.3350694444456L958.1891025641025 183.04618055555648 " stroke="#323232" stroke-width="2" fill="none" marker-end="url(#SvgjsMarker1443)"></path></g><g id="SvgjsG1445"><path id="SvgjsPath1446" d="M1122.6335470085462 237.22395833333474L1122.6335470085462 208.3350694444456L958.1891025641025 208.3350694444456L958.1891025641025 183.04618055555648 " stroke="#323232" stroke-width="2" fill="none" marker-end="url(#SvgjsMarker1447)"></path></g><g id="SvgjsG1449" transform="translate(588.1891025641032,25.001736111112052)"><path id="SvgjsPath1450" d="M16.666666666666668 0L83.33333333333333 0C105.55555555555556 0 105.55555555555556 50 83.33333333333333 50L16.666666666666668 50C-5.555555555555556 50 -5.555555555555556 0 16.666666666666668 0Z " stroke="rgba(50,50,50,1)" stroke-width="2" fill-opacity="1" fill="#7373fa"></path><g id="SvgjsG1451"><text id="SvgjsText1452" font-family="微软雅黑" text-anchor="middle" font-size="13px" width="80px" fill="#323232" font-weight="400" align="middle" lineHeight="125%" font-style="" opacity="1" y="6.375" transform="rotate(0)"><tspan id="SvgjsTspan1453" dy="16" x="50"><tspan id="SvgjsTspan1454" style="text-decoration:;">默克尔</tspan></tspan><tspan id="SvgjsTspan1455" dy="16" x="50"><tspan id="SvgjsTspan1456" style="text-decoration:;">值sha256</tspan></tspan></text></g></g><g id="SvgjsG1457"><path id="SvgjsPath1458" d="M322.63354700854734 128.44618055555645L322.63354700854734 102.22395833333417L638.1891025641032 102.22395833333417L638.1891025641032 78.60173611111202 " stroke="#323232" stroke-width="2" fill="none" marker-end="url(#SvgjsMarker1459)"></path></g><g id="SvgjsG1461"><path id="SvgjsPath1462" d="M958.1891025641025 128.44618055555645L958.1891025641025 102.22395833333417L638.1891025641032 102.22395833333417L638.1891025641032 78.60173611111202 " stroke="#323232" stroke-width="2" fill="none" marker-end="url(#SvgjsMarker1463)"></path></g></svg>