<svg id="SvgjsSvg1000" xmlns="http://www.w3.org/2000/svg" version="1.1" xmlns:xlink="http://www.w3.org/1999/xlink" xmlns:svgjs="http://svgjs.com/svgjs" width="624.4375" height="735.28125"><defs id="SvgjsDefs1001"><marker id="SvgjsMarker1039" markerWidth="14" markerHeight="10" refX="10" refY="5" viewBox="0 0 14 10" orient="auto" markerUnits="userSpaceOnUse" stroke-dasharray="0,0"><path id="SvgjsPath1040" d="M0 0L14 5L0 10L0 0 " fill="#323232" stroke="#323232" stroke-width="1"></path></marker><marker id="SvgjsMarker1043" markerWidth="14" markerHeight="10" refX="10" refY="5" viewBox="0 0 14 10" orient="auto" markerUnits="userSpaceOnUse" stroke-dasharray="0,0"><path id="SvgjsPath1044" d="M0 0L14 5L0 10L0 0 " fill="#323232" stroke="#323232" stroke-width="1"></path></marker><marker id="SvgjsMarker1047" markerWidth="14" markerHeight="10" refX="10" refY="5" viewBox="0 0 14 10" orient="auto" markerUnits="userSpaceOnUse" stroke-dasharray="0,0"><path id="SvgjsPath1048" d="M0 0L14 5L0 10L0 0 " fill="#323232" stroke="#323232" stroke-width="1"></path></marker><marker id="SvgjsMarker1057" markerWidth="14" markerHeight="10" refX="10" refY="5" viewBox="0 0 14 10" orient="auto" markerUnits="userSpaceOnUse" stroke-dasharray="0,0"><path id="SvgjsPath1058" d="M0 0L14 5L0 10L0 0 " fill="#323232" stroke="#323232" stroke-width="1"></path></marker><marker id="SvgjsMarker1073" markerWidth="14" markerHeight="10" refX="10" refY="5" viewBox="0 0 14 10" orient="auto" markerUnits="userSpaceOnUse" stroke-dasharray="0,0"><path id="SvgjsPath1074" d="M0 0L14 5L0 10L0 0 " fill="#323232" stroke="#323232" stroke-width="1"></path></marker><marker id="SvgjsMarker1083" markerWidth="14" markerHeight="10" refX="10" refY="5" viewBox="0 0 14 10" orient="auto" markerUnits="userSpaceOnUse" stroke-dasharray="0,0"><path id="SvgjsPath1084" d="M0 0L14 5L0 10L0 0 " fill="#323232" stroke="#323232" stroke-width="1"></path></marker><marker id="SvgjsMarker1093" markerWidth="14" markerHeight="10" refX="10" refY="5" viewBox="0 0 14 10" orient="auto" markerUnits="userSpaceOnUse" stroke-dasharray="0,0"><path id="SvgjsPath1094" d="M0 0L14 5L0 10L0 0 " fill="#323232" stroke="#323232" stroke-width="1"></path></marker><marker id="SvgjsMarker1103" markerWidth="14" markerHeight="10" refX="10" refY="5" viewBox="0 0 14 10" orient="auto" markerUnits="userSpaceOnUse" stroke-dasharray="0,0"><path id="SvgjsPath1104" d="M0 0L14 5L0 10L0 0 " fill="#323232" stroke="#323232" stroke-width="1"></path></marker><marker id="SvgjsMarker1113" markerWidth="14" markerHeight="10" refX="10" refY="5" viewBox="0 0 14 10" orient="auto" markerUnits="userSpaceOnUse" stroke-dasharray="0,0"><path id="SvgjsPath1114" d="M0 0L14 5L0 10L0 0 " fill="#323232" stroke="#323232" stroke-width="1"></path></marker><marker id="SvgjsMarker1117" markerWidth="14" markerHeight="10" refX="10" refY="5" viewBox="0 0 14 10" orient="auto" markerUnits="userSpaceOnUse" stroke-dasharray="0,0"><path id="SvgjsPath1118" d="M0 0L14 5L0 10L0 0 " fill="#323232" stroke="#323232" stroke-width="1"></path></marker><marker id="SvgjsMarker1121" markerWidth="14" markerHeight="10" refX="10" refY="5" viewBox="0 0 14 10" orient="auto" markerUnits="userSpaceOnUse" stroke-dasharray="0,0"><path id="SvgjsPath1122" d="M0 0L14 5L0 10L0 0 " fill="#323232" stroke="#323232" stroke-width="1"></path></marker></defs><g id="SvgjsG1007" transform="translate(368.33333333333303,148.00892857142904)"><path id="SvgjsPath1008" d="M0 35C0 -11.666666666666666 70 -11.666666666666666 70 35C70 81.66666666666667 0 81.66666666666667 0 35Z " stroke="rgba(50,50,50,1)" stroke-width="2" fill-opacity="1" fill="#ffffff"></path><g id="SvgjsG1009"><text id="SvgjsText1010" font-family="微软雅黑" text-anchor="middle" font-size="24px" width="50px" fill="#323232" font-weight="400" align="middle" lineHeight="125%" font-style="" opacity="1" y="14" transform="rotate(0)"><tspan id="SvgjsTspan1011" dy="30" x="35"><tspan id="SvgjsTspan1012" style="text-decoration:;">g</tspan></tspan></text></g></g><g id="SvgjsG1013" transform="translate(368.33333333333303,271.0089285714294)"><path id="SvgjsPath1014" d="M0 35C0 -11.666666666666666 70 -11.666666666666666 70 35C70 81.66666666666667 0 81.66666666666667 0 35Z " stroke="rgba(50,50,50,1)" stroke-width="2" fill-opacity="1" fill="#ffffff"></path><g id="SvgjsG1015"><text id="SvgjsText1016" font-family="微软雅黑" text-anchor="middle" font-size="24px" width="50px" fill="#323232" font-weight="400" align="middle" lineHeight="125%" font-style="" opacity="1" y="14" transform="rotate(0)"><tspan id="SvgjsTspan1017" dy="30" x="35"><tspan id="SvgjsTspan1018" style="text-decoration:;">e</tspan></tspan></text></g></g><g id="SvgjsG1019" transform="translate(368.33333333333303,387.0089285714294)"><path id="SvgjsPath1020" d="M0 35C0 -11.666666666666666 70 -11.666666666666666 70 35C70 81.66666666666667 0 81.66666666666667 0 35Z " stroke="rgba(50,50,50,1)" stroke-width="2" fill-opacity="1" fill="#ffffff"></path><g id="SvgjsG1021"><text id="SvgjsText1022" font-family="微软雅黑" text-anchor="middle" font-size="24px" width="50px" fill="#323232" font-weight="400" align="middle" lineHeight="125%" font-style="" opacity="1" y="14" transform="rotate(0)"><tspan id="SvgjsTspan1023" dy="30" x="35"><tspan id="SvgjsTspan1024" style="text-decoration:;">n</tspan></tspan></text></g></g><g id="SvgjsG1025" transform="translate(368.33333333333303,507.0089285714296)"><path id="SvgjsPath1026" d="M0 35C0 -11.666666666666666 70 -11.666666666666666 70 35C70 81.66666666666667 0 81.66666666666667 0 35Z " stroke="rgba(50,50,50,1)" stroke-width="2" fill-opacity="1" fill="#ffff00"></path><g id="SvgjsG1027"><text id="SvgjsText1028" font-family="微软雅黑" text-anchor="middle" font-size="24px" width="50px" fill="#323232" font-weight="400" align="middle" lineHeight="125%" font-style="" opacity="1" y="14" transform="rotate(0)"><tspan id="SvgjsTspan1029" dy="30" x="35"><tspan id="SvgjsTspan1030" style="text-decoration:;">era</tspan></tspan></text></g></g><g id="SvgjsG1031" transform="translate(368.3333333333329,640.2946428571447)"><path id="SvgjsPath1032" d="M0 35C0 -11.666666666666666 70 -11.666666666666666 70 35C70 81.66666666666667 0 81.66666666666667 0 35Z " stroke="rgba(50,50,50,1)" stroke-width="2" fill-opacity="1" fill="#7373fa"></path><g id="SvgjsG1033"><text id="SvgjsText1034" font-family="微软雅黑" text-anchor="middle" font-size="24px" width="50px" fill="#323232" font-weight="400" align="middle" lineHeight="125%" font-style="" opacity="1" y="14" transform="rotate(0)"><tspan id="SvgjsTspan1035" dy="30" x="35"><tspan id="SvgjsTspan1036" style="text-decoration:;">l</tspan></tspan></text></g></g><g id="SvgjsG1037"><path id="SvgjsPath1038" d="M403.33333333333314 219.0089285714294L403.33333333333314 244.5089285714294L403.33333333333314 244.5089285714294L403.33333333333314 267.4089285714294 " stroke="#323232" stroke-width="2" fill="none" marker-end="url(#SvgjsMarker1039)"></path></g><g id="SvgjsG1041"><path id="SvgjsPath1042" d="M403.33333333333314 342.0089285714294L403.33333333333314 364.0089285714294L403.33333333333314 364.0089285714294L403.33333333333314 383.4089285714294 " stroke="#323232" stroke-width="2" fill="none" marker-end="url(#SvgjsMarker1043)"></path></g><g id="SvgjsG1045"><path id="SvgjsPath1046" d="M403.33333333333314 458.0089285714295L403.33333333333314 482.0089285714296L403.33333333333314 482.0089285714296L403.33333333333314 503.40892857142956 " stroke="#323232" stroke-width="2" fill="none" marker-end="url(#SvgjsMarker1047)"></path></g><g id="SvgjsG1049" transform="translate(529.444444444444,387.00892857142975)"><path id="SvgjsPath1050" d="M0 35C0 -11.666666666666666 70 -11.666666666666666 70 35C70 81.66666666666667 0 81.66666666666667 0 35Z " stroke="rgba(50,50,50,1)" stroke-width="2" fill-opacity="1" fill="#ffff00"></path><g id="SvgjsG1051"><text id="SvgjsText1052" font-family="微软雅黑" text-anchor="middle" font-size="24px" width="50px" fill="#323232" font-weight="400" align="middle" lineHeight="125%" font-style="" opacity="1" y="14" transform="rotate(0)"><tspan id="SvgjsTspan1053" dy="30" x="35"><tspan id="SvgjsTspan1054" style="text-decoration:;">si</tspan></tspan></text></g></g><g id="SvgjsG1055"><path id="SvgjsPath1056" d="M439.33333333333314 422.0089285714294L483.8888888888886 422.0089285714294L483.8888888888886 422.0089285714294L525.844444444444 422.0089285714294 " stroke="#323232" stroke-width="2" fill="none" marker-end="url(#SvgjsMarker1057)"></path></g><g id="SvgjsG1059" transform="translate(529.444444444444,507.00892857142935)"><path id="SvgjsPath1060" d="M0 35C0 -11.666666666666666 70 -11.666666666666666 70 35C70 81.66666666666667 0 81.66666666666667 0 35Z " stroke="rgba(50,50,50,1)" stroke-width="2" fill-opacity="1" fill="#7373fa"></path><g id="SvgjsG1061"><text id="SvgjsText1062" font-family="微软雅黑" text-anchor="middle" font-size="24px" width="50px" fill="#323232" font-weight="400" align="middle" lineHeight="125%" font-style="" opacity="1" y="14" transform="rotate(0)"><tspan id="SvgjsTspan1063" dy="30" x="35"><tspan id="SvgjsTspan1064" style="text-decoration:;">s</tspan></tspan></text></g></g><g id="SvgjsG1065" transform="translate(185.00000000000023,148.00892857142904)"><path id="SvgjsPath1066" d="M0 35C0 -11.666666666666666 70 -11.666666666666666 70 35C70 81.66666666666667 0 81.66666666666667 0 35Z " stroke="rgba(50,50,50,1)" stroke-width="2" fill-opacity="1" fill="#ffffff"></path><g id="SvgjsG1067"><text id="SvgjsText1068" font-family="微软雅黑" text-anchor="middle" font-size="24px" width="50px" fill="#323232" font-weight="400" align="middle" lineHeight="125%" font-style="" opacity="1" y="14" transform="rotate(0)"><tspan id="SvgjsTspan1069" dy="30" x="35"><tspan id="SvgjsTspan1070" style="text-decoration:;">o</tspan></tspan></text></g></g><g id="SvgjsG1071"><path id="SvgjsPath1072" d="M367.33333333333303 183.00892857142938L311.66666666666674 183.00892857142938L311.66666666666674 183.00892857142938L258.60000000000014 183.00892857142938 " stroke="#323232" stroke-width="2" fill="none" marker-end="url(#SvgjsMarker1073)"></path></g><g id="SvgjsG1075" transform="translate(185.00000000000045,289.1200396825406)"><path id="SvgjsPath1076" d="M0 35C0 -11.666666666666666 70 -11.666666666666666 70 35C70 81.66666666666667 0 81.66666666666667 0 35Z " stroke="rgba(50,50,50,1)" stroke-width="2" fill-opacity="1" fill="#ffffff"></path><g id="SvgjsG1077"><text id="SvgjsText1078" font-family="微软雅黑" text-anchor="middle" font-size="24px" width="50px" fill="#323232" font-weight="400" align="middle" lineHeight="125%" font-style="" opacity="1" y="14" transform="rotate(0)"><tspan id="SvgjsTspan1079" dy="30" x="35"><tspan id="SvgjsTspan1080" style="text-decoration:;">o</tspan></tspan></text></g></g><g id="SvgjsG1081"><path id="SvgjsPath1082" d="M220.0000000000001 219.0089285714294L220.0000000000001 253.5644841269849L220.0000000000001 253.5644841269849L220.0000000000001 285.5200396825406 " stroke="#323232" stroke-width="2" fill="none" marker-end="url(#SvgjsMarker1083)"></path></g><g id="SvgjsG1085" transform="translate(185.00000000000068,415.78670634920746)"><path id="SvgjsPath1086" d="M0 35C0 -11.666666666666666 70 -11.666666666666666 70 35C70 81.66666666666667 0 81.66666666666667 0 35Z " stroke="rgba(50,50,50,1)" stroke-width="2" fill-opacity="1" fill="#7373fa"></path><g id="SvgjsG1087"><text id="SvgjsText1088" font-family="微软雅黑" text-anchor="middle" font-size="24px" width="50px" fill="#323232" font-weight="400" align="middle" lineHeight="125%" font-style="" opacity="1" y="14" transform="rotate(0)"><tspan id="SvgjsTspan1089" dy="30" x="35"><tspan id="SvgjsTspan1090" style="text-decoration:;">d</tspan></tspan></text></g></g><g id="SvgjsG1091"><path id="SvgjsPath1092" d="M220.00000000000034 360.1200396825406L220.00000000000034 387.4533730158741L220.00000000000034 387.4533730158741L220.00000000000034 412.18670634920744 " stroke="#323232" stroke-width="2" fill="none" marker-end="url(#SvgjsMarker1093)"></path></g><g id="SvgjsG1095" transform="translate(25.000000000000114,148.00892857142904)"><path id="SvgjsPath1096" d="M0 35C0 -11.666666666666666 70 -11.666666666666666 70 35C70 81.66666666666667 0 81.66666666666667 0 35Z " stroke="rgba(50,50,50,1)" stroke-width="2" fill-opacity="1" fill="#7373fa"></path><g id="SvgjsG1097"><text id="SvgjsText1098" font-family="微软雅黑" text-anchor="middle" font-size="24px" width="50px" fill="#323232" font-weight="400" align="middle" lineHeight="125%" font-style="" opacity="1" y="14" transform="rotate(0)"><tspan id="SvgjsTspan1099" dy="30" x="35"><tspan id="SvgjsTspan1100" style="text-decoration:;">d</tspan></tspan></text></g></g><g id="SvgjsG1101"><path id="SvgjsPath1102" d="M184.00000000000023 183.00892857142927L140.0000000000001 183.00892857142927L140.0000000000001 183.00892857142927L98.60000000000014 183.00892857142927 " stroke="#323232" stroke-width="2" fill="none" marker-end="url(#SvgjsMarker1103)"></path></g><g id="SvgjsG1105" transform="translate(368.3333333333335,25.008928571428626)"><path id="SvgjsPath1106" d="M0 35C0 -11.666666666666666 70 -11.666666666666666 70 35C70 81.66666666666667 0 81.66666666666667 0 35Z " stroke="rgba(50,50,50,1)" stroke-width="2" fill-opacity="1" fill="#00ffff"></path><g id="SvgjsG1107"><text id="SvgjsText1108" font-family="微软雅黑" text-anchor="middle" font-size="24px" width="50px" fill="#323232" font-weight="400" align="middle" lineHeight="125%" font-style="" opacity="1" y="14" transform="rotate(0)"><tspan id="SvgjsTspan1109" dy="30" x="35"><tspan id="SvgjsTspan1110" style="text-decoration:;">root</tspan></tspan></text></g></g><g id="SvgjsG1111"><path id="SvgjsPath1112" d="M403.3333333333336 96.00892857142861L403.3333333333336 121.50892857142884L403.3333333333336 121.50892857142884L403.3333333333336 144.40892857142904 " stroke="#323232" stroke-width="2" fill="none" marker-end="url(#SvgjsMarker1113)"></path></g><g id="SvgjsG1115"><path id="SvgjsPath1116" d="M403.33333333333303 578.0089285714296L403.33333333333303 608.6517857142871L403.33333333333303 608.6517857142871L403.33333333333303 636.6946428571447 " stroke="#323232" stroke-width="2" fill="none" marker-end="url(#SvgjsMarker1117)"></path></g><g id="SvgjsG1119"><path id="SvgjsPath1120" d="M564.444444444444 458.00892857142975L564.444444444444 482.0089285714296L564.444444444444 482.0089285714296L564.444444444444 503.4089285714293 " stroke="#323232" stroke-width="2" fill="none" marker-end="url(#SvgjsMarker1121)"></path></g></svg>