<svg xmlns:ev="http://www.w3.org/2001/xml-events" xmlns="http://www.w3.org/2000/svg" viewBox="0 0 328 341" height="341" width="328" xmlns:xlink="http://www.w3.org/1999/xlink"><defs/><g id="page1" transform="translate(5.5,5.5)"><rect y="0" fill="#ffffff" x="0" height="331" width="318"/><g id="shape1" transform="translate(39.259843,39.350394)"><path stroke="#101843" fill-rule="nonzero" fill="#ffffff" d="M.0,.0L60.0,.0L60.0,45.0L.0,45.0L.0,.0z" stroke-width="1"/><text style="fill:#191919;font-family:Microsoft YaHei;font-size:10.00pt" xml:space="preserve"><tspan y="29.0" x="27.0">s</tspan></text></g><g id="shape2" transform="translate(39.259843,153.350394)"><path stroke="#101843" fill-rule="nonzero" fill="#ffffff" d="M.0,.0L60.0,.0L60.0,45.0L.0,45.0L.0,.0z" stroke-width="1"/><text style="fill:#191919;font-family:Microsoft YaHei;font-size:10.00pt" xml:space="preserve"><tspan y="29.0" x="11.5">String</tspan></text></g><g id="shape3" transform="translate(80.259843,247.350394)"><path stroke="#101843" fill-rule="nonzero" fill="#ffffff" d="M.0,.0L98.0,.0L98.0,45.0L.0,45.0L.0,.0z" stroke-width="1"/><text style="fill:#191919;font-family:Microsoft YaHei;font-size:10.00pt" xml:space="preserve"><tspan y="28.5" x="19.9">hello rust</tspan></text></g><g id="shape4" transform="translate(99.259843,153.350394)"><path stroke="#101843" fill-rule="nonzero" fill="#ffffff" d="M.0,.0L60.0,.0L60.0,45.0L.0,45.0L.0,.0z" stroke-width="1"/><text style="fill:#191919;font-family:Microsoft YaHei;font-size:10.00pt" xml:space="preserve"><tspan y="29.0" x="25.8">p</tspan></text></g><g id="shape5" transform="translate(159.259843,153.350394)"><path stroke="#101843" fill-rule="nonzero" fill="#ffffff" d="M.0,.0L60.0,.0L60.0,45.0L.0,45.0L.0,.0z" stroke-width="1"/><text style="fill:#191919;font-family:Microsoft YaHei;font-size:10.00pt" xml:space="preserve"><tspan y="29.0" x="22.4">10</tspan></text></g><g id="shape6" transform="translate(69.259843,84.350394)"><path stroke="#ff0000" stroke-dasharray="11,5" fill="none" d="M.0,.0L.0,63.0" stroke-width="1"/><path stroke="#ff0000" stroke-linecap="round" fill="#ff0000" d="M3.0,63.0L.0,69.0L-3.0,63.0L3.0,63.0" stroke-width="1"/></g><g id="shape7" transform="translate(219.259843,153.350394)"><path stroke="#101843" fill-rule="nonzero" fill="#ffffff" d="M.0,.0L60.0,.0L60.0,45.0L.0,45.0L.0,.0z" stroke-width="1"/><text style="fill:#191919;font-family:Microsoft YaHei;font-size:10.00pt" xml:space="preserve"><tspan y="29.0" x="22.4">16</tspan></text></g><g id="shape8" transform="translate(129.259843,198.350394)"><path stroke="#191919" fill="none" d="M.0,.0L.0,43.0" stroke-width="1"/><path stroke="#191919" stroke-linecap="round" fill="#191919" d="M3.0,43.0L.0,49.0L-3.0,43.0L3.0,43.0" stroke-width="1"/></g><g id="shape9" transform="translate(159.259843,39.350394)"><path stroke="#101843" fill-rule="nonzero" fill="#ffffff" d="M.0,.0L60.0,.0L60.0,45.0L.0,45.0L.0,.0z" stroke-width="1"/><text style="fill:#191919;font-family:Microsoft YaHei;font-size:10.00pt" xml:space="preserve"><tspan y="29.0" x="27.6">t</tspan></text></g><g id="shape10" transform="translate(189.000000,84.000000)"><path stroke="#ff0000" fill="none" d="M.0,.0L.0,41.0L-108.0,41.0L-108.0,63.0" stroke-width="1"/><path stroke="#ff0000" stroke-linecap="round" fill="#ff0000" d="M-105.0,63.0L-108.0,69.0L-111.0,63.0L-105.0,63.0" stroke-width="1"/></g></g></svg>