<svg xmlns:xlink="http://www.w3.org/1999/xlink" height="341" viewBox="0 0 328 341" width="328" xmlns="http://www.w3.org/2000/svg" xmlns:ev="http://www.w3.org/2001/xml-events"><defs/><g transform="translate(5.5,5.5)" id="page1"><rect height="331" x="0" width="318" y="0" fill="#ffffff"/><g transform="translate(39.000000,39.000000)" id="shape1"><path d="M.0,.0L60.0,.0L60.0,45.0L.0,45.0L.0,.0z" stroke-width="1" fill-rule="nonzero" stroke="#101843" fill="#ffffff"/><text xml:space="preserve" style="fill:#191919;font-family:Microsoft YaHei;font-size:10.00pt"><tspan x="27.0" y="29.0">s</tspan></text></g><g transform="translate(39.000000,153.000000)" id="shape2"><path d="M.0,.0L60.0,.0L60.0,45.0L.0,45.0L.0,.0z" stroke-width="1" fill-rule="nonzero" stroke="#101843" fill="#ffffff"/><text xml:space="preserve" style="fill:#191919;font-family:Microsoft YaHei;font-size:10.00pt"><tspan x="11.5" y="29.0">String</tspan></text></g><g transform="translate(80.000000,247.000000)" id="shape3"><path d="M.0,.0L98.0,.0L98.0,45.0L.0,45.0L.0,.0z" stroke-width="1" fill-rule="nonzero" stroke="#101843" fill="#ffffff"/><text xml:space="preserve" style="fill:#191919;font-family:Microsoft YaHei;font-size:10.00pt"><tspan x="19.9" y="28.5">hello rust</tspan></text></g><g transform="translate(99.000000,153.000000)" id="shape4"><path d="M.0,.0L60.0,.0L60.0,45.0L.0,45.0L.0,.0z" stroke-width="1" fill-rule="nonzero" stroke="#101843" fill="#ffffff"/><text xml:space="preserve" style="fill:#191919;font-family:Microsoft YaHei;font-size:10.00pt"><tspan x="25.8" y="29.0">p</tspan></text></g><g transform="translate(159.000000,153.000000)" id="shape5"><path d="M.0,.0L60.0,.0L60.0,45.0L.0,45.0L.0,.0z" stroke-width="1" fill-rule="nonzero" stroke="#101843" fill="#ffffff"/><text xml:space="preserve" style="fill:#191919;font-family:Microsoft YaHei;font-size:10.00pt"><tspan x="22.4" y="29.0">10</tspan></text></g><g transform="translate(69.000000,84.000000)" id="shape6"><path d="M.0,.0L.0,63.0" stroke-width="1" stroke="#191919" fill="none"/><path d="M3.0,63.0L.0,69.0L-3.0,63.0L3.0,63.0" stroke-width="1" stroke="#191919" stroke-linecap="round" fill="#191919"/></g><g transform="translate(219.000000,153.000000)" id="shape7"><path d="M.0,.0L60.0,.0L60.0,45.0L.0,45.0L.0,.0z" stroke-width="1" fill-rule="nonzero" stroke="#101843" fill="#ffffff"/><text xml:space="preserve" style="fill:#191919;font-family:Microsoft YaHei;font-size:10.00pt"><tspan x="22.4" y="29.0">16</tspan></text></g><g transform="translate(129.000000,198.000000)" id="shape8"><path d="M.0,.0L.0,43.0" stroke-width="1" stroke="#191919" fill="none"/><path d="M3.0,43.0L.0,49.0L-3.0,43.0L3.0,43.0" stroke-width="1" stroke="#191919" stroke-linecap="round" fill="#191919"/></g></g></svg>