<svg xmlns="http://www.w3.org/2000/svg" viewBox="0 0 635 341" xmlns:xlink="http://www.w3.org/1999/xlink" width="635" xmlns:ev="http://www.w3.org/2001/xml-events" height="341"><defs/><g transform="translate(5.5,5.5)" id="page1"><rect fill="#ffffff" y="0" x="0" width="625" height="331"/><g transform="translate(39.259800,39.051000)" id="shape1"><path fill="#ffffff" stroke-width="1" stroke="#101843" d="M.0,.0L60.0,.0L60.0,45.0L.0,45.0L.0,.0z" fill-rule="nonzero"/><text style="fill:#191919;font-family:Microsoft YaHei;font-size:10.00pt" xml:space="preserve"><tspan y="29.0" x="27.0">s</tspan></text></g><g transform="translate(39.259800,153.051000)" id="shape2"><path fill="#ffffff" stroke-width="1" stroke="#101843" d="M.0,.0L60.0,.0L60.0,45.0L.0,45.0L.0,.0z" fill-rule="nonzero"/><text style="fill:#191919;font-family:Microsoft YaHei;font-size:10.00pt" xml:space="preserve"><tspan y="29.0" x="11.5">String</tspan></text></g><g transform="translate(80.260000,247.051000)" id="shape3"><path fill="#ffffff" stroke-width="1" stroke="#101843" d="M.0,.0L98.0,.0L98.0,45.0L.0,45.0L.0,.0z" fill-rule="nonzero"/><text style="fill:#191919;font-family:Microsoft YaHei;font-size:10.00pt" xml:space="preserve"><tspan y="28.5" x="19.9">hello rust</tspan></text></g><g transform="translate(99.260000,153.051000)" id="shape4"><path fill="#ffffff" stroke-width="1" stroke="#101843" d="M.0,.0L60.0,.0L60.0,45.0L.0,45.0L.0,.0z" fill-rule="nonzero"/><text style="fill:#191919;font-family:Microsoft YaHei;font-size:10.00pt" xml:space="preserve"><tspan y="29.0" x="25.8">p</tspan></text></g><g transform="translate(159.260000,153.051000)" id="shape5"><path fill="#ffffff" stroke-width="1" stroke="#101843" d="M.0,.0L60.0,.0L60.0,45.0L.0,45.0L.0,.0z" fill-rule="nonzero"/><text style="fill:#191919;font-family:Microsoft YaHei;font-size:10.00pt" xml:space="preserve"><tspan y="29.0" x="22.4">10</tspan></text></g><g transform="translate(69.259800,84.051000)" id="shape6"><path fill="none" stroke-width="1" stroke="#000000" d="M.0,.0L.0,63.0"/><path fill="#000000" stroke-width="1" stroke-linecap="round" stroke="#000000" d="M3.0,63.0L.0,69.0L-3.0,63.0L3.0,63.0"/></g><g transform="translate(219.260000,153.051000)" id="shape7"><path fill="#ffffff" stroke-width="1" stroke="#101843" d="M.0,.0L60.0,.0L60.0,45.0L.0,45.0L.0,.0z" fill-rule="nonzero"/><text style="fill:#191919;font-family:Microsoft YaHei;font-size:10.00pt" xml:space="preserve"><tspan y="29.0" x="22.4">16</tspan></text></g><g transform="translate(129.260000,198.051000)" id="shape8"><path fill="none" stroke-width="1" stroke="#191919" d="M.0,.0L.0,43.0"/><path fill="#191919" stroke-width="1" stroke-linecap="round" stroke="#191919" d="M3.0,43.0L.0,49.0L-3.0,43.0L3.0,43.0"/></g><g transform="translate(346.000000,39.051000)" id="shape9"><path fill="#ffffff" stroke-width="1" stroke="#101843" d="M.0,.0L60.0,.0L60.0,45.0L.0,45.0L.0,.0z" fill-rule="nonzero"/><text style="fill:#191919;font-family:Microsoft YaHei;font-size:10.00pt" xml:space="preserve"><tspan y="29.0" x="27.6">t</tspan></text></g><g transform="translate(346.000000,153.051000)" id="shape10"><path fill="#ffffff" stroke-width="1" stroke="#101843" d="M.0,.0L60.0,.0L60.0,45.0L.0,45.0L.0,.0z" fill-rule="nonzero"/><text style="fill:#191919;font-family:Microsoft YaHei;font-size:10.00pt" xml:space="preserve"><tspan y="29.0" x="11.5">String</tspan></text></g><g transform="translate(387.000200,247.051000)" id="shape11"><path fill="#ffffff" stroke-width="1" stroke="#101843" d="M.0,.0L98.0,.0L98.0,45.0L.0,45.0L.0,.0z" fill-rule="nonzero"/><text style="fill:#191919;font-family:Microsoft YaHei;font-size:10.00pt" xml:space="preserve"><tspan y="28.5" x="19.9">hello rust</tspan></text></g><g transform="translate(406.000200,153.051000)" id="shape12"><path fill="#ffffff" stroke-width="1" stroke="#101843" d="M.0,.0L60.0,.0L60.0,45.0L.0,45.0L.0,.0z" fill-rule="nonzero"/><text style="fill:#191919;font-family:Microsoft YaHei;font-size:10.00pt" xml:space="preserve"><tspan y="29.0" x="25.8">p</tspan></text></g><g transform="translate(466.000200,153.051000)" id="shape13"><path fill="#ffffff" stroke-width="1" stroke="#101843" d="M.0,.0L60.0,.0L60.0,45.0L.0,45.0L.0,.0z" fill-rule="nonzero"/><text style="fill:#191919;font-family:Microsoft YaHei;font-size:10.00pt" xml:space="preserve"><tspan y="29.0" x="22.4">10</tspan></text></g><g transform="translate(376.000000,84.051000)" id="shape14"><path fill="none" stroke-width="1" stroke="#000000" d="M.0,.0L.0,63.0"/><path fill="#000000" stroke-width="1" stroke-linecap="round" stroke="#000000" d="M3.0,63.0L.0,69.0L-3.0,63.0L3.0,63.0"/></g><g transform="translate(526.000200,153.051000)" id="shape15"><path fill="#ffffff" stroke-width="1" stroke="#101843" d="M.0,.0L60.0,.0L60.0,45.0L.0,45.0L.0,.0z" fill-rule="nonzero"/><text style="fill:#191919;font-family:Microsoft YaHei;font-size:10.00pt" xml:space="preserve"><tspan y="29.0" x="22.4">16</tspan></text></g><g transform="translate(436.000200,198.051000)" id="shape16"><path fill="none" stroke-width="1" stroke="#191919" d="M.0,.0L.0,43.0"/><path fill="#191919" stroke-width="1" stroke-linecap="round" stroke="#191919" d="M3.0,43.0L.0,49.0L-3.0,43.0L3.0,43.0"/></g></g></svg>