<?xml version="1.0" standalone="no"?><?xml-stylesheet type="text/css" href="https://wps.processon.com/themes/default/wps/mind/icons/icons.css" ?><!DOCTYPE svg PUBLIC "-//W3C//DTD SVG 1.1//EN" "http://www.w3.org/Graphics/SVG/1.1/DTD/svg11.dtd"><svg xmlns="http://www.w3.org/2000/svg" xlink="http://www.w3.org/1999/xlink" id="mind-svg-con" version="1.1" width="910px" height="1156.140625px" style="position: absolute; left: 0px; top: 0px; width: 910px; height: 1156.140625px; background-color: rgb(245, 250, 255); z-index: 999;"><defs></defs><g id="svgbackgroundid"><defs></defs><rect x="0" y="0" width="910" height="1156.140625" fill="#F5FAFF"></rect></g><g transform="translate(-9924.5, -9358)" id="sdjakdjak6"><defs></defs><g class="svg-topic-con" transform="translate(0.5,0.5)"><path part="right" sub="true" id="line_0defa28543c5" d="M 10000 9936 L 10000 9420.5 A 8 8 0 0 1 10008 9412.5 L 10125.5 9412.5" stroke="#8793A5" fill="none" stroke-width="2"></path><path part="right" sub="true" id="line_89a5bccb2f51" d="M 10000 9936 L 10000 9662 A 8 8 0 0 1 10008 9654 L 10125.5 9654" stroke="#8793A5" fill="none" stroke-width="2"></path><path part="right" sub="true" id="line_8eaefb29b461" d="M 10000 9936 L 10000 9976 A 8 8 0 0 0 10008 9984 L 10125.5 9984" stroke="#8793A5" fill="none" stroke-width="2"></path><path part="right" sub="true" id="line_e5a71b13ebbd" d="M 10000 9936 L 10000 10189 A 8 8 0 0 0 10008 10197 L 10125.5 10197" stroke="#8793A5" fill="none" stroke-width="2"></path><path part="right" sub="true" id="line_d17de3925138" d="M 10000 9936 L 10000 10382.5 A 8 8 0 0 0 10008 10390.5 L 10125.5 10390.5" stroke="#8793A5" fill="none" stroke-width="2"></path></g><g class="svg-connection-con" transform="translate(0.5,0.5)"></g><g class="svg-freesums-con" transform="translate(0.5,0.5)"></g><g class="svg-freebos-con" transform="translate(0.5,0.5)"></g></g><g id="d17de3925138"><rect x="201" y="1008.140625" rx="5px" ry="5px" width="56" height="49" style="fill: #96D2E7; stroke:none;"></rect><g><text text-anchor="start" align="top" anchor="start" font-size="18px" font-weight="normal" fill="rgb(0, 0, 0)" style="font-size:18px;font-family:微软雅黑;color:#000000;font-style:normal;text-align:left;font-weight:normal;"><tspan x="211" y="1040.740625"><tspan>账户</tspan></tspan></text></g></g><g id="a05dcfe957f7"><rect x="285" y="959.140625" rx="0px" ry="0px" width="42" height="31" style="fill: #F5FAFF; stroke:none;"></rect><g><text text-anchor="start" align="top" anchor="start" font-size="14px" font-weight="normal" fill="rgb(67, 75, 84)" style="font-size:14px;font-family:微软雅黑;color:#434B54;font-style:normal;text-align:left;font-weight:normal;"><tspan x="291" y="980.940625"><tspan>存储</tspan></tspan></text></g></g><g id="fd1107b0aee8"><rect x="355" y="939" rx="0px" ry="0px" width="42" height="31" style="fill: #F5FAFF; stroke:none;"></rect><g><text text-anchor="start" align="top" anchor="start" font-size="14px" font-weight="normal" fill="rgb(67, 75, 84)" style="font-size:14px;font-family:微软雅黑;color:#434B54;font-style:normal;text-align:left;font-weight:normal;"><tspan x="361" y="960.8"><tspan>数据</tspan></tspan></text></g></g><g id="9f89265034cf"><rect x="355" y="978" rx="0px" ry="0px" width="42" height="31" style="fill: #F5FAFF; stroke:none;"></rect><g><text text-anchor="start" align="top" anchor="start" font-size="14px" font-weight="normal" fill="rgb(67, 75, 84)" style="font-size:14px;font-family:微软雅黑;color:#434B54;font-style:normal;text-align:left;font-weight:normal;"><tspan x="361" y="999.8"><tspan>代码</tspan></tspan></text></g></g><g id="cbd0cf4076aa"><rect x="285" y="1017" rx="0px" ry="0px" width="314" height="31" style="fill: #F5FAFF; stroke:none;"></rect><g><text text-anchor="start" align="top" anchor="start" font-size="14px" font-weight="normal" fill="rgb(67, 75, 84)" style="font-size:14px;font-family:微软雅黑;color:#434B54;font-style:normal;text-align:left;font-weight:normal;"><tspan x="291" y="1038.8"><tspan>外部账户（Externally Owned Account， EOA）</tspan></tspan></text></g></g><g id="fe5b8eb0ce60"><rect x="627.375" y="1017.140625" rx="0px" ry="0px" width="152" height="31" style="fill: #F5FAFF; stroke:none;"></rect><g><text text-anchor="start" align="top" anchor="start" font-size="14px" font-weight="normal" fill="rgb(67, 75, 84)" style="font-size:14px;font-family:微软雅黑;color:#434B54;font-style:normal;text-align:left;font-weight:normal;"><tspan x="633.375" y="1038.940625"><tspan>即平常遇到的余额账户</tspan></tspan></text></g></g><g id="0582e43ea246"><rect x="285" y="1076.140625" rx="0px" ry="0px" width="211" height="31" style="fill: #F5FAFF; stroke:none;"></rect><g><text text-anchor="start" align="top" anchor="start" font-size="14px" font-weight="normal" fill="rgb(67, 75, 84)" style="font-size:14px;font-family:微软雅黑;color:#434B54;font-style:normal;text-align:left;font-weight:normal;"><tspan x="291" y="1097.9406250000002"><tspan>合约账户（Contract Account）</tspan></tspan></text></g></g><g id="a5689f406d2a"><rect x="523.78125" y="1056" rx="0px" ry="0px" width="119" height="31" style="fill: #F5FAFF; stroke:none;"></rect><g><text text-anchor="start" align="top" anchor="start" font-size="14px" font-weight="normal" fill="rgb(67, 75, 84)" style="font-size:14px;font-family:微软雅黑;color:#434B54;font-style:normal;text-align:left;font-weight:normal;"><tspan x="529.78125" y="1077.8000000000002"><tspan>SignerDelegated</tspan></tspan></text></g></g><g id="cd5b2836ab06"><rect x="670.953125" y="1056.140625" rx="0px" ry="0px" width="110" height="31" style="fill: #F5FAFF; stroke:none;"></rect><g><text text-anchor="start" align="top" anchor="start" font-size="14px" font-weight="normal" fill="rgb(67, 75, 84)" style="font-size:14px;font-family:微软雅黑;color:#434B54;font-style:normal;text-align:left;font-weight:normal;"><tspan x="676.953125" y="1077.9406250000002"><tspan>表示是合约账户</tspan></tspan></text></g></g><g id="330d273993f0"><rect x="523.78125" y="1095" rx="0px" ry="0px" width="118" height="31" style="fill: #F5FAFF; stroke:none;"></rect><g><text text-anchor="start" align="top" anchor="start" font-size="14px" font-weight="normal" fill="rgb(67, 75, 84)" style="font-size:14px;font-family:微软雅黑;color:#434B54;font-style:normal;text-align:left;font-weight:normal;"><tspan x="529.78125" y="1116.8000000000002"><tspan>SignerCapability</tspan></tspan></text></g></g><g id="c5640604881e"><rect x="669.828125" y="1095.140625" rx="0px" ry="0px" width="186" height="31" style="fill: #F5FAFF; stroke:none;"></rect><g><text text-anchor="start" align="top" anchor="start" font-size="14px" font-weight="normal" fill="rgb(67, 75, 84)" style="font-size:14px;font-family:微软雅黑;color:#434B54;font-style:normal;text-align:left;font-weight:normal;"><tspan x="675.828125" y="1116.9406250000002"><tspan>表示可以发起交易，以 addr</tspan></tspan></text></g></g><g id="e5a71b13ebbd"><rect x="201" y="815.140625" rx="5px" ry="5px" width="56" height="49" style="fill: #96D2E7; stroke:none;"></rect><g><text text-anchor="start" align="top" anchor="start" font-size="18px" font-weight="normal" fill="rgb(0, 0, 0)" style="font-size:18px;font-family:微软雅黑;color:#000000;font-style:normal;text-align:left;font-weight:normal;"><tspan x="211" y="847.7406249999999"><tspan>调用</tspan></tspan></text></g></g><g id="92fbebb8d0cc"><rect x="285" y="765" rx="0px" ry="0px" width="219" height="31" style="fill: #F5FAFF; stroke:none;"></rect><g><text text-anchor="start" align="top" anchor="start" font-size="14px" font-weight="normal" fill="rgb(67, 75, 84)" style="font-size:14px;font-family:微软雅黑;color:#434B54;font-style:normal;text-align:left;font-weight:normal;"><tspan x="291" y="786.8"><tspan>每次调用 sender 都需要花费 gas</tspan></tspan></text></g></g><g id="a1ba0f19882f"><rect x="285" y="804" rx="0px" ry="0px" width="111" height="31" style="fill: #F5FAFF; stroke:none;"></rect><g><text text-anchor="start" align="top" anchor="start" font-size="14px" font-weight="normal" fill="rgb(67, 75, 84)" style="font-size:14px;font-family:微软雅黑;color:#434B54;font-style:normal;text-align:left;font-weight:normal;"><tspan x="291" y="825.8"><tspan>account unlock</tspan></tspan></text></g></g><g id="8246bd272593"><rect x="285" y="843" rx="0px" ry="0px" width="595" height="31" style="fill: #F5FAFF; stroke:none;"></rect><g><text text-anchor="start" align="top" anchor="start" font-size="14px" font-weight="normal" fill="rgb(67, 75, 84)" style="font-size:14px;font-family:微软雅黑;color:#434B54;font-style:normal;text-align:left;font-weight:normal;"><tspan x="291" y="864.8"><tspan>account execute-function --function 0xDDDD::MyCounter::init_counter -s 0xAAAAAA -b</tspan></tspan></text></g></g><g id="789837b188ec"><rect x="285" y="882" rx="0px" ry="0px" width="320" height="31" style="fill: #F5FAFF; stroke:none;"></rect><g><text text-anchor="start" align="top" anchor="start" font-size="14px" font-weight="normal" fill="rgb(67, 75, 84)" style="font-size:14px;font-family:微软雅黑;color:#434B54;font-style:normal;text-align:left;font-weight:normal;"><tspan x="291" y="903.8"><tspan>若是多签账户还需要其他人的签名才能提交到链上</tspan></tspan></text></g></g><g id="8eaefb29b461"><rect x="201" y="602.140625" rx="5px" ry="5px" width="56" height="49" style="fill: #96D2E7; stroke:none;"></rect><g><text text-anchor="start" align="top" anchor="start" font-size="18px" font-weight="normal" fill="rgb(0, 0, 0)" style="font-size:18px;font-family:微软雅黑;color:#000000;font-style:normal;text-align:left;font-weight:normal;"><tspan x="211" y="634.7406249999999"><tspan>部署</tspan></tspan></text></g></g><g id="bec28d40aee3"><rect x="285" y="533.140625" rx="0px" ry="0px" width="143" height="31" style="fill: #F5FAFF; stroke:none;"></rect><g><text text-anchor="start" align="top" anchor="start" font-size="14px" font-weight="normal" fill="rgb(67, 75, 84)" style="font-size:14px;font-family:微软雅黑;color:#434B54;font-style:normal;text-align:left;font-weight:normal;"><tspan x="291" y="554.940625"><tspan>MyCounter::Counter</tspan></tspan></text></g></g><g id="0ba08c5f30f8"><rect x="455.515625" y="513" rx="0px" ry="0px" width="88" height="31" style="fill: #F5FAFF; stroke:none;"></rect><g><text text-anchor="start" align="top" anchor="start" font-size="14px" font-weight="normal" fill="rgb(67, 75, 84)" style="font-size:14px;font-family:微软雅黑;color:#434B54;font-style:normal;text-align:left;font-weight:normal;"><tspan x="461.515625" y="534.8"><tspan>init_counter</tspan></tspan></text></g></g><g id="18977efd3325"><rect x="455.515625" y="552" rx="0px" ry="0px" width="93" height="31" style="fill: #F5FAFF; stroke:none;"></rect><g><text text-anchor="start" align="top" anchor="start" font-size="14px" font-weight="normal" fill="rgb(67, 75, 84)" style="font-size:14px;font-family:微软雅黑;color:#434B54;font-style:normal;text-align:left;font-weight:normal;"><tspan x="461.515625" y="573.8"><tspan>incr_counter</tspan></tspan></text></g></g><g id="09087f2970e2"><rect x="285" y="591" rx="0px" ry="0px" width="42" height="31" style="fill: #F5FAFF; stroke:none;"></rect><g><text text-anchor="start" align="top" anchor="start" font-size="14px" font-weight="normal" fill="rgb(67, 75, 84)" style="font-size:14px;font-family:微软雅黑;color:#434B54;font-style:normal;text-align:left;font-weight:normal;"><tspan x="291" y="612.8"><tspan>编译</tspan></tspan></text></g></g><g id="7a2fb60071a7"><rect x="355" y="591.140625" rx="0px" ry="0px" width="140" height="31" style="fill: #F5FAFF; stroke:none;"></rect><g><text text-anchor="start" align="top" anchor="start" font-size="14px" font-weight="normal" fill="rgb(67, 75, 84)" style="font-size:14px;font-family:微软雅黑;color:#434B54;font-style:normal;text-align:left;font-weight:normal;"><tspan x="361" y="612.940625"><tspan>mpm package build</tspan></tspan></text></g></g><g id="0ef6342ae8e8"><rect x="285" y="630" rx="0px" ry="0px" width="42" height="31" style="fill: #F5FAFF; stroke:none;"></rect><g><text text-anchor="start" align="top" anchor="start" font-size="14px" font-weight="normal" fill="rgb(67, 75, 84)" style="font-size:14px;font-family:微软雅黑;color:#434B54;font-style:normal;text-align:left;font-weight:normal;"><tspan x="291" y="651.8"><tspan>发布</tspan></tspan></text></g></g><g id="0270b9a692de"><rect x="355" y="630.140625" rx="0px" ry="0px" width="95" height="31" style="fill: #F5FAFF; stroke:none;"></rect><g><text text-anchor="start" align="top" anchor="start" font-size="14px" font-weight="normal" fill="rgb(67, 75, 84)" style="font-size:14px;font-family:微软雅黑;color:#434B54;font-style:normal;text-align:left;font-weight:normal;"><tspan x="361" y="651.940625"><tspan>mpm release</tspan></tspan></text></g></g><g id="ea5f96afdd6b"><rect x="285" y="689.140625" rx="0px" ry="0px" width="82" height="31" style="fill: #F5FAFF; stroke:none;"></rect><g><text text-anchor="start" align="top" anchor="start" font-size="14px" font-weight="normal" fill="rgb(67, 75, 84)" style="font-size:14px;font-family:微软雅黑;color:#434B54;font-style:normal;text-align:left;font-weight:normal;"><tspan x="291" y="710.940625"><tspan>部署到链上</tspan></tspan></text></g></g><g id="e1bb68d428e3"><rect x="395" y="669" rx="0px" ry="0px" width="111" height="31" style="fill: #F5FAFF; stroke:none;"></rect><g><text text-anchor="start" align="top" anchor="start" font-size="14px" font-weight="normal" fill="rgb(67, 75, 84)" style="font-size:14px;font-family:微软雅黑;color:#434B54;font-style:normal;text-align:left;font-weight:normal;"><tspan x="401" y="690.8"><tspan>account unlock</tspan></tspan></text></g></g><g id="726965477f99"><rect x="395" y="708" rx="0px" ry="0px" width="239" height="31" style="fill: #F5FAFF; stroke:none;"></rect><g><text text-anchor="start" align="top" anchor="start" font-size="14px" font-weight="normal" fill="rgb(67, 75, 84)" style="font-size:14px;font-family:微软雅黑;color:#434B54;font-style:normal;text-align:left;font-weight:normal;"><tspan x="401" y="729.8"><tspan>dev deploy 脚本路径 -s sender地址</tspan></tspan></text></g></g><g id="89a5bccb2f51"><rect x="201" y="272.140625" rx="5px" ry="5px" width="56" height="49" style="fill: #96D2E7; stroke:none;"></rect><g><text text-anchor="start" align="top" anchor="start" font-size="18px" font-weight="normal" fill="rgb(0, 0, 0)" style="font-size:18px;font-family:微软雅黑;color:#000000;font-style:normal;text-align:left;font-weight:normal;"><tspan x="211" y="304.740625"><tspan>资源</tspan></tspan></text></g></g><g id="b329193b5eca"><rect x="285" y="164.140625" rx="0px" ry="0px" width="68" height="31" style="fill: #F5FAFF; stroke:none;"></rect><g><text text-anchor="start" align="top" anchor="start" font-size="14px" font-weight="normal" fill="rgb(67, 75, 84)" style="font-size:14px;font-family:微软雅黑;color:#434B54;font-style:normal;text-align:left;font-weight:normal;"><tspan x="291" y="185.940625"><tspan>默认资源</tspan></tspan></text></g></g><g id="ac51e7afdbc2"><rect x="381" y="105" rx="0px" ry="0px" width="65" height="31" style="fill: #F5FAFF; stroke:none;"></rect><g><text text-anchor="start" align="top" anchor="start" font-size="14px" font-weight="normal" fill="rgb(67, 75, 84)" style="font-size:14px;font-family:微软雅黑;color:#434B54;font-style:normal;text-align:left;font-weight:normal;"><tspan x="387" y="126.80000000000001"><tspan>Account</tspan></tspan></text></g></g><g id="844099c367cc"><rect x="381" y="144" rx="0px" ry="0px" width="128" height="31" style="fill: #F5FAFF; stroke:none;"></rect><g><text text-anchor="start" align="top" anchor="start" font-size="14px" font-weight="normal" fill="rgb(67, 75, 84)" style="font-size:14px;font-family:微软雅黑;color:#434B54;font-style:normal;text-align:left;font-weight:normal;"><tspan x="387" y="165.8"><tspan>AutoAcceptToken</tspan></tspan></text></g></g><g id="cd147837b592"><rect x="381" y="183" rx="0px" ry="0px" width="64" height="31" style="fill: #F5FAFF; stroke:none;"></rect><g><text text-anchor="start" align="top" anchor="start" font-size="14px" font-weight="normal" fill="rgb(67, 75, 84)" style="font-size:14px;font-family:微软雅黑;color:#434B54;font-style:normal;text-align:left;font-weight:normal;"><tspan x="387" y="204.8"><tspan>Balance</tspan></tspan></text></g></g><g id="e4de2f8d4fd5"><rect x="381" y="222" rx="0px" ry="0px" width="158" height="31" style="fill: #F5FAFF; stroke:none;"></rect><g><text text-anchor="start" align="top" anchor="start" font-size="14px" font-weight="normal" fill="rgb(67, 75, 84)" style="font-size:14px;font-family:微软雅黑;color:#434B54;font-style:normal;text-align:left;font-weight:normal;"><tspan x="387" y="243.8"><tspan>EventHandleGenerator</tspan></tspan></text></g></g><g id="68df8aa01497"><rect x="285" y="261" rx="0px" ry="0px" width="162" height="31" style="fill: #F5FAFF; stroke:none;"></rect><g><text text-anchor="start" align="top" anchor="start" font-size="14px" font-weight="normal" fill="rgb(67, 75, 84)" style="font-size:14px;font-family:微软雅黑;color:#434B54;font-style:normal;text-align:left;font-weight:normal;"><tspan x="291" y="282.79999999999995"><tspan>state list resource 地址</tspan></tspan></text></g></g><g id="3e743cfe31b9"><rect x="285" y="300" rx="0px" ry="0px" width="249" height="31" style="fill: #F5FAFF; stroke:none;"></rect><g><text text-anchor="start" align="top" anchor="start" font-size="14px" font-weight="normal" fill="rgb(67, 75, 84)" style="font-size:14px;font-family:微软雅黑;color:#434B54;font-style:normal;text-align:left;font-weight:normal;"><tspan x="291" y="321.79999999999995"><tspan>state get resource 0xDDDD::xxx::xxx</tspan></tspan></text></g></g><g id="dc44a69bd044"><rect x="285" y="398.140625" rx="0px" ry="0px" width="50" height="31" style="fill: #F5FAFF; stroke:none;"></rect><g><text text-anchor="start" align="top" anchor="start" font-size="14px" font-weight="normal" fill="rgb(67, 75, 84)" style="font-size:14px;font-family:微软雅黑;color:#434B54;font-style:normal;text-align:left;font-weight:normal;"><tspan x="291" y="419.94062499999995"><tspan>ability</tspan></tspan></text></g></g><g id="58a2cae53fad"><rect x="363.40625" y="339" rx="0px" ry="0px" width="43" height="31" style="fill: #F5FAFF; stroke:none;"></rect><g><text text-anchor="start" align="top" anchor="start" font-size="14px" font-weight="normal" fill="rgb(67, 75, 84)" style="font-size:14px;font-family:微软雅黑;color:#434B54;font-style:normal;text-align:left;font-weight:normal;"><tspan x="369.40625" y="360.79999999999995"><tspan>copy</tspan></tspan></text></g></g><g id="fdaf2fbd655c"><rect x="434.421875" y="339.140625" rx="0px" ry="0px" width="189" height="31" style="fill: #F5FAFF; stroke:none;"></rect><g><text text-anchor="start" align="top" anchor="start" font-size="14px" font-weight="normal" fill="rgb(67, 75, 84)" style="font-size:14px;font-family:微软雅黑;color:#434B54;font-style:normal;text-align:left;font-weight:normal;"><tspan x="440.421875" y="360.94062499999995"><tspan>let another = copy counter;</tspan></tspan></text></g></g><g id="7228b2bd0c60"><rect x="363.40625" y="378" rx="0px" ry="0px" width="42" height="31" style="fill: #F5FAFF; stroke:none;"></rect><g><text text-anchor="start" align="top" anchor="start" font-size="14px" font-weight="normal" fill="rgb(67, 75, 84)" style="font-size:14px;font-family:微软雅黑;color:#434B54;font-style:normal;text-align:left;font-weight:normal;"><tspan x="369.40625" y="399.79999999999995"><tspan>drop</tspan></tspan></text></g></g><g id="b4767e46fa03"><rect x="433.40625" y="378.140625" rx="0px" ry="0px" width="180" height="31" style="fill: #F5FAFF; stroke:none;"></rect><g><text text-anchor="start" align="top" anchor="start" font-size="14px" font-weight="normal" fill="rgb(67, 75, 84)" style="font-size:14px;font-family:微软雅黑;color:#434B54;font-style:normal;text-align:left;font-weight:normal;"><tspan x="439.40625" y="399.94062499999995"><tspan>失去所有权时，如函数返回</tspan></tspan></text></g></g><g id="2a6358c1a7a3"><rect x="363.40625" y="417" rx="0px" ry="0px" width="42" height="31" style="fill: #F5FAFF; stroke:none;"></rect><g><text text-anchor="start" align="top" anchor="start" font-size="14px" font-weight="normal" fill="rgb(67, 75, 84)" style="font-size:14px;font-family:微软雅黑;color:#434B54;font-style:normal;text-align:left;font-weight:normal;"><tspan x="369.40625" y="438.79999999999995"><tspan>key</tspan></tspan></text></g></g><g id="9a1a755ac416"><rect x="433.40625" y="417.140625" rx="0px" ry="0px" width="68" height="31" style="fill: #F5FAFF; stroke:none;"></rect><g><text text-anchor="start" align="top" anchor="start" font-size="14px" font-weight="normal" fill="rgb(67, 75, 84)" style="font-size:14px;font-family:微软雅黑;color:#434B54;font-style:normal;text-align:left;font-weight:normal;"><tspan x="439.40625" y="438.94062499999995"><tspan>索引查询</tspan></tspan></text></g></g><g id="e0bbf72f755e"><rect x="363.40625" y="456" rx="0px" ry="0px" width="45" height="31" style="fill: #F5FAFF; stroke:none;"></rect><g><text text-anchor="start" align="top" anchor="start" font-size="14px" font-weight="normal" fill="rgb(67, 75, 84)" style="font-size:14px;font-family:微软雅黑;color:#434B54;font-style:normal;text-align:left;font-weight:normal;"><tspan x="369.40625" y="477.79999999999995"><tspan>store</tspan></tspan></text></g></g><g id="f06dfb4be514"><rect x="436.53125" y="456.140625" rx="0px" ry="0px" width="68" height="31" style="fill: #F5FAFF; stroke:none;"></rect><g><text text-anchor="start" align="top" anchor="start" font-size="14px" font-weight="normal" fill="rgb(67, 75, 84)" style="font-size:14px;font-family:微软雅黑;color:#434B54;font-style:normal;text-align:left;font-weight:normal;"><tspan x="442.53125" y="477.94062499999995"><tspan>全局存储</tspan></tspan></text></g></g><g id="0defa28543c5"><rect x="201" y="30" rx="5px" ry="5px" width="92" height="49" style="fill: #96D2E7; stroke:none;"></rect><g><text text-anchor="start" align="top" anchor="start" font-size="18px" font-weight="normal" fill="rgb(0, 0, 0)" style="font-size:18px;font-family:微软雅黑;color:#000000;font-style:normal;text-align:left;font-weight:normal;"><tspan x="211" y="62.599999999999994"><tspan>资源管理</tspan></tspan></text></g></g><g transform="translate(201, 939)" id="sdjakdjak0"><g id="subline_d17de3925138" transform="translate(0.5,0.5)"><path id="line_a05dcfe957f7" d="M 56 93.5 L 74 93.5 L 74 39.640625 A 4 4 0 0 1 78 35.640625 L 84 35.640625" p="d17de3925138" stroke="#8793A5" fill="none" stroke-linecap="square" stroke-width="1"></path><path id="line_fd1107b0aee8" d="M 126 35.640625 L 144 35.640625 L 144 19.5 A 4 4 0 0 1 148 15.5 L 154 15.5" p="a05dcfe957f7" stroke="#8793A5" fill="none" stroke-linecap="square" stroke-width="1"></path><path id="line_9f89265034cf" d="M 126 35.640625 L 144 35.640625 L 144 50.5 A 4 4 0 0 0 148 54.5 L 154 54.5" p="a05dcfe957f7" stroke="#8793A5" fill="none" stroke-linecap="square" stroke-width="1"></path><path id="line_cbd0cf4076aa" d="M 56 93.5 L 74 93.5 L 74 93.5 L 84 93.5" p="d17de3925138" stroke="#8793A5" fill="none" stroke-linecap="square" stroke-width="1"></path><path id="line_fe5b8eb0ce60" d="M 398.375 93.5 L 417 93.5 L 417 93.640625 L 426.375 93.640625" p="cbd0cf4076aa" stroke="#8793A5" fill="none" stroke-linecap="square" stroke-width="1"></path><path id="line_0582e43ea246" d="M 56 93.5 L 74 93.5 L 74 148.640625 A 4 4 0 0 0 78 152.640625 L 84 152.640625" p="d17de3925138" stroke="#8793A5" fill="none" stroke-linecap="square" stroke-width="1"></path><path id="line_a5689f406d2a" d="M 294.78125 152.640625 L 313 152.640625 L 313 136.5 A 4 4 0 0 1 317 132.5 L 322.78125 132.5" p="0582e43ea246" stroke="#8793A5" fill="none" stroke-linecap="square" stroke-width="1"></path><path id="line_cd5b2836ab06" d="M 441.953125 132.5 L 460 132.5 L 460 132.640625 L 469.953125 132.640625" p="a5689f406d2a" stroke="#8793A5" fill="none" stroke-linecap="square" stroke-width="1"></path><path id="line_330d273993f0" d="M 294.78125 152.640625 L 313 152.640625 L 313 167.5 A 4 4 0 0 0 317 171.5 L 322.78125 171.5" p="0582e43ea246" stroke="#8793A5" fill="none" stroke-linecap="square" stroke-width="1"></path><path id="line_c5640604881e" d="M 440.828125 171.5 L 459 171.5 L 459 171.640625 L 468.828125 171.640625" p="330d273993f0" stroke="#8793A5" fill="none" stroke-linecap="square" stroke-width="1"></path></g><g transform="translate(0.5,0.5)"></g><g class="svg-summary-con" transform="translate(0.5,0.5)"></g><g class="svg-boundary-con" transform="translate(0.5,0.5)"></g></g><g transform="translate(201, 765)" id="sdjakdjak1"><g id="subline_e5a71b13ebbd" transform="translate(0.5,0.5)"><path id="line_92fbebb8d0cc" d="M 56 74 L 74 74 L 74 19.5 A 4 4 0 0 1 78 15.5 L 84 15.5" p="e5a71b13ebbd" stroke="#8793A5" fill="none" stroke-linecap="square" stroke-width="1"></path><path id="line_a1ba0f19882f" d="M 56 74 L 74 74 L 74 58.5 A 4 4 0 0 1 78 54.5 L 84 54.5" p="e5a71b13ebbd" stroke="#8793A5" fill="none" stroke-linecap="square" stroke-width="1"></path><path id="line_8246bd272593" d="M 56 74 L 74 74 L 74 89.5 A 4 4 0 0 0 78 93.5 L 84 93.5" p="e5a71b13ebbd" stroke="#8793A5" fill="none" stroke-linecap="square" stroke-width="1"></path><path id="line_789837b188ec" d="M 56 74 L 74 74 L 74 128.5 A 4 4 0 0 0 78 132.5 L 84 132.5" p="e5a71b13ebbd" stroke="#8793A5" fill="none" stroke-linecap="square" stroke-width="1"></path></g><g transform="translate(0.5,0.5)"></g><g class="svg-summary-con" transform="translate(0.5,0.5)"></g><g class="svg-boundary-con" transform="translate(0.5,0.5)"></g></g><g transform="translate(201, 513)" id="sdjakdjak2"><g id="subline_8eaefb29b461" transform="translate(0.5,0.5)"><path id="line_bec28d40aee3" d="M 56 113 L 74 113 L 74 39.640625 A 4 4 0 0 1 78 35.640625 L 84 35.640625" p="8eaefb29b461" stroke="#8793A5" fill="none" stroke-linecap="square" stroke-width="1"></path><path id="line_0ba08c5f30f8" d="M 226.515625 35.640625 L 245 35.640625 L 245 19.5 A 4 4 0 0 1 249 15.5 L 254.515625 15.5" p="bec28d40aee3" stroke="#8793A5" fill="none" stroke-linecap="square" stroke-width="1"></path><path id="line_18977efd3325" d="M 226.515625 35.640625 L 245 35.640625 L 245 50.5 A 4 4 0 0 0 249 54.5 L 254.515625 54.5" p="bec28d40aee3" stroke="#8793A5" fill="none" stroke-linecap="square" stroke-width="1"></path><path id="line_09087f2970e2" d="M 56 113 L 74 113 L 74 97.5 A 4 4 0 0 1 78 93.5 L 84 93.5" p="8eaefb29b461" stroke="#8793A5" fill="none" stroke-linecap="square" stroke-width="1"></path><path id="line_7a2fb60071a7" d="M 126 93.5 L 144 93.5 L 144 93.640625 L 154 93.640625" p="09087f2970e2" stroke="#8793A5" fill="none" stroke-linecap="square" stroke-width="1"></path><path id="line_0ef6342ae8e8" d="M 56 113 L 74 113 L 74 128.5 A 4 4 0 0 0 78 132.5 L 84 132.5" p="8eaefb29b461" stroke="#8793A5" fill="none" stroke-linecap="square" stroke-width="1"></path><path id="line_0270b9a692de" d="M 126 132.5 L 144 132.5 L 144 132.640625 L 154 132.640625" p="0ef6342ae8e8" stroke="#8793A5" fill="none" stroke-linecap="square" stroke-width="1"></path><path id="line_ea5f96afdd6b" d="M 56 113 L 74 113 L 74 187.640625 A 4 4 0 0 0 78 191.640625 L 84 191.640625" p="8eaefb29b461" stroke="#8793A5" fill="none" stroke-linecap="square" stroke-width="1"></path><path id="line_e1bb68d428e3" d="M 166 191.640625 L 184 191.640625 L 184 175.5 A 4 4 0 0 1 188 171.5 L 194 171.5" p="ea5f96afdd6b" stroke="#8793A5" fill="none" stroke-linecap="square" stroke-width="1"></path><path id="line_726965477f99" d="M 166 191.640625 L 184 191.640625 L 184 206.5 A 4 4 0 0 0 188 210.5 L 194 210.5" p="ea5f96afdd6b" stroke="#8793A5" fill="none" stroke-linecap="square" stroke-width="1"></path></g><g transform="translate(0.5,0.5)"></g><g class="svg-summary-con" transform="translate(0.5,0.5)"></g><g class="svg-boundary-con" transform="translate(0.5,0.5)"></g></g><g transform="translate(201, 105)" id="sdjakdjak3"><g id="subline_89a5bccb2f51" transform="translate(0.5,0.5)"><path id="line_b329193b5eca" d="M 56 191 L 74 191 L 74 78.640625 A 4 4 0 0 1 78 74.640625 L 84 74.640625" p="89a5bccb2f51" stroke="#8793A5" fill="none" stroke-linecap="square" stroke-width="1"></path><path id="line_ac51e7afdbc2" d="M 152 74.640625 L 170 74.640625 L 170 19.5 A 4 4 0 0 1 174 15.5 L 180 15.5" p="b329193b5eca" stroke="#8793A5" fill="none" stroke-linecap="square" stroke-width="1"></path><path id="line_844099c367cc" d="M 152 74.640625 L 170 74.640625 L 170 58.5 A 4 4 0 0 1 174 54.5 L 180 54.5" p="b329193b5eca" stroke="#8793A5" fill="none" stroke-linecap="square" stroke-width="1"></path><path id="line_cd147837b592" d="M 152 74.640625 L 170 74.640625 L 170 89.5 A 4 4 0 0 0 174 93.5 L 180 93.5" p="b329193b5eca" stroke="#8793A5" fill="none" stroke-linecap="square" stroke-width="1"></path><path id="line_e4de2f8d4fd5" d="M 152 74.640625 L 170 74.640625 L 170 128.5 A 4 4 0 0 0 174 132.5 L 180 132.5" p="b329193b5eca" stroke="#8793A5" fill="none" stroke-linecap="square" stroke-width="1"></path><path id="line_68df8aa01497" d="M 56 191 L 74 191 L 74 175.5 A 4 4 0 0 1 78 171.5 L 84 171.5" p="89a5bccb2f51" stroke="#8793A5" fill="none" stroke-linecap="square" stroke-width="1"></path><path id="line_3e743cfe31b9" d="M 56 191 L 74 191 L 74 206.5 A 4 4 0 0 0 78 210.5 L 84 210.5" p="89a5bccb2f51" stroke="#8793A5" fill="none" stroke-linecap="square" stroke-width="1"></path><path id="line_dc44a69bd044" d="M 56 191 L 74 191 L 74 304.640625 A 4 4 0 0 0 78 308.640625 L 84 308.640625" p="89a5bccb2f51" stroke="#8793A5" fill="none" stroke-linecap="square" stroke-width="1"></path><path id="line_58a2cae53fad" d="M 134.40625 308.640625 L 153 308.640625 L 153 253.5 A 4 4 0 0 1 157 249.5 L 162.40625 249.5" p="dc44a69bd044" stroke="#8793A5" fill="none" stroke-linecap="square" stroke-width="1"></path><path id="line_fdaf2fbd655c" d="M 205.421875 249.5 L 224 249.5 L 224 249.640625 L 233.421875 249.640625" p="58a2cae53fad" stroke="#8793A5" fill="none" stroke-linecap="square" stroke-width="1"></path><path id="line_7228b2bd0c60" d="M 134.40625 308.640625 L 153 308.640625 L 153 292.5 A 4 4 0 0 1 157 288.5 L 162.40625 288.5" p="dc44a69bd044" stroke="#8793A5" fill="none" stroke-linecap="square" stroke-width="1"></path><path id="line_b4767e46fa03" d="M 204.40625 288.5 L 223 288.5 L 223 288.640625 L 232.40625 288.640625" p="7228b2bd0c60" stroke="#8793A5" fill="none" stroke-linecap="square" stroke-width="1"></path><path id="line_2a6358c1a7a3" d="M 134.40625 308.640625 L 153 308.640625 L 153 323.5 A 4 4 0 0 0 157 327.5 L 162.40625 327.5" p="dc44a69bd044" stroke="#8793A5" fill="none" stroke-linecap="square" stroke-width="1"></path><path id="line_9a1a755ac416" d="M 204.40625 327.5 L 223 327.5 L 223 327.640625 L 232.40625 327.640625" p="2a6358c1a7a3" stroke="#8793A5" fill="none" stroke-linecap="square" stroke-width="1"></path><path id="line_e0bbf72f755e" d="M 134.40625 308.640625 L 153 308.640625 L 153 362.5 A 4 4 0 0 0 157 366.5 L 162.40625 366.5" p="dc44a69bd044" stroke="#8793A5" fill="none" stroke-linecap="square" stroke-width="1"></path><path id="line_f06dfb4be514" d="M 207.53125 366.5 L 226 366.5 L 226 366.640625 L 235.53125 366.640625" p="e0bbf72f755e" stroke="#8793A5" fill="none" stroke-linecap="square" stroke-width="1"></path></g><g transform="translate(0.5,0.5)"></g><g class="svg-summary-con" transform="translate(0.5,0.5)"></g><g class="svg-boundary-con" transform="translate(0.5,0.5)"></g></g><g transform="translate(201, 30)" id="sdjakdjak4"><g id="subline_0defa28543c5" transform="translate(0.5,0.5)"></g><g transform="translate(0.5,0.5)"></g><g class="svg-summary-con" transform="translate(0.5,0.5)"></g><g class="svg-boundary-con" transform="translate(0.5,0.5)"></g></g><g transform="translate(30, 544)" id="sdjakdjak5"><g id="subline_root" transform="translate(0.5,0.5)"></g><g transform="translate(0.5,0.5)"></g><g class="svg-summary-con" transform="translate(0.5,0.5)"></g><g class="svg-boundary-con" transform="translate(0.5,0.5)"></g></g><g id="root"><rect x="30" y="544" rx="5px" ry="5px" width="91" height="68" style="fill: #5A719A; stroke:none;"></rect><g><text text-anchor="start" align="top" anchor="start" font-size="27px" font-weight="normal" fill="rgb(255, 255, 255)" style="font-size:27px;font-family:微软雅黑;color:#fff;font-style:normal;text-align:left;font-weight:normal;"><tspan x="42" y="589.4312500000001"><tspan>move</tspan></tspan></text></g></g></svg>