<svg id="SvgjsSvg1000" xmlns="http://www.w3.org/2000/svg" version="1.1" xmlns:xlink="http://www.w3.org/1999/xlink" xmlns:svgjs="http://svgjs.com/svgjs" width="768.890625" height="961"><defs id="SvgjsDefs1001"><marker id="SvgjsMarker1051" markerWidth="14" markerHeight="10" refX="10" refY="5" viewBox="0 0 14 10" orient="auto" markerUnits="userSpaceOnUse" stroke-dasharray="0,0"><path id="SvgjsPath1052" d="M0 0L14 5L0 10L0 0 " fill="#323232" stroke="#323232" stroke-width="1"></path></marker><marker id="SvgjsMarker1055" markerWidth="14" markerHeight="10" refX="10" refY="5" viewBox="0 0 14 10" orient="auto" markerUnits="userSpaceOnUse" stroke-dasharray="0,0"><path id="SvgjsPath1056" d="M0 0L14 5L0 10L0 0 " fill="#323232" stroke="#323232" stroke-width="1"></path></marker><marker id="SvgjsMarker1059" markerWidth="14" markerHeight="10" refX="10" refY="5" viewBox="0 0 14 10" orient="auto" markerUnits="userSpaceOnUse" stroke-dasharray="0,0"><path id="SvgjsPath1060" d="M0 0L14 5L0 10L0 0 " fill="#323232" stroke="#323232" stroke-width="1"></path></marker><marker id="SvgjsMarker1063" markerWidth="14" markerHeight="10" refX="10" refY="5" viewBox="0 0 14 10" orient="auto" markerUnits="userSpaceOnUse" stroke-dasharray="0,0"><path id="SvgjsPath1064" d="M0 0L14 5L0 10L0 0 " fill="#323232" stroke="#323232" stroke-width="1"></path></marker><marker id="SvgjsMarker1067" markerWidth="14" markerHeight="10" refX="10" refY="5" viewBox="0 0 14 10" orient="auto" markerUnits="userSpaceOnUse" stroke-dasharray="0,0"><path id="SvgjsPath1068" d="M0 0L14 5L0 10L0 0 " fill="#323232" stroke="#323232" stroke-width="1"></path></marker><marker id="SvgjsMarker1071" markerWidth="14" markerHeight="10" refX="10" refY="5" viewBox="0 0 14 10" orient="auto" markerUnits="userSpaceOnUse" stroke-dasharray="0,0"><path id="SvgjsPath1072" d="M0 0L14 5L0 10L0 0 " fill="#323232" stroke="#323232" stroke-width="1"></path></marker><marker id="SvgjsMarker1081" markerWidth="14" markerHeight="10" refX="10" refY="5" viewBox="0 0 14 10" orient="auto" markerUnits="userSpaceOnUse" stroke-dasharray="0,0"><path id="SvgjsPath1082" d="M0 0L14 5L0 10L0 0 " fill="#323232" stroke="#323232" stroke-width="1"></path></marker><marker id="SvgjsMarker1091" markerWidth="14" markerHeight="10" refX="10" refY="5" viewBox="0 0 14 10" orient="auto" markerUnits="userSpaceOnUse" stroke-dasharray="0,0"><path id="SvgjsPath1092" d="M0 0L14 5L0 10L0 0 " fill="#323232" stroke="#323232" stroke-width="1"></path></marker><marker id="SvgjsMarker1101" markerWidth="14" markerHeight="10" refX="10" refY="5" viewBox="0 0 14 10" orient="auto" markerUnits="userSpaceOnUse" stroke-dasharray="0,0"><path id="SvgjsPath1102" d="M0 0L14 5L0 10L0 0 " fill="#323232" stroke="#323232" stroke-width="1"></path></marker><marker id="SvgjsMarker1111" markerWidth="14" markerHeight="10" refX="10" refY="5" viewBox="0 0 14 10" orient="auto" markerUnits="userSpaceOnUse" stroke-dasharray="0,0"><path id="SvgjsPath1112" d="M0 0L14 5L0 10L0 0 " fill="#323232" stroke="#323232" stroke-width="1"></path></marker><marker id="SvgjsMarker1121" markerWidth="14" markerHeight="10" refX="10" refY="5" viewBox="0 0 14 10" orient="auto" markerUnits="userSpaceOnUse" stroke-dasharray="0,0"><path id="SvgjsPath1122" d="M0 0L14 5L0 10L0 0 " fill="#323232" stroke="#323232" stroke-width="1"></path></marker><marker id="SvgjsMarker1131" markerWidth="14" markerHeight="10" refX="10" refY="5" viewBox="0 0 14 10" orient="auto" markerUnits="userSpaceOnUse" stroke-dasharray="0,0"><path id="SvgjsPath1132" d="M0 0L14 5L0 10L0 0 " fill="#323232" stroke="#323232" stroke-width="1"></path></marker><marker id="SvgjsMarker1141" markerWidth="14" markerHeight="10" refX="10" refY="5" viewBox="0 0 14 10" orient="auto" markerUnits="userSpaceOnUse" stroke-dasharray="0,0"><path id="SvgjsPath1142" d="M0 0L14 5L0 10L0 0 " fill="#323232" stroke="#323232" stroke-width="1"></path></marker><marker id="SvgjsMarker1151" markerWidth="14" markerHeight="10" refX="10" refY="5" viewBox="0 0 14 10" orient="auto" markerUnits="userSpaceOnUse" stroke-dasharray="0,0"><path id="SvgjsPath1152" d="M0 0L14 5L0 10L0 0 " fill="#323232" stroke="#323232" stroke-width="1"></path></marker></defs><g id="SvgjsG1007" transform="translate(368.33680555555543,148.01215277777774)"><path id="SvgjsPath1008" d="M0 35C0 -11.666666666666666 70 -11.666666666666666 70 35C70 81.66666666666667 0 81.66666666666667 0 35Z " stroke="rgba(50,50,50,1)" stroke-width="2" fill-opacity="1" fill="#ffffff"></path><g id="SvgjsG1009"><text id="SvgjsText1010" font-family="微软雅黑" text-anchor="middle" font-size="24px" width="50px" fill="#323232" font-weight="400" align="middle" lineHeight="125%" font-style="" opacity="1" y="14" transform="rotate(0)"><tspan id="SvgjsTspan1011" dy="30" x="35"><tspan id="SvgjsTspan1012" style="text-decoration:;">g</tspan></tspan></text></g></g><g id="SvgjsG1013" transform="translate(368.33680555555543,271.0121527777781)"><path id="SvgjsPath1014" d="M0 35C0 -11.666666666666666 70 -11.666666666666666 70 35C70 81.66666666666667 0 81.66666666666667 0 35Z " stroke="rgba(50,50,50,1)" stroke-width="2" fill-opacity="1" fill="#ffffff"></path><g id="SvgjsG1015"><text id="SvgjsText1016" font-family="微软雅黑" text-anchor="middle" font-size="24px" width="50px" fill="#323232" font-weight="400" align="middle" lineHeight="125%" font-style="" opacity="1" y="14" transform="rotate(0)"><tspan id="SvgjsTspan1017" dy="30" x="35"><tspan id="SvgjsTspan1018" style="text-decoration:;">e</tspan></tspan></text></g></g><g id="SvgjsG1019" transform="translate(368.33680555555543,387.01215277777806)"><path id="SvgjsPath1020" d="M0 35C0 -11.666666666666666 70 -11.666666666666666 70 35C70 81.66666666666667 0 81.66666666666667 0 35Z " stroke="rgba(50,50,50,1)" stroke-width="2" fill-opacity="1" fill="#ffffff"></path><g id="SvgjsG1021"><text id="SvgjsText1022" font-family="微软雅黑" text-anchor="middle" font-size="24px" width="50px" fill="#323232" font-weight="400" align="middle" lineHeight="125%" font-style="" opacity="1" y="14" transform="rotate(0)"><tspan id="SvgjsTspan1023" dy="30" x="35"><tspan id="SvgjsTspan1024" style="text-decoration:;">n</tspan></tspan></text></g></g><g id="SvgjsG1025" transform="translate(368.33680555555543,507.01215277777817)"><path id="SvgjsPath1026" d="M0 35C0 -11.666666666666666 70 -11.666666666666666 70 35C70 81.66666666666667 0 81.66666666666667 0 35Z " stroke="rgba(50,50,50,1)" stroke-width="2" fill-opacity="1" fill="#ffffff"></path><g id="SvgjsG1027"><text id="SvgjsText1028" font-family="微软雅黑" text-anchor="middle" font-size="24px" width="50px" fill="#323232" font-weight="400" align="middle" lineHeight="125%" font-style="" opacity="1" y="14" transform="rotate(0)"><tspan id="SvgjsTspan1029" dy="30" x="35"><tspan id="SvgjsTspan1030" style="text-decoration:;">e</tspan></tspan></text></g></g><g id="SvgjsG1031" transform="translate(368.33680555555543,633.0121527777783)"><path id="SvgjsPath1032" d="M0 35C0 -11.666666666666666 70 -11.666666666666666 70 35C70 81.66666666666667 0 81.66666666666667 0 35Z " stroke="rgba(50,50,50,1)" stroke-width="2" fill-opacity="1" fill="#ffffff"></path><g id="SvgjsG1033"><text id="SvgjsText1034" font-family="微软雅黑" text-anchor="middle" font-size="24px" width="50px" fill="#323232" font-weight="400" align="middle" lineHeight="125%" font-style="" opacity="1" y="14" transform="rotate(0)"><tspan id="SvgjsTspan1035" dy="30" x="35"><tspan id="SvgjsTspan1036" style="text-decoration:;">r</tspan></tspan></text></g></g><g id="SvgjsG1037" transform="translate(368.33680555555543,743.0121527777783)"><path id="SvgjsPath1038" d="M0 35C0 -11.666666666666666 70 -11.666666666666666 70 35C70 81.66666666666667 0 81.66666666666667 0 35Z " stroke="rgba(50,50,50,1)" stroke-width="2" fill-opacity="1" fill="#ffffff"></path><g id="SvgjsG1039"><text id="SvgjsText1040" font-family="微软雅黑" text-anchor="middle" font-size="24px" width="50px" fill="#323232" font-weight="400" align="middle" lineHeight="125%" font-style="" opacity="1" y="14" transform="rotate(0)"><tspan id="SvgjsTspan1041" dy="30" x="35"><tspan id="SvgjsTspan1042" style="text-decoration:;">a</tspan></tspan></text></g></g><g id="SvgjsG1043" transform="translate(368.33680555555543,866.0121527777783)"><path id="SvgjsPath1044" d="M0 35C0 -11.666666666666666 70 -11.666666666666666 70 35C70 81.66666666666667 0 81.66666666666667 0 35Z " stroke="rgba(50,50,50,1)" stroke-width="2" fill-opacity="1" fill="#7373fa"></path><g id="SvgjsG1045"><text id="SvgjsText1046" font-family="微软雅黑" text-anchor="middle" font-size="24px" width="50px" fill="#323232" font-weight="400" align="middle" lineHeight="125%" font-style="" opacity="1" y="14" transform="rotate(0)"><tspan id="SvgjsTspan1047" dy="30" x="35"><tspan id="SvgjsTspan1048" style="text-decoration:;">l</tspan></tspan></text></g></g><g id="SvgjsG1049"><path id="SvgjsPath1050" d="M403.33680555555543 219.0121527777781L403.33680555555543 244.5121527777781L403.33680555555543 244.5121527777781L403.33680555555543 267.4121527777781 " stroke="#323232" stroke-width="2" fill="none" marker-end="url(#SvgjsMarker1051)"></path></g><g id="SvgjsG1053"><path id="SvgjsPath1054" d="M403.33680555555543 342.01215277777806L403.33680555555543 364.01215277777806L403.33680555555543 364.01215277777806L403.33680555555543 383.41215277777803 " stroke="#323232" stroke-width="2" fill="none" marker-end="url(#SvgjsMarker1055)"></path></g><g id="SvgjsG1057"><path id="SvgjsPath1058" d="M403.33680555555543 458.01215277777817L403.33680555555543 482.01215277777817L403.33680555555543 482.01215277777817L403.33680555555543 503.41215277777815 " stroke="#323232" stroke-width="2" fill="none" marker-end="url(#SvgjsMarker1059)"></path></g><g id="SvgjsG1061"><path id="SvgjsPath1062" d="M403.33680555555543 578.0121527777784L403.33680555555543 605.0121527777784L403.33680555555543 605.0121527777784L403.33680555555543 629.4121527777783 " stroke="#323232" stroke-width="2" fill="none" marker-end="url(#SvgjsMarker1063)"></path></g><g id="SvgjsG1065"><path id="SvgjsPath1066" d="M403.33680555555543 704.0121527777783L403.33680555555543 723.0121527777783L403.33680555555543 723.0121527777783L403.33680555555543 739.4121527777783 " stroke="#323232" stroke-width="2" fill="none" marker-end="url(#SvgjsMarker1067)"></path></g><g id="SvgjsG1069"><path id="SvgjsPath1070" d="M403.33680555555543 814.0121527777783L403.33680555555543 839.5121527777783L403.33680555555543 839.5121527777783L403.33680555555543 862.4121527777783 " stroke="#323232" stroke-width="2" fill="none" marker-end="url(#SvgjsMarker1071)"></path></g><g id="SvgjsG1073" transform="translate(529.4479166666661,387.0121527777784)"><path id="SvgjsPath1074" d="M0 35C0 -11.666666666666666 70 -11.666666666666666 70 35C70 81.66666666666667 0 81.66666666666667 0 35Z " stroke="rgba(50,50,50,1)" stroke-width="2" fill-opacity="1" fill="#ffffff"></path><g id="SvgjsG1075"><text id="SvgjsText1076" font-family="微软雅黑" text-anchor="middle" font-size="24px" width="50px" fill="#323232" font-weight="400" align="middle" lineHeight="125%" font-style="" opacity="1" y="14" transform="rotate(0)"><tspan id="SvgjsTspan1077" dy="30" x="35"><tspan id="SvgjsTspan1078" style="text-decoration:;">s</tspan></tspan></text></g></g><g id="SvgjsG1079"><path id="SvgjsPath1080" d="M439.33680555555543 422.01215277777806L483.89236111111074 422.01215277777806L483.89236111111074 422.01215277777806L525.847916666666 422.01215277777806 " stroke="#323232" stroke-width="2" fill="none" marker-end="url(#SvgjsMarker1081)"></path></g><g id="SvgjsG1083" transform="translate(673.8923611111101,387.01215277777845)"><path id="SvgjsPath1084" d="M0 35C0 -11.666666666666666 70 -11.666666666666666 70 35C70 81.66666666666667 0 81.66666666666667 0 35Z " stroke="rgba(50,50,50,1)" stroke-width="2" fill-opacity="1" fill="#ffffff"></path><g id="SvgjsG1085"><text id="SvgjsText1086" font-family="微软雅黑" text-anchor="middle" font-size="24px" width="50px" fill="#323232" font-weight="400" align="middle" lineHeight="125%" font-style="" opacity="1" y="14" transform="rotate(0)"><tspan id="SvgjsTspan1087" dy="30" x="35"><tspan id="SvgjsTspan1088" style="text-decoration:;">i</tspan></tspan></text></g></g><g id="SvgjsG1089"><path id="SvgjsPath1090" d="M600.4479166666661 422.0121527777784L636.670138888888 422.0121527777784L636.670138888888 422.0121527777784L670.29236111111 422.0121527777784 " stroke="#323232" stroke-width="2" fill="none" marker-end="url(#SvgjsMarker1091)"></path></g><g id="SvgjsG1093" transform="translate(673.8923611111104,513.678819444445)"><path id="SvgjsPath1094" d="M0 35C0 -11.666666666666666 70 -11.666666666666666 70 35C70 81.66666666666667 0 81.66666666666667 0 35Z " stroke="rgba(50,50,50,1)" stroke-width="2" fill-opacity="1" fill="#7373fa"></path><g id="SvgjsG1095"><text id="SvgjsText1096" font-family="微软雅黑" text-anchor="middle" font-size="24px" width="50px" fill="#323232" font-weight="400" align="middle" lineHeight="125%" font-style="" opacity="1" y="14" transform="rotate(0)"><tspan id="SvgjsTspan1097" dy="30" x="35"><tspan id="SvgjsTspan1098" style="text-decoration:;">s</tspan></tspan></text></g></g><g id="SvgjsG1099"><path id="SvgjsPath1100" d="M708.8923611111101 458.0121527777785L708.8923611111101 485.34548611111177L708.8923611111101 485.34548611111177L708.8923611111101 510.078819444445 " stroke="#323232" stroke-width="2" fill="none" marker-end="url(#SvgjsMarker1101)"></path></g><g id="SvgjsG1103" transform="translate(185.00347222222257,148.01215277777771)"><path id="SvgjsPath1104" d="M0 35C0 -11.666666666666666 70 -11.666666666666666 70 35C70 81.66666666666667 0 81.66666666666667 0 35Z " stroke="rgba(50,50,50,1)" stroke-width="2" fill-opacity="1" fill="#ffffff"></path><g id="SvgjsG1105"><text id="SvgjsText1106" font-family="微软雅黑" text-anchor="middle" font-size="24px" width="50px" fill="#323232" font-weight="400" align="middle" lineHeight="125%" font-style="" opacity="1" y="14" transform="rotate(0)"><tspan id="SvgjsTspan1107" dy="30" x="35"><tspan id="SvgjsTspan1108" style="text-decoration:;">o</tspan></tspan></text></g></g><g id="SvgjsG1109"><path id="SvgjsPath1110" d="M367.33680555555543 183.01215277777806L311.670138888889 183.01215277777806L311.670138888889 183.01215277777806L258.6034722222226 183.01215277777806 " stroke="#323232" stroke-width="2" fill="none" marker-end="url(#SvgjsMarker1111)"></path></g><g id="SvgjsG1113" transform="translate(185.00347222222285,289.1232638888893)"><path id="SvgjsPath1114" d="M0 35C0 -11.666666666666666 70 -11.666666666666666 70 35C70 81.66666666666667 0 81.66666666666667 0 35Z " stroke="rgba(50,50,50,1)" stroke-width="2" fill-opacity="1" fill="#ffffff"></path><g id="SvgjsG1115"><text id="SvgjsText1116" font-family="微软雅黑" text-anchor="middle" font-size="24px" width="50px" fill="#323232" font-weight="400" align="middle" lineHeight="125%" font-style="" opacity="1" y="14" transform="rotate(0)"><tspan id="SvgjsTspan1117" dy="30" x="35"><tspan id="SvgjsTspan1118" style="text-decoration:;">o</tspan></tspan></text></g></g><g id="SvgjsG1119"><path id="SvgjsPath1120" d="M220.00347222222257 219.0121527777781L220.00347222222257 253.56770833333366L220.00347222222257 253.56770833333366L220.00347222222257 285.5232638888893 " stroke="#323232" stroke-width="2" fill="none" marker-end="url(#SvgjsMarker1121)"></path></g><g id="SvgjsG1123" transform="translate(185.00347222222302,415.7899305555561)"><path id="SvgjsPath1124" d="M0 35C0 -11.666666666666666 70 -11.666666666666666 70 35C70 81.66666666666667 0 81.66666666666667 0 35Z " stroke="rgba(50,50,50,1)" stroke-width="2" fill-opacity="1" fill="#7373fa"></path><g id="SvgjsG1125"><text id="SvgjsText1126" font-family="微软雅黑" text-anchor="middle" font-size="24px" width="50px" fill="#323232" font-weight="400" align="middle" lineHeight="125%" font-style="" opacity="1" y="14" transform="rotate(0)"><tspan id="SvgjsTspan1127" dy="30" x="35"><tspan id="SvgjsTspan1128" style="text-decoration:;">d</tspan></tspan></text></g></g><g id="SvgjsG1129"><path id="SvgjsPath1130" d="M220.00347222222285 360.12326388888926L220.00347222222285 387.4565972222227L220.00347222222285 387.4565972222227L220.00347222222285 412.1899305555561 " stroke="#323232" stroke-width="2" fill="none" marker-end="url(#SvgjsMarker1131)"></path></g><g id="SvgjsG1133" transform="translate(25.003472222222513,148.01215277777771)"><path id="SvgjsPath1134" d="M0 35C0 -11.666666666666666 70 -11.666666666666666 70 35C70 81.66666666666667 0 81.66666666666667 0 35Z " stroke="rgba(50,50,50,1)" stroke-width="2" fill-opacity="1" fill="#7373fa"></path><g id="SvgjsG1135"><text id="SvgjsText1136" font-family="微软雅黑" text-anchor="middle" font-size="24px" width="50px" fill="#323232" font-weight="400" align="middle" lineHeight="125%" font-style="" opacity="1" y="14" transform="rotate(0)"><tspan id="SvgjsTspan1137" dy="30" x="35"><tspan id="SvgjsTspan1138" style="text-decoration:;">d</tspan></tspan></text></g></g><g id="SvgjsG1139"><path id="SvgjsPath1140" d="M184.00347222222257 183.012152777778L140.0034722222225 183.012152777778L140.0034722222225 183.012152777778L98.60347222222254 183.012152777778 " stroke="#323232" stroke-width="2" fill="none" marker-end="url(#SvgjsMarker1141)"></path></g><g id="SvgjsG1143" transform="translate(368.33680555555577,25.01215277777726)"><path id="SvgjsPath1144" d="M0 35C0 -11.666666666666666 70 -11.666666666666666 70 35C70 81.66666666666667 0 81.66666666666667 0 35Z " stroke="rgba(50,50,50,1)" stroke-width="2" fill-opacity="1" fill="#00ffff"></path><g id="SvgjsG1145"><text id="SvgjsText1146" font-family="微软雅黑" text-anchor="middle" font-size="24px" width="50px" fill="#323232" font-weight="400" align="middle" lineHeight="125%" font-style="" opacity="1" y="14" transform="rotate(0)"><tspan id="SvgjsTspan1147" dy="30" x="35"><tspan id="SvgjsTspan1148" style="text-decoration:;">root</tspan></tspan></text></g></g><g id="SvgjsG1149"><path id="SvgjsPath1150" d="M403.33680555555577 96.01215277777726L403.33680555555577 121.51215277777749L403.33680555555577 121.51215277777749L403.33680555555577 144.41215277777775 " stroke="#323232" stroke-width="2" fill="none" marker-end="url(#SvgjsMarker1151)"></path></g></svg>