<svg width="829" xmlns:xlink="http://www.w3.org/1999/xlink" xmlns:ev="http://www.w3.org/2001/xml-events" viewBox="0 0 829 432" height="432" xmlns="http://www.w3.org/2000/svg"><defs/><g id="page1" transform="translate(5.5,5.5)"><rect width="819" x="0" fill="#ffffff" height="422" y="0"/><g id="shape1" transform="translate(240.259943,39.350394)"><path fill-rule="nonzero" d="M.0,.0L60.0,.0L60.0,45.0L.0,45.0L.0,.0z" fill="#4ed7c5" stroke-width="1" stroke="#101843"/><text style="fill:#191919;font-family:Microsoft YaHei;font-size:10.00pt" xml:space="preserve"><tspan x="10.6" y="29.0">array2</tspan></text></g><g id="shape2" transform="translate(221.259943,338.500000)"><path fill-rule="nonzero" d="M.0,.0L98.0,.0L98.0,45.0L.0,45.0L.0,.0z" fill="#ffcc53" stroke-width="1" stroke="#101843"/><text style="fill:#191919;font-family:Microsoft YaHei;font-size:10.00pt" xml:space="preserve"><tspan x="19.9" y="28.5">hello rust</tspan></text></g><g id="shape3" transform="translate(240.259943,153.350394)"><path fill-rule="nonzero" d="M.0,.0L60.0,.0L60.0,45.0L.0,45.0L.0,.0z" fill="#467dfe" stroke-width="1" stroke="#101843"/><text style="fill:#191919;font-family:Microsoft YaHei;font-size:10.00pt" xml:space="preserve"><tspan x="25.8" y="29.0">p</tspan></text></g><g id="shape4" transform="translate(300.259943,153.350394)"><path fill-rule="nonzero" d="M.0,.0L60.0,.0L60.0,45.0L.0,45.0L.0,.0z" fill="#467dfe" stroke-width="1" stroke="#101843"/><text style="fill:#191919;font-family:Microsoft YaHei;font-size:10.00pt" xml:space="preserve"><tspan x="26.2" y="29.0">3</tspan></text></g><g id="shape5" transform="translate(270.259943,84.350394)"><path d="M.0,.0L.0,63.0" stroke-width="1" fill="none" stroke="#000000"/><path d="M3.0,63.0L.0,69.0L-3.0,63.0L3.0,63.0" stroke-width="1" fill="#000000" stroke-linecap="round" stroke="#000000"/></g><g id="shape6" transform="translate(360.259943,153.350394)"><path fill-rule="nonzero" d="M.0,.0L60.0,.0L60.0,45.0L.0,45.0L.0,.0z" fill="#467dfe" stroke-width="1" stroke="#101843"/><text style="fill:#191919;font-family:Microsoft YaHei;font-size:10.00pt" xml:space="preserve"><tspan x="26.2" y="29.0">6</tspan></text></g><g id="shape7" transform="translate(270.259943,198.350394)"><path d="M.0,.0L.0,44.1" stroke-width="1" fill="none" stroke="#191919"/><path d="M3.0,44.1L.0,50.1L-3.0,44.1L3.0,44.1" stroke-width="1" fill="#191919" stroke-linecap="round" stroke="#191919"/></g><g id="shape8" transform="translate(401.000000,338.500000)"><path fill-rule="nonzero" d="M.0,.0L98.0,.0L98.0,45.0L.0,45.0L.0,.0z" fill="#ffcc53" stroke-width="1" stroke="#101843"/><text style="fill:#191919;font-family:Microsoft YaHei;font-size:10.00pt" xml:space="preserve"><tspan x="14.2" y="28.5">hello world</tspan></text></g><g id="shape9" transform="translate(581.000000,338.500000)"><path fill-rule="nonzero" d="M.0,.0L98.0,.0L98.0,45.0L.0,45.0L.0,.0z" fill="#ffcc53" stroke-width="1" stroke="#101843"/><text style="fill:#191919;font-family:Microsoft YaHei;font-size:10.00pt" xml:space="preserve"><tspan x="19.7" y="28.5">hello jack</tspan></text></g><g id="shape10" transform="translate(240.259943,248.500000)"><path fill-rule="nonzero" d="M.0,.0L60.0,.0L60.0,45.0L.0,45.0L.0,.0z" fill="#ff7e79" stroke-width="1" stroke="#101843"/><text style="fill:#191919;font-family:Microsoft YaHei;font-size:10.00pt" xml:space="preserve"><tspan x="25.8" y="29.0">p</tspan></text></g><g id="shape11" transform="translate(300.259943,248.500000)"><path fill-rule="nonzero" d="M.0,.0L60.0,.0L60.0,45.0L.0,45.0L.0,.0z" fill="#ff7e79" stroke-width="1" stroke="#101843"/><text style="fill:#191919;font-family:Microsoft YaHei;font-size:10.00pt" xml:space="preserve"><tspan x="22.4" y="29.0">10</tspan></text></g><g id="shape12" transform="translate(360.259943,248.500000)"><path fill-rule="nonzero" d="M.0,.0L60.0,.0L60.0,45.0L.0,45.0L.0,.0z" fill="#ff7e79" stroke-width="1" stroke="#101843"/><text style="fill:#191919;font-family:Microsoft YaHei;font-size:10.00pt" xml:space="preserve"><tspan x="22.4" y="29.0">20</tspan></text></g><g id="shape13" transform="translate(420.000000,248.500000)"><path fill-rule="nonzero" d="M.0,.0L60.0,.0L60.0,45.0L.0,45.0L.0,.0z" fill="#ff7e79" stroke-width="1" stroke="#101843"/><text style="fill:#191919;font-family:Microsoft YaHei;font-size:10.00pt" xml:space="preserve"><tspan x="25.8" y="29.0">p</tspan></text></g><g id="shape14" transform="translate(480.000000,248.500000)"><path fill-rule="nonzero" d="M.0,.0L60.0,.0L60.0,45.0L.0,45.0L.0,.0z" fill="#ff7e79" stroke-width="1" stroke="#101843"/><text style="fill:#191919;font-family:Microsoft YaHei;font-size:10.00pt" xml:space="preserve"><tspan x="22.4" y="29.0">11</tspan></text></g><g id="shape15" transform="translate(540.000000,248.500000)"><path fill-rule="nonzero" d="M.0,.0L60.0,.0L60.0,45.0L.0,45.0L.0,.0z" fill="#ff7e79" stroke-width="1" stroke="#101843"/><text style="fill:#191919;font-family:Microsoft YaHei;font-size:10.00pt" xml:space="preserve"><tspan x="22.4" y="29.0">22</tspan></text></g><g id="shape16" transform="translate(600.000000,248.500000)"><path fill-rule="nonzero" d="M.0,.0L60.0,.0L60.0,45.0L.0,45.0L.0,.0z" fill="#ff7e79" stroke-width="1" stroke="#101843"/><text style="fill:#191919;font-family:Microsoft YaHei;font-size:10.00pt" xml:space="preserve"><tspan x="25.8" y="29.0">p</tspan></text></g><g id="shape17" transform="translate(660.000000,248.500000)"><path fill-rule="nonzero" d="M.0,.0L60.0,.0L60.0,45.0L.0,45.0L.0,.0z" fill="#ff7e79" stroke-width="1" stroke="#101843"/><text style="fill:#191919;font-family:Microsoft YaHei;font-size:10.00pt" xml:space="preserve"><tspan x="22.4" y="29.0">10</tspan></text></g><g id="shape18" transform="translate(720.000000,248.500000)"><path fill-rule="nonzero" d="M.0,.0L60.0,.0L60.0,45.0L.0,45.0L.0,.0z" fill="#ff7e79" stroke-width="1" stroke="#101843"/><text style="fill:#191919;font-family:Microsoft YaHei;font-size:10.00pt" xml:space="preserve"><tspan x="22.4" y="29.0">20</tspan></text></g><g id="shape19" transform="translate(270.259943,293.500000)"><path d="M.0,.0L.0,39.0" stroke-width="1" fill="none" stroke="#191919"/><path d="M3.0,39.0L.0,45.0L-3.0,39.0L3.0,39.0" stroke-width="1" fill="#191919" stroke-linecap="round" stroke="#191919"/></g><g id="shape20" transform="translate(450.000000,293.500000)"><path d="M.0,.0L.0,39.0" stroke-width="1" fill="none" stroke="#191919"/><path d="M3.0,39.0L.0,45.0L-3.0,39.0L3.0,39.0" stroke-width="1" fill="#191919" stroke-linecap="round" stroke="#191919"/></g><g id="shape21" transform="translate(630.000000,293.000000)"><path d="M.0,.0L.0,39.0" stroke-width="1" fill="none" stroke="#191919"/><path d="M3.0,39.0L.0,45.0L-3.0,39.0L3.0,39.0" stroke-width="1" fill="#191919" stroke-linecap="round" stroke="#191919"/></g><g id="shape22" transform="translate(39.000000,52.000000)"><path fill-rule="nonzero" d="M.0,.0L60.0,.0L60.0,45.0L.0,45.0L.0,.0z" fill="#4ed7c5" stroke-width="1" stroke="#101843"/><text style="fill:#191919;font-family:Microsoft YaHei;font-size:10.00pt" xml:space="preserve"><tspan x="17.0" y="29.0">指针</tspan></text></g><g id="shape23" transform="translate(39.000000,131.500000)"><path fill-rule="nonzero" d="M.0,.0L60.0,.0L60.0,45.0L.0,45.0L.0,.0z" fill="#467dfe" stroke-width="1" stroke="#101843"/><text style="fill:#191919;font-family:Microsoft YaHei;font-size:10.00pt" xml:space="preserve"><tspan x="18.7" y="29.0">Vec</tspan></text></g><g id="shape24" transform="translate(39.000000,211.000000)"><path fill-rule="nonzero" d="M.0,.0L60.0,.0L60.0,45.0L.0,45.0L.0,.0z" fill="#ff7e79" stroke-width="1" stroke="#101843"/><text style="fill:#191919;font-family:Microsoft YaHei;font-size:10.00pt" xml:space="preserve"><tspan x="11.5" y="29.0">String</tspan></text></g><g id="shape25" transform="translate(39.000000,301.000000)"><path fill-rule="nonzero" d="M.0,.0L60.0,.0L60.0,45.0L.0,45.0L.0,.0z" fill="#ffcc53" stroke-width="1" stroke="#101843"/><text style="fill:#191919;font-family:Microsoft YaHei;font-size:10.00pt" xml:space="preserve"><tspan x="10.5" y="29.0">字符串</tspan></text></g></g></svg>