<svg xmlns:ev="http://www.w3.org/2001/xml-events" width="1368" height="472" xmlns="http://www.w3.org/2000/svg" viewBox="0 0 1368 472" xmlns:xlink="http://www.w3.org/1999/xlink"><defs/><g id="page1" transform="translate(5.5,5.5)"><rect width="1358" height="462" y="0" x="0" fill="#ffffff"/><g id="shape1" transform="translate(240.260000,39.350400)"><path stroke-width="1" stroke="#101843" fill-rule="nonzero" d="M.0,.0L60.0,.0L60.0,45.0L.0,45.0L.0,.0z" fill="#4ed7c5"/><text style="fill:#191919;font-family:Microsoft YaHei;font-size:10.00pt" xml:space="preserve"><tspan y="29.0" x="10.6">array2</tspan></text></g><g id="shape2" transform="translate(221.260000,338.500000)"><path stroke-width="1" stroke="#101843" fill-rule="nonzero" d="M.0,.0L98.0,.0L98.0,45.0L.0,45.0L.0,.0z" fill="#ffcc53"/><text style="fill:#191919;font-family:Microsoft YaHei;font-size:10.00pt" xml:space="preserve"><tspan y="28.5" x="19.9">hello rust</tspan></text></g><g id="shape3" transform="translate(240.260000,153.350000)"><path stroke-width="1" stroke="#101843" fill-rule="nonzero" d="M.0,.0L60.0,.0L60.0,45.0L.0,45.0L.0,.0z" fill="#467dfe"/><text style="fill:#191919;font-family:Microsoft YaHei;font-size:10.00pt" xml:space="preserve"><tspan y="29.0" x="25.8">p</tspan></text></g><g id="shape4" transform="translate(300.260000,153.350000)"><path stroke-width="1" stroke="#101843" fill-rule="nonzero" d="M.0,.0L60.0,.0L60.0,45.0L.0,45.0L.0,.0z" fill="#467dfe"/><text style="fill:#191919;font-family:Microsoft YaHei;font-size:10.00pt" xml:space="preserve"><tspan y="29.0" x="26.2">3</tspan></text></g><g id="shape5" transform="translate(270.260000,84.350400)"><path stroke-width="1" stroke="#000000" d="M.0,.0L.0,63.0" fill="none"/><path stroke-width="1" stroke="#000000" d="M3.0,63.0L.0,69.0L-3.0,63.0L3.0,63.0" stroke-linecap="round" fill="#000000"/></g><g id="shape6" transform="translate(360.260000,153.350000)"><path stroke-width="1" stroke="#101843" fill-rule="nonzero" d="M.0,.0L60.0,.0L60.0,45.0L.0,45.0L.0,.0z" fill="#467dfe"/><text style="fill:#191919;font-family:Microsoft YaHei;font-size:10.00pt" xml:space="preserve"><tspan y="29.0" x="26.2">6</tspan></text></g><g id="shape7" transform="translate(270.260000,198.350000)"><path stroke-width="1" stroke="#191919" d="M.0,.0L.0,44.1" fill="none"/><path stroke-width="1" stroke="#191919" d="M3.0,44.1L.0,50.1L-3.0,44.1L3.0,44.1" stroke-linecap="round" fill="#191919"/></g><g id="shape8" transform="translate(401.000000,338.500000)"><path stroke-width="1" stroke="#101843" fill-rule="nonzero" d="M.0,.0L98.0,.0L98.0,45.0L.0,45.0L.0,.0z" fill="#ffcc53"/><text style="fill:#191919;font-family:Microsoft YaHei;font-size:10.00pt" xml:space="preserve"><tspan y="28.5" x="14.2">hello world</tspan></text></g><g id="shape9" transform="translate(581.000000,338.500000)"><path stroke-width="1" stroke="#101843" fill-rule="nonzero" d="M.0,.0L98.0,.0L98.0,45.0L.0,45.0L.0,.0z" fill="#ffcc53"/><text style="fill:#191919;font-family:Microsoft YaHei;font-size:10.00pt" xml:space="preserve"><tspan y="28.5" x="19.7">hello jack</tspan></text></g><g id="shape10" transform="translate(240.260000,248.500000)"><path stroke-width="1" stroke="#101843" fill-rule="nonzero" d="M.0,.0L60.0,.0L60.0,45.0L.0,45.0L.0,.0z" fill="#ff7e79"/><text style="fill:#191919;font-family:Microsoft YaHei;font-size:10.00pt" xml:space="preserve"><tspan y="29.0" x="25.8">p</tspan></text></g><g id="shape11" transform="translate(300.260000,248.500000)"><path stroke-width="1" stroke="#101843" fill-rule="nonzero" d="M.0,.0L60.0,.0L60.0,45.0L.0,45.0L.0,.0z" fill="#ff7e79"/><text style="fill:#191919;font-family:Microsoft YaHei;font-size:10.00pt" xml:space="preserve"><tspan y="29.0" x="22.4">10</tspan></text></g><g id="shape12" transform="translate(360.260000,248.500000)"><path stroke-width="1" stroke="#101843" fill-rule="nonzero" d="M.0,.0L60.0,.0L60.0,45.0L.0,45.0L.0,.0z" fill="#ff7e79"/><text style="fill:#191919;font-family:Microsoft YaHei;font-size:10.00pt" xml:space="preserve"><tspan y="29.0" x="22.4">20</tspan></text></g><g id="shape13" transform="translate(420.000000,248.500000)"><path stroke-width="1" stroke="#101843" fill-rule="nonzero" d="M.0,.0L60.0,.0L60.0,45.0L.0,45.0L.0,.0z" fill="#ff7e79"/><text style="fill:#191919;font-family:Microsoft YaHei;font-size:10.00pt" xml:space="preserve"><tspan y="29.0" x="25.8">p</tspan></text></g><g id="shape14" transform="translate(480.000000,248.500000)"><path stroke-width="1" stroke="#101843" fill-rule="nonzero" d="M.0,.0L60.0,.0L60.0,45.0L.0,45.0L.0,.0z" fill="#ff7e79"/><text style="fill:#191919;font-family:Microsoft YaHei;font-size:10.00pt" xml:space="preserve"><tspan y="29.0" x="22.4">11</tspan></text></g><g id="shape15" transform="translate(540.000000,248.500000)"><path stroke-width="1" stroke="#101843" fill-rule="nonzero" d="M.0,.0L60.0,.0L60.0,45.0L.0,45.0L.0,.0z" fill="#ff7e79"/><text style="fill:#191919;font-family:Microsoft YaHei;font-size:10.00pt" xml:space="preserve"><tspan y="29.0" x="22.4">22</tspan></text></g><g id="shape16" transform="translate(600.000000,248.500000)"><path stroke-width="1" stroke="#101843" fill-rule="nonzero" d="M.0,.0L60.0,.0L60.0,45.0L.0,45.0L.0,.0z" fill="#ff7e79"/><text style="fill:#191919;font-family:Microsoft YaHei;font-size:10.00pt" xml:space="preserve"><tspan y="29.0" x="25.8">p</tspan></text></g><g id="shape17" transform="translate(660.000000,248.500000)"><path stroke-width="1" stroke="#101843" fill-rule="nonzero" d="M.0,.0L60.0,.0L60.0,45.0L.0,45.0L.0,.0z" fill="#ff7e79"/><text style="fill:#191919;font-family:Microsoft YaHei;font-size:10.00pt" xml:space="preserve"><tspan y="29.0" x="22.4">10</tspan></text></g><g id="shape18" transform="translate(720.000000,248.500000)"><path stroke-width="1" stroke="#101843" fill-rule="nonzero" d="M.0,.0L60.0,.0L60.0,45.0L.0,45.0L.0,.0z" fill="#ff7e79"/><text style="fill:#191919;font-family:Microsoft YaHei;font-size:10.00pt" xml:space="preserve"><tspan y="29.0" x="22.4">20</tspan></text></g><g id="shape19" transform="translate(270.260000,293.500000)"><path stroke-width="1" stroke="#191919" d="M.0,.0L.0,39.0" fill="none"/><path stroke-width="1" stroke="#191919" d="M3.0,39.0L.0,45.0L-3.0,39.0L3.0,39.0" stroke-linecap="round" fill="#191919"/></g><g id="shape20" transform="translate(450.000000,293.500000)"><path stroke-width="1" stroke="#191919" d="M.0,.0L.0,39.0" fill="none"/><path stroke-width="1" stroke="#191919" d="M3.0,39.0L.0,45.0L-3.0,39.0L3.0,39.0" stroke-linecap="round" fill="#191919"/></g><g id="shape21" transform="translate(630.000000,293.000000)"><path stroke-width="1" stroke="#191919" d="M.0,.0L.0,39.0" fill="none"/><path stroke-width="1" stroke="#191919" d="M3.0,39.0L.0,45.0L-3.0,39.0L3.0,39.0" stroke-linecap="round" fill="#191919"/></g><g id="shape22" transform="translate(39.000000,52.000000)"><path stroke-width="1" stroke="#101843" fill-rule="nonzero" d="M.0,.0L60.0,.0L60.0,45.0L.0,45.0L.0,.0z" fill="#4ed7c5"/><text style="fill:#191919;font-family:Microsoft YaHei;font-size:10.00pt" xml:space="preserve"><tspan y="29.0" x="17.0">指针</tspan></text></g><g id="shape23" transform="translate(39.000000,131.500000)"><path stroke-width="1" stroke="#101843" fill-rule="nonzero" d="M.0,.0L60.0,.0L60.0,45.0L.0,45.0L.0,.0z" fill="#467dfe"/><text style="fill:#191919;font-family:Microsoft YaHei;font-size:10.00pt" xml:space="preserve"><tspan y="29.0" x="18.7">Vec</tspan></text></g><g id="shape24" transform="translate(39.000000,211.000000)"><path stroke-width="2" stroke="#101843" fill-rule="nonzero" d="M.0,.0L60.0,.0L60.0,45.0L.0,45.0L.0,.0z" fill="#ff7e79"/><text style="fill:#191919;font-family:Microsoft YaHei;font-size:10.00pt" xml:space="preserve"><tspan y="29.0" x="11.5">String</tspan></text></g><g id="shape25" transform="translate(39.000000,301.000000)"><path stroke-width="1" stroke="#101843" fill-rule="nonzero" d="M.0,.0L60.0,.0L60.0,45.0L.0,45.0L.0,.0z" fill="#ffcc53"/><text style="fill:#191919;font-family:Microsoft YaHei;font-size:10.00pt" xml:space="preserve"><tspan y="29.0" x="10.5">字符串</tspan></text></g><path stroke-width="1" stroke="#101843" fill-rule="nonzero" d="M.0,.0L60.0,.0L60.0,45.0L.0,45.0L.0,.0z" id="shape26" fill="#ebebeb" transform="translate(779.000000,248.500000)"/><path stroke-width="1" stroke="#101843" fill-rule="nonzero" d="M.0,.0L60.0,.0L60.0,45.0L.0,45.0L.0,.0z" id="shape27" fill="#ebebeb" transform="translate(839.000000,248.500000)"/><path stroke-width="1" stroke="#101843" fill-rule="nonzero" d="M.0,.0L60.0,.0L60.0,45.0L.0,45.0L.0,.0z" id="shape28" fill="#ebebeb" transform="translate(899.000000,248.500000)"/><path stroke-width="1" stroke="#101843" fill-rule="nonzero" d="M.0,.0L60.0,.0L60.0,45.0L.0,45.0L.0,.0z" id="shape29" fill="#ebebeb" transform="translate(959.000000,248.500000)"/><path stroke-width="1" stroke="#101843" fill-rule="nonzero" d="M.0,.0L60.0,.0L60.0,45.0L.0,45.0L.0,.0z" id="shape30" fill="#ebebeb" transform="translate(1019.000000,248.500000)"/><path stroke-width="1" stroke="#101843" fill-rule="nonzero" d="M.0,.0L60.0,.0L60.0,45.0L.0,45.0L.0,.0z" id="shape31" fill="#ebebeb" transform="translate(1079.000000,248.500000)"/><path stroke-width="1" stroke="#101843" fill-rule="nonzero" d="M.0,.0L60.0,.0L60.0,45.0L.0,45.0L.0,.0z" id="shape32" fill="#ebebeb" transform="translate(1139.000000,248.500000)"/><path stroke-width="1" stroke="#101843" fill-rule="nonzero" d="M.0,.0L60.0,.0L60.0,45.0L.0,45.0L.0,.0z" id="shape33" fill="#ebebeb" transform="translate(1199.000000,248.500000)"/><path stroke-width="1" stroke="#101843" fill-rule="nonzero" d="M.0,.0L60.0,.0L60.0,45.0L.0,45.0L.0,.0z" id="shape34" fill="#ebebeb" transform="translate(1259.000000,248.500000)"/><g id="shape35" transform="translate(39.000000,378.000000)"><path stroke-width="1" stroke="#101843" fill-rule="nonzero" d="M.0,.0L60.0,.0L60.0,45.0L.0,45.0L.0,.0z" fill="#ebebeb"/><text style="fill:#191919;font-family:Microsoft YaHei;font-size:10.00pt" xml:space="preserve"><tspan y="20.0" x="4.0">未初始化</tspan><tspan y="38.0" x="17.0">区域</tspan></text></g><path stroke-width="2" stroke="#101843" d="M.0,.0L180.0,.0L180.0,45.0L.0,45.0L.0,.0z" id="shape36" fill="none" transform="translate(240.260000,248.500000)"/><path stroke-width="2" stroke="#101843" d="M.0,.0L180.0,.0L180.0,45.0L.0,45.0L.0,.0z" id="shape37" fill="none" transform="translate(420.260000,248.500000)"/><path stroke-width="2" stroke="#101843" d="M.0,.0L180.0,.0L180.0,45.0L.0,45.0L.0,.0z" id="shape38" fill="none" transform="translate(600.000000,248.500000)"/><path stroke-width="2" stroke="#101843" d="M.0,.0L180.0,.0L180.0,45.0L.0,45.0L.0,.0z" id="shape39" fill="none" transform="translate(779.000000,248.500000)"/><path stroke-width="2" stroke="#101843" d="M.0,.0L180.0,.0L180.0,45.0L.0,45.0L.0,.0z" id="shape40" fill="none" transform="translate(959.000000,248.500000)"/><path stroke-width="2" stroke="#101843" d="M.0,.0L180.0,.0L180.0,45.0L.0,45.0L.0,.0z" id="shape41" fill="none" transform="translate(1139.000000,248.500000)"/></g></svg>